<svg viewBox="26.549999999999983 138.65000000000003 103.25000000000003 100.29999999999995" fill="none" xmlns="http://www.w3.org/2000/svg" xmlns:xlink="http://www.w3.org/1999/xlink" overflow="visible" width="103.25000000000003px" height="100.29999999999995px"><g id="Master/Character/Sitting on Floor"><g id="Head" transform="translate(21 112) scale(1 1)"><g id="Head/Short Hair"><g id="Hair"><path id="Fill 34" fill-rule="evenodd" clip-rule="evenodd" d="M25.6246 45.9757C25.7936 45.7277 25.9716 45.4797 26.1516 45.2207C26.7386 44.3727 27.0006 43.5167 27.3236 42.5167C28.0806 40.1667 28.8376 37.8177 29.5946 35.4687C29.8156 34.7837 30.0476 34.0787 30.5226 33.5377C31.9076 31.9627 34.4826 32.5267 36.4276 31.7437C37.7956 31.1927 39.1366 30.3777 40.6436 30.2997C42.1826 30.2197 43.7076 30.7897 45.1436 31.2667C47.3146 31.9867 49.2556 33.1707 50.3276 35.2667C51.4346 37.4297 51.7676 39.8907 52.3956 42.2377C53.0226 44.5857 54.0706 46.9927 56.1066 48.3177C56.3836 48.4977 56.6826 48.6627 56.8786 48.9287C57.0746 49.1937 57.1296 49.5997 56.9016 49.8377C56.6216 50.1297 56.1266 49.9997 55.7876 49.7797C55.4476 49.5597 55.1196 49.2587 54.7146 49.2547C54.6456 50.0587 54.9416 50.8867 55.5066 51.4627C54.4826 52.5687 52.3646 52.2547 51.7056 50.8997C51.1306 51.4067 51.2116 52.4647 51.8556 52.8797C46.8356 54.9017 41.2816 55.9727 35.9796 54.8897C34.9646 54.6827 33.9446 54.3887 33.0896 53.8027C32.2356 53.2157 31.5616 52.2947 31.4856 51.2617C31.0046 51.9107 30.6916 52.6837 30.5846 53.4857C29.3396 53.8147 27.9616 52.5877 28.1446 51.3127C28.2146 51.9757 27.5706 52.5687 26.9036 52.6007C26.2366 52.6337 25.6116 52.2257 25.2016 51.6997C24.3506 50.6067 24.2956 49.0567 24.7156 47.7377C24.9316 47.0587 25.2566 46.5157 25.6246 45.9757" fill="#342a83"/><rect id="Rectangle" x="37.1895" y="44.4042" width="8" height="17" rx="4" transform="rotate(10 37.1895 44.4042)" fill="#ccccff"/><path id="Fill 44" fill-rule="evenodd" clip-rule="evenodd" d="M43.0849 57.1585C38.0049 56.7165 35.7188 49.4616 35.7188 49.4616L43.9835 51.9485L43.0849 57.1585Z" fill="#9393c3"/><path id="Fill 36" fill-rule="evenodd" clip-rule="evenodd" d="M58.9156 49.3195C59.1536 49.3195 59.3506 49.1305 59.3566 48.8905C59.3946 47.6505 58.3516 46.7305 57.4466 46.3205C56.9356 46.0885 56.3986 45.9475 55.8816 45.8115C55.4606 45.7005 55.0626 45.5955 54.6826 45.4465C52.8416 44.7275 51.4766 42.8475 51.3626 40.8755C51.3486 40.6325 51.1566 40.4515 50.8956 40.4595C50.6526 40.4735 50.4666 40.6825 50.4796 40.9255C50.6156 43.2685 52.1746 45.4165 54.3596 46.2695C54.7886 46.4375 55.2296 46.5535 55.6566 46.6655C56.1606 46.7985 56.6376 46.9235 57.0816 47.1255C57.7906 47.4465 58.4966 48.1095 58.4746 48.8645C58.4666 49.1085 58.6586 49.3125 58.9026 49.3195C58.9066 49.3195 58.9116 49.3195 58.9156 49.3195" fill="#2a0752"/><path id="Fill 38" fill-rule="evenodd" clip-rule="evenodd" d="M36.8359 51.1764V51.1784C36.8369 51.1784 36.8369 51.1804 36.8399 51.1804L36.8359 51.1764Z" fill="#523E8C"/><path id="Fill 46" fill-rule="evenodd" clip-rule="evenodd" d="M29.2245 44.1501C28.8115 45.9341 29.9205 47.7121 31.7025 48.1261C33.4845 48.5381 35.2625 47.4271 35.6755 45.6471C36.0885 43.8651 34.9775 42.0871 33.1965 41.6741C31.4155 41.2611 29.6365 42.3691 29.2245 44.1501" fill="#ccccff"/><path id="Fill 48" fill-rule="evenodd" clip-rule="evenodd" d="M33.3547 46.1188C33.3547 46.1188 33.8957 43.7808 31.5757 43.6308Z" fill="#9393c3"/><path id="Fill 50" fill-rule="evenodd" clip-rule="evenodd" d="M40.9225 53.2731V53.2731C45.1215 53.9561 49.1185 51.2001 49.7925 47.7901L51.3335 39.7331C52.1745 35.4601 50.0145 31.3721 45.7705 30.3871C41.4255 29.3811 35.7845 31.8251 34.7775 36.1691L33.6105 42.6631C32.7065 47.6851 35.9515 52.1211 40.9225 53.2731" fill="#ccccff"/><path id="Fill 54" fill-rule="evenodd" clip-rule="evenodd" d="M33.2905 46.8478L33.6355 52.5538L30.5625 50.9238L33.2905 46.8478Z" fill="#FFD000"/><path id="Fill 56" fill-rule="evenodd" clip-rule="evenodd" d="M33.2906 46.8478L34.0746 52.7418L33.6356 52.5538L33.2906 46.8478Z" fill="#A88000"/><path id="Fill 90" fill-rule="evenodd" clip-rule="evenodd" d="M31.7939 39.9396C32.1059 36.4736 33.9389 33.1026 36.8739 31.2326C39.8079 29.3626 43.8239 29.1746 46.7609 31.0406C47.4339 31.4676 48.0429 31.9916 48.5779 32.5816C48.7809 32.8066 49.1109 33.0046 48.9299 33.3086C48.7779 33.5646 48.4809 33.7006 48.2159 33.8086C46.0299 34.7046 43.7599 35.3866 41.6059 36.3616C40.0829 37.0516 38.4399 37.9046 37.2849 39.1456C37.0679 39.3776 36.9139 39.6486 36.7289 39.9046C36.4579 40.2776 36.1049 40.5786 35.8529 40.9656C35.6159 41.3306 35.4439 41.7396 35.3579 42.1666C35.2019 42.9376 35.3119 43.7356 35.2749 44.5226C35.2719 44.5896 35.2639 44.6666 35.2109 44.7096C35.1699 44.7416 35.1139 44.7466 35.0629 44.7456C34.4149 44.7436 33.8579 44.3096 33.3709 43.8836C32.9429 43.5106 32.5189 43.1206 32.2139 42.6406C31.9419 42.2106 31.8359 41.7706 31.8139 41.2696C31.8059 41.0986 31.7519 40.9376 31.7479 40.7666C31.7399 40.4926 31.7699 40.2116 31.7939 39.9396" fill="#342a83"/><path id="Fill 92" fill-rule="evenodd" clip-rule="evenodd" d="M35.5452 37.3903C35.5452 37.3903 38.9932 32.5303 34.4612 30.6233C30.1442 28.8083 27.1732 32.7643 27.6352 35.3193C28.0972 37.8733 31.4092 39.0923 31.4092 39.0923L35.5452 37.3903Z" fill="#342a83"/><path id="Fill 94" fill-rule="evenodd" clip-rule="evenodd" d="M23.6976 52.9746C23.9376 52.9306 24.0966 52.7006 24.0536 52.4606C23.6446 50.2216 24.5796 47.7806 26.3786 46.3856C27.0796 45.8426 27.8806 45.4546 28.7276 45.0446C29.6536 44.5956 30.6126 44.1306 31.4316 43.4436C32.9276 42.1886 33.8086 40.2746 33.7896 38.3226C33.7876 38.1056 33.6276 37.9216 33.4126 37.8906C32.5456 37.7626 31.7996 37.3046 31.2456 36.9196C30.3936 36.3276 29.8256 35.2906 29.7636 34.2126C29.7346 33.7396 29.8036 33.2536 29.9546 32.7896C30.0586 33.2256 30.2316 33.6166 30.3936 33.9386C30.9216 34.9826 31.9196 35.7486 33.0636 35.9846C33.3056 36.0366 33.5366 35.8796 33.5866 35.6416C33.6366 35.4026 33.4816 35.1686 33.2436 35.1196C32.3736 34.9396 31.5836 34.3346 31.1826 33.5406C30.6906 32.5626 30.6116 31.8216 30.9286 31.1406C31.0196 30.9426 30.9546 30.7086 30.7736 30.5866C30.5926 30.4656 30.3496 30.4956 30.2036 30.6546C29.2866 31.6486 28.8046 32.9636 28.8806 34.2646C28.9606 35.6266 29.6566 36.8906 30.7416 37.6456C31.2946 38.0296 32.0216 38.4796 32.8976 38.6896C32.8116 40.2536 32.0676 41.7566 30.8636 42.7666C30.1286 43.3836 29.2616 43.8036 28.3426 44.2496C27.4916 44.6616 26.6116 45.0876 25.8376 45.6876C23.7846 47.2786 22.7186 50.0646 23.1836 52.6186C23.2226 52.8326 23.4086 52.9816 23.6176 52.9816C23.6436 52.9816 23.6716 52.9796 23.6976 52.9746Z" fill="#2a0752"/><path id="Fill 96" fill-rule="evenodd" clip-rule="evenodd" d="M33.4081 36.0216C33.3921 35.3386 33.5701 34.6526 33.9151 34.0636C34.0411 33.8496 34.2001 33.6386 34.4291 33.5416C34.6571 33.4426 34.9671 33.4996 35.0811 33.7206C35.1471 33.8466 35.1381 33.9976 35.1191 34.1386C35.0101 34.9606 34.6001 35.7396 33.9841 36.2966C33.9131 36.3606 33.8291 36.4256 33.7341 36.4186C33.6371 36.4116 33.5631 36.3336 33.4941 36.2656C33.0481 35.8236 32.3851 35.6126 31.7651 35.7156C31.6661 35.7316 31.5621 35.7596 31.4951 35.8346C31.3651 35.9786 31.4501 36.2266 31.6131 36.3316C31.7751 36.4376 31.9811 36.4406 32.1751 36.4396C32.7301 36.4396 33.2851 36.4386 33.8401 36.4386" fill="#2a0752"/><path id="Fill 98" fill-rule="evenodd" clip-rule="evenodd" d="M47.2496 41.8361C46.7536 41.7971 46.2546 41.7381 45.7876 41.5681C44.6396 41.1501 43.7796 40.0331 43.6706 38.8161C43.3666 39.4161 43.1946 40.0821 43.1706 40.7541C42.0216 40.9231 40.8066 40.1721 40.4436 39.0691C39.7986 39.5731 39.3846 40.3621 39.3376 41.1791C38.6486 41.3011 37.9306 41.2561 37.2626 41.0501C37.0426 40.9821 36.8176 40.8901 36.6786 40.7071C36.5526 40.5411 36.5156 40.3261 36.4916 40.1191C36.4006 39.3321 36.4436 38.5311 36.6106 37.7571C36.6676 37.4921 36.7396 37.2301 36.8256 36.9721C36.8936 36.7691 36.9036 36.5651 36.9456 36.3541C37.0276 35.9421 37.1466 35.5391 37.2996 35.1491C37.6046 34.3661 38.0436 33.6381 38.5826 32.9951C39.6546 31.7161 41.1356 30.7661 42.7746 30.4171C45.7726 29.7781 49.0996 31.1861 50.7286 33.7831C50.9736 34.1721 51.1816 34.5851 51.3346 35.0181C51.4116 35.2331 51.4736 35.4541 51.5196 35.6781C51.5376 35.7661 51.5326 35.8781 51.5596 35.9611C51.6276 36.1771 51.8876 36.3641 52.0656 36.4901C52.1926 36.5791 52.3106 36.6741 52.4336 36.7671C52.5966 36.8891 54.3326 37.7231 54.3586 37.6861C53.9986 38.1871 53.4656 38.5611 52.8726 38.7311C53.1996 38.8661 53.5646 39.0401 53.6686 39.3781C53.8296 39.9001 53.2756 40.3431 52.7986 40.6101C50.8606 41.6951 49.4606 42.0081 47.2496 41.8361" fill="#342a83"/></g></g></g><g id="Upper Body" transform="translate(-5 115) scale(1 1)"><g id="Upper Body/Map"><g id="Upper"><g id="Group 9"><path id="Fill 7" fill-rule="evenodd" clip-rule="evenodd" d="M83.9361 73.1734C83.9591 71.2614 83.9291 69.3464 83.7691 67.4384C83.6661 66.2054 83.3461 64.9434 83.3931 63.7124C83.4331 62.6524 82.6251 61.4124 82.0411 60.5754C81.0681 59.1794 79.7491 58.0254 78.2351 57.2484C77.4841 56.8624 76.6441 56.5144 75.8051 56.3834C75.4621 56.3284 75.1551 56.3874 74.8151 56.4154C73.7381 56.5014 72.5931 56.0234 71.5651 55.7844C70.5761 57.1804 68.4631 57.8444 66.5281 57.6714C64.5941 57.4994 62.8391 56.6134 61.4101 55.5144C61.1111 55.2854 60.8081 55.0374 60.4201 54.9384C60.0151 54.8344 59.5791 54.9074 59.1671 54.9874C57.8121 55.2474 56.4761 55.5754 55.1681 55.9694C54.6421 56.1274 54.1831 56.2824 53.7461 56.5744C52.8161 57.1944 51.5411 57.1214 50.4831 57.5324C49.2261 58.0184 48.0881 58.8734 47.8731 60.0664C47.4911 62.1734 47.9561 64.3714 48.6871 66.3924C49.0951 67.5164 49.4721 68.6784 49.8111 69.8434C49.8581 69.9994 49.9041 70.1554 49.9481 70.3134C50.0151 70.5534 50.0831 70.7924 50.1491 71.0344C50.7481 73.2284 51.2411 75.4454 51.5761 77.6784C51.7281 78.6884 51.5401 79.9423 51.5761 80.9543C51.6091 81.9103 51.7791 82.7234 51.6921 83.6784C51.5161 85.6214 48.741 89.373 50.1621 89.5094C51.5832 89.6458 50.5761 94.9604 50.5761 94.9604C50.5761 94.9604 83.3101 95.0754 83.2161 94.2634C83.2661 93.5244 83.4421 92.8124 83.3691 92.0774C83.3111 91.1134 83.4291 90.1184 83.4601 89.1534C83.5211 87.1994 83.5831 85.2454 83.6441 83.2914C83.7081 81.2424 83.8371 79.1864 83.8371 77.1364C83.8791 75.8154 83.9201 74.4944 83.9361 73.1734Z" fill="#CA5BA9"/></g><path id="Fill 42" fill-rule="evenodd" clip-rule="evenodd" d="M67.5534 54.3278C67.5534 54.3278 61.0647 53.991 60.9997 54.009C60.1267 54.248 59.1018 54.486 58.2278 54.725C57.0048 55.059 55.7828 55.393 54.5608 55.727C54.0888 55.856 53.6178 55.985 53.1468 56.114C52.9988 56.154 52.8288 56.178 52.6878 56.239C52.3178 56.397 53.0348 57.02 53.1808 57.181C54.3678 58.497 55.8218 59.565 57.4168 60.336C59.0128 61.108 60.7528 61.585 62.5208 61.722C63.4028 61.79 64.2928 61.773 65.1708 61.665C65.3858 61.639 66.4344 61.675 66.6494 61.665C66.8604 61.654 67.9831 61.3296 68.1851 61.2656C68.1851 61.2656 69.4095 60.963 71.6755 60.336C73.9415 59.709 73.7118 59.369 75.9778 58.742L77.1158 58.472C77.6248 58.352 77.6308 57.631 77.1258 57.501L69.7098 55.594C69.4678 55.532 68.9373 55.1962 69.0847 54.4003L67.5534 54.3278Z" fill="#ccccff"/><path id="Fill 10" fill-rule="evenodd" clip-rule="evenodd" d="M77.0562 75.8264C77.0982 76.1904 77.1372 76.5524 77.1692 76.9084H59.2802L59.2002 75.8264H77.0562Z" fill="white"/><path id="Fill 12" fill-rule="evenodd" clip-rule="evenodd" d="M76.0758 70.4231C76.1608 70.7711 76.2438 71.1191 76.3238 71.4681C76.3258 71.4811 76.3288 71.4921 76.3308 71.5051H58.8808L58.8008 70.4231H76.0758Z" fill="white"/><path id="Fill 14" fill-rule="evenodd" clip-rule="evenodd" d="M59.6006 81.2283H77.3876C77.3916 81.6063 77.3906 81.9663 77.3876 82.3113H59.6806L59.6006 81.2283Z" fill="white"/><path id="Fill 18" fill-rule="evenodd" clip-rule="evenodd" d="M74.5674 65.0193C74.6784 65.3753 74.7884 65.7363 74.8974 66.1023H58.4814L58.4014 65.0193H74.5674Z" fill="white"/><path id="Fill 20" fill-rule="evenodd" clip-rule="evenodd" d="M77.147 86.6321C77.189 86.9961 77.227 87.3591 77.26 87.7141H59.37L59.291 86.6321H77.147Z" fill="white"/><path id="Fill 24" fill-rule="evenodd" clip-rule="evenodd" d="M70.2112 54.3664C70.9932 54.2224 72.0542 54.5824 72.8192 54.7464C76.2462 55.4824 79.7332 56.9664 81.8142 59.9194C82.6992 61.1774 83.3362 62.5164 84.1652 63.8034C84.7852 64.7664 85.4082 65.7274 86.0352 66.6854C87.2892 68.6024 88.5562 70.5104 89.8372 72.4084C92.2202 75.9404 94.6502 79.4394 97.1262 82.9064C99.8262 81.5224 102.526 80.1374 105.226 78.7534C106.623 81.8404 107.47 85.1754 107.715 88.5544C107.731 88.7614 107.742 88.9774 107.664 89.1704C107.562 89.4194 107.329 89.5854 107.104 89.7344C103.895 91.8614 100.175 93.2124 96.3502 93.6394C94.5802 93.8384 92.7332 93.7944 91.0232 93.2594C90.1922 92.9984 89.3952 92.6144 88.7052 92.0784C88.3942 91.8364 88.0662 91.5754 87.9032 91.2084C87.7412 90.8454 87.6312 90.5224 87.4072 90.1814C87.0692 89.6684 86.7302 89.1564 86.3912 88.6434C85.9612 87.9924 85.5312 87.3414 85.1362 86.6684C84.9732 86.3904 84.8392 86.0834 84.6432 85.8254C84.5252 85.6694 84.3702 85.5474 84.2532 85.3894C83.8642 84.8664 83.5882 84.2454 83.2232 83.7024C83.1342 83.5694 83.0342 83.4304 82.8842 83.3744C82.4862 83.2254 82.2302 83.6944 82.4402 83.9984C82.7122 84.3914 82.7172 84.8424 82.7912 85.3094C82.9722 86.4464 83.594 89.5741 83.603 89.6151C83.603 89.6151 75.1192 89.8234 75.4995 89.7839C75.8799 89.7444 73.6522 74.3684 73.6522 74.3684C73.6652 73.7504 73.3562 72.9914 73.2272 72.3924C72.7442 70.1474 72.2612 67.9034 71.7782 65.6574L69.828 58.6769C69.643 57.8159 69.8162 56.5354 69.6312 55.6754C69.5582 55.3344 69.5292 54.9784 69.6692 54.7194C69.7622 54.5474 69.9312 54.4184 70.2112 54.3664Z" fill="#7E6EEF"/><path id="Fill 29" fill-rule="evenodd" clip-rule="evenodd" d="M94.5654 66.9187L85.6514 93.8757H96.4554H99.0524L106.257 66.5027L105.926 66.5157L94.5654 66.9187Z" fill="#F2E9E1"/><path id="Fill 31" fill-rule="evenodd" clip-rule="evenodd" d="M77.3715 67.3772C77.1325 68.0492 76.8925 68.7212 76.6535 69.3932C75.5905 72.3772 71.0155 87.1342 70.4595 88.3202C70.3735 88.5042 70.2895 88.7232 70.3885 88.9002C70.4665 89.0442 70.6365 89.1062 70.7915 89.1572C75.7345 90.7812 80.6725 92.3592 85.6515 93.8762L94.5655 66.9192L80.1545 64.3232L78.5605 64.0332L77.3715 67.3772Z" fill="#F1D8B3"/><path id="Fill 33" fill-rule="evenodd" clip-rule="evenodd" d="M106.258 66.5028L99.0518 93.8758L104.329 90.7238L117.635 62.5348L108.93 65.5718L106.258 66.5028Z" fill="#F1D8B3"/><path id="Fill 41" fill-rule="evenodd" clip-rule="evenodd" d="M48.1414 83.2971C47.5784 83.2971 46.9854 83.2851 46.3494 83.2571C46.2584 83.2531 46.1774 83.2001 46.1364 83.1191C46.0964 83.0381 46.1024 82.9411 46.1544 82.8661L51.0804 75.6841C51.1584 75.5711 51.3144 75.5421 51.4284 75.6201C51.5414 75.6981 51.5704 75.8531 51.4924 75.9671L46.8224 82.7751C49.3154 82.8571 51.1534 82.6961 53.2644 82.5101C54.1614 82.4321 55.1144 82.3481 56.1964 82.2751C56.3294 82.2691 56.4534 82.3701 56.4624 82.5081C56.4714 82.6461 56.3674 82.7651 56.2294 82.7741C55.1514 82.8471 54.2024 82.9301 53.3084 83.0081C51.5744 83.1611 50.0214 83.2971 48.1414 83.2971" fill="#9E2B26"/><path id="Fill 43" fill-rule="evenodd" clip-rule="evenodd" d="M106.979 76.9656C105.835 77.9116 106.108 80.0236 107.403 80.6846C105.888 80.3826 107.037 84.3106 107.132 85.1136C107.272 86.3016 107.602 87.3486 107.602 87.3486C107.822 86.5656 108.073 86.6936 108.656 86.1436C109.144 85.6826 109.81 85.5036 110.284 85.0336C111.701 83.6286 111.447 81.5316 110.358 80.0576C109.9 79.4366 109.382 78.8616 108.815 78.3436C108.647 78.1896 107.142 76.8356 106.979 76.9656" fill="#ccccff"/><path id="Fill 5" fill-rule="evenodd" clip-rule="evenodd" d="M59.9095 53.8752C59.9095 53.8752 51.7795 55.5137 48.6015 57.5493C45.4235 59.585 38.3335 71.6089 35.7555 76.6838C32.0705 83.9356 30.3679 94.4156 43.4849 92.6855C56.6019 90.9553 58.4015 91.2388 58.4015 91.2388V86.3024L63.2745 84.7236L63.9505 69.3559L59.9095 53.8752Z" fill="#7E6EEF"/><path id="Fill 35" fill-rule="evenodd" clip-rule="evenodd" d="M60.1337 81.2393C60.2097 81.2233 60.2947 81.2133 60.3977 81.1913C61.6217 80.9313 62.9667 80.8233 64.2157 80.6923C65.0967 80.6003 65.9837 80.4953 66.8677 80.3813C67.3117 80.3233 67.7527 80.2623 68.1917 80.1993L68.8467 80.1023L69.4687 80.0073L69.5677 79.9913C72.2317 79.5763 74.7277 81.4013 75.1397 84.0653C75.3567 85.4653 76.8917 84.4593 75.6167 85.2203C75.1117 85.5243 74.1567 85.5563 73.5757 85.7283C72.8907 85.9313 72.2137 86.1623 71.5407 86.4043C70.1367 86.9093 68.7537 87.4693 67.3497 87.9733C64.9507 88.8343 62.1847 89.7163 59.6327 89.6413C59.0277 87.8373 58.8587 85.8923 59.1167 84.0083C59.2087 83.3393 59.2987 81.9583 59.7767 81.4433C59.9027 81.3063 60.0067 81.2653 60.1337 81.2393" fill="#ccccff"/><path id="Fill 37" fill-rule="evenodd" clip-rule="evenodd" d="M80.4557 78.4176C80.4557 78.4176 81.7987 78.5246 81.4287 79.5436C81.1387 80.3316 80.5467 80.5236 80.5467 80.5236C80.5467 80.5236 81.9007 81.1136 80.8837 82.4696C80.2537 83.3096 75.3877 85.6096 72.7607 86.0586C70.1377 86.5086 64.3167 89.2676 66.2797 85.7646C66.2797 85.7646 72.6717 73.5756 76.1617 72.3586C79.6497 71.1406 80.0767 73.3856 80.1287 73.7576C80.1387 73.8216 80.1437 73.8766 80.1467 73.9296C80.5557 74.0116 80.9847 74.2946 81.0107 75.1066C81.0247 75.6186 80.8927 75.8956 80.7237 76.0416C80.3457 76.0806 80.0477 76.1626 80.0477 76.1626C80.0477 76.1626 80.4387 76.2836 80.7237 76.0416C81.3527 75.9756 81.6667 76.3756 81.7747 77.0946C81.9107 78.0036 80.4557 78.4176 80.4557 78.4176" fill="#ccccff"/><path id="Fill 39" fill-rule="evenodd" clip-rule="evenodd" d="M57.6307 89.0745L55.3396 89.2979C55.0599 86.1626 55.5039 82.8648 55.731 81.4745C55.7984 81.0671 56.1473 80.7447 56.6005 80.6688L60.5799 80C60.3685 84.5776 60.9427 88.5483 61.2399 90.2339C61.3248 90.7196 60.9741 91.1798 60.4359 91.2837L56.8285 91.9789C56.2811 92.0861 55.7328 91.7744 55.6285 91.2837C55.5344 90.8425 55.4605 90.3881 55.4042 89.9263L57.6307 89.0745Z" fill="#402DC4"/><path id="Path (Stroke)" fill-rule="evenodd" clip-rule="evenodd" d="M45.7744 83.8706L56.3235 82.6235L56.4409 83.6166L45.8918 84.8637L45.7744 83.8706Z" fill="#402DC4"/></g></g></g><g id="Lower Body/Sitting on Floor" transform="translate(36 206) scale(1 1)"><g id="Lower Body/Sitting on Floor/Green Pants"><g id="Sitting"><g id="Group 3"><mask id="mask0218f19f7-080e-480c-8248-c148c7eb320d" style="mask-type:alpha" maskUnits="userSpaceOnUse" x="70" y="27" width="21" height="4" fill="#ffffff"><path id="Clip 2" fill-rule="evenodd" clip-rule="evenodd" d="M70.8584 27.3117H90.7324V30.3527H70.8584V27.3117Z" fill="#ffffff"/></mask><g mask="url(#mask0218f19f7-080e-480c-8248-c148c7eb320d)"><path id="Fill 1" fill-rule="evenodd" clip-rule="evenodd" d="M70.8584 29.8757V28.5217H88.4954C89.3504 28.5217 90.1434 28.0727 90.5824 27.3387L90.7334 27.3117V29.4877C90.7334 29.5687 90.7024 29.6467 90.6474 29.7057L90.5944 29.7617C90.2404 30.1387 89.7474 30.3527 89.2304 30.3527H71.3354C71.0714 30.3527 70.8584 30.1387 70.8584 29.8757" fill="#145DB6"/></g></g><path id="Fill 4" fill-rule="evenodd" clip-rule="evenodd" d="M65.4531 5.1037L71.4771 21.9287L72.0781 28.0487H89.0421C89.6061 28.0487 90.0631 27.5917 90.0631 27.0277C90.0631 26.6047 89.8031 26.2267 89.4091 26.0747L79.4741 21.4427L76.2641 3.2867" fill="#FF75E7"/><g id="Group 8"><mask id="mask1218f19f7-080e-480c-8248-c148c7eb320d" style="mask-type:alpha" maskUnits="userSpaceOnUse" x="70" y="21" width="21" height="8" fill="#ffffff"><path id="Clip 7" fill-rule="evenodd" clip-rule="evenodd" d="M70.8584 21.4425H90.7327V28.5225H70.8584V21.4425Z" fill="#ffffff"/></mask><g mask="url(#mask1218f19f7-080e-480c-8248-c148c7eb320d)"><path id="Fill 6" fill-rule="evenodd" clip-rule="evenodd" d="M79.4744 21.4425L90.0104 26.0465C90.4464 26.2365 90.7334 26.7115 90.7334 27.2415C90.7334 27.9485 90.0054 28.5225 89.3814 28.5225H70.8584L71.4774 21.9285C71.4774 21.9285 74.7214 24.1165 79.4744 21.4425" fill="#FF75E7"/></g></g><path id="Stroke 9" d="M81.4783 21.7224C81.5818 21.5888 81.7741 21.5644 81.9076 21.6679C82.0412 21.7715 82.0656 21.9637 81.962 22.0973C81.3798 22.8485 80.8875 23.6651 80.497 24.528C80.4273 24.6819 80.246 24.7503 80.092 24.6806C79.938 24.6109 79.8697 24.4296 79.9394 24.2756C80.3497 23.3691 80.8668 22.5114 81.4783 21.7224Z" fill="#0074E6"/><path id="Stroke 11" d="M82.7989 22.5311C82.8985 22.3946 83.09 22.3648 83.2265 22.4645C83.3629 22.5642 83.3927 22.7556 83.293 22.8921C82.7564 23.6267 82.5239 24.0358 82.0877 24.9611C82.0157 25.1139 81.8334 25.1794 81.6805 25.1074C81.5276 25.0353 81.4621 24.853 81.5342 24.7001C81.9856 23.7423 82.2366 23.3008 82.7989 22.5311Z" fill="#0074E6"/><path id="Stroke 13" d="M83.9218 23.114C84.0234 22.979 84.2152 22.9519 84.3503 23.0535C84.4853 23.155 84.5124 23.3469 84.4109 23.4819C84.2406 23.7083 84.0699 23.9815 83.8735 24.3343L83.3156 25.3865C83.2364 25.5357 83.0511 25.5925 82.9018 25.5133C82.7526 25.434 82.6958 25.2488 82.775 25.0995L83.2135 24.2658C83.476 23.7778 83.695 23.4155 83.9218 23.114Z" fill="#0074E6"/><g id="Group 17"><path id="Fill 15" fill-rule="evenodd" clip-rule="evenodd" d="M37.064 3.50109C37.064 3.50109 50.412 -17.8619 66.269 -17.8619C77.199 -17.8619 84.871 19.6731 84.871 19.6731H66.464L63.366 7.89509C63.366 7.89509 48.971 29.5421 36.211 30.3521C31.259 30.6671 23.89 30.3271 21.917 28.0481C17.498 22.9441 18.852 14.4401 21.917 7.89509" fill="#199294"/></g><path id="Stroke 18" d="M84.2523 16.3605V16.8195H65.6533V16.3605H84.2523Z" fill="#00276F"/><path id="Fill 20" fill-rule="evenodd" clip-rule="evenodd" d="M56.332 29.8757V28.5217H73.969C74.824 28.5217 75.617 28.0727 76.056 27.3387L76.207 27.3117V29.4877C76.207 29.5687 76.176 29.6467 76.12 29.7057L76.068 29.7617C75.714 30.1387 75.22 30.3527 74.703 30.3527H56.809C56.545 30.3527 56.332 30.1387 56.332 29.8757" fill="#0074E6"/><path id="Fill 22" fill-rule="evenodd" clip-rule="evenodd" d="M52.4209 5.1037L56.9729 22.1557L57.5509 28.0487H74.5149C75.0789 28.0487 75.5359 27.5917 75.5359 27.0277C75.5359 26.6047 75.2759 26.2267 74.8819 26.0747L65.3479 22.4047L63.2319 3.2867" fill="#FF91EC"/><path id="Fill 24" fill-rule="evenodd" clip-rule="evenodd" d="M65.242 21.4425L75.484 26.0465C75.919 26.2365 76.207 26.7115 76.207 27.2415C76.207 27.9485 75.478 28.5225 74.855 28.5225H56.332L56.951 21.9285C56.951 21.9285 60.489 24.1165 65.242 21.4425" fill="#FF91EC"/><path id="Stroke 26" d="M66.952 21.7224C67.0555 21.5888 67.2477 21.5644 67.3813 21.6679C67.5148 21.7715 67.5392 21.9637 67.4357 22.0973C66.8534 22.8485 66.3611 23.6651 65.9706 24.528C65.9009 24.6819 65.7196 24.7503 65.5656 24.6806C65.4117 24.6109 65.3434 24.4296 65.413 24.2756C65.8233 23.3691 66.3404 22.5114 66.952 21.7224Z" fill="#0074E6"/><path id="Stroke 28" d="M68.2715 22.5311C68.3712 22.3946 68.5626 22.3648 68.6991 22.4645C68.8356 22.5642 68.8654 22.7556 68.7657 22.8921C68.2291 23.6267 67.9965 24.0358 67.5604 24.9611C67.4884 25.1139 67.306 25.1794 67.1531 25.1074C67.0003 25.0353 66.9348 24.853 67.0068 24.7001C67.4583 23.7423 67.7093 23.3008 68.2715 22.5311Z" fill="#0074E6"/><path id="Stroke 30" d="M69.3954 23.114C69.497 22.979 69.6888 22.9519 69.8239 23.0535C69.959 23.155 69.9861 23.3469 69.8845 23.4819C69.7142 23.7083 69.5435 23.9815 69.3472 24.3343L68.7892 25.3865C68.71 25.5357 68.5247 25.5925 68.3755 25.5133C68.2262 25.434 68.1694 25.2488 68.2487 25.0995L68.6871 24.2658C68.9497 23.7778 69.1686 23.4155 69.3954 23.114Z" fill="#0074E6"/><path id="Fill 32" fill-rule="evenodd" clip-rule="evenodd" d="M25.5635 1.5397C30.8735 -3.9223 40.6445 -19.6323 54.8805 -17.8613C64.5385 -16.6603 71.7935 20.8777 71.7935 20.8777H53.3875L49.6805 7.8947C49.6805 7.8947 42.0915 22.6357 32.1835 28.5217C29.5505 30.0867 25.0615 30.3517 22.5255 30.3517C4.83847 30.3517 7.38647 15.1087 9.47947 1.5397H25.5635Z" fill="#22A8A1"/><path id="Stroke 34 (Stroke)" fill-rule="evenodd" clip-rule="evenodd" d="M52.3337 15.569C52.3337 15.5692 52.3337 15.5692 52.0392 15.6521C51.7446 15.735 51.7446 15.7349 51.7445 15.7348L51.6804 15.5075C51.6384 15.359 51.5766 15.141 51.4975 14.863C51.3393 14.3071 51.1119 13.5118 50.8352 12.5539C50.2818 10.6382 49.5311 8.073 48.742 5.47472C47.9528 2.87574 47.126 0.24653 46.4201 -1.79849C46.0669 -2.82157 45.7456 -3.69406 45.4754 -4.34198C45.3401 -4.66633 45.2197 -4.92946 45.1164 -5.12512C45.0062 -5.33374 44.9344 -5.42793 44.9052 -5.45328L45.3067 -5.91517C45.4316 -5.80657 45.5488 -5.61686 45.6575 -5.41091C45.7732 -5.19199 45.9016 -4.90985 46.0402 -4.57754C46.3177 -3.91211 46.6439 -3.02561 46.9986 -1.99818C47.7083 0.0578294 48.5377 2.69573 49.3276 5.29688C50.1178 7.89873 50.8693 10.4667 51.4232 12.3841C51.7002 13.3428 51.9278 14.139 52.0861 14.6955C52.1653 14.9738 52.2272 15.1922 52.2693 15.341L52.3337 15.569Z" fill="#199294"/><path id="Stroke 36" d="M33.7969 -0.817127L35.1436 -2.23726C41.786 -9.1946 45.3541 -12.1667 46.9529 -11.3977C47.9073 -10.9388 49.7681 -6.26108 52.44 1.81359L53.1566 4.00248L53.4009 4.75878C54.3905 7.83203 55.4053 11.0971 56.4018 14.3861L57.1592 16.9017L58.3158 20.8141L57.875 20.9421L57.1842 18.5938C56.9373 17.7611 56.6709 16.869 56.3881 15.9289L55.5348 13.1127C54.8204 10.7724 54.0999 8.45665 53.3892 6.22667L52.4786 3.4017L52.0043 1.95778C49.4449 -5.77666 47.52 -10.6157 46.7539 -10.9841C45.3907 -11.6398 41.4345 -8.22661 34.4756 -0.867429L26.4509 7.67011C22.8656 11.4398 22.3812 11.7651 21.3621 12.2332L21.3147 12.2549C19.9782 12.8649 18.6829 12.8763 17.6673 11.8393C16.33 10.4738 15.7498 7.44508 16.115 2.37884L16.1487 1.93959L16.6062 1.97661C16.1845 7.18684 16.7379 10.2343 17.9953 11.5181C18.8002 12.3401 19.8287 12.3747 20.9384 11.918L21.2575 11.7755C22.2903 11.2885 22.9272 10.7479 27.8271 5.54618L33.7969 -0.817127Z" fill="#00276F"/><path id="Stroke 38" d="M71.238 17.986V18.445H52.627V17.986H71.238Z" fill="#00276F"/><path id="Stroke 40" d="M20.9681 5.55942L21.3911 5.73776C21.001 6.66279 20.2154 7.44254 19.1547 8.0925C18.6187 8.42089 18.046 8.69518 17.4735 8.91836L17.1559 9.03707C17.0593 9.07154 16.9724 9.10093 16.8967 9.12534L16.7041 9.18369L16.5811 8.74149L16.7595 8.68732C16.9015 8.64149 17.0876 8.57613 17.3068 8.4907C17.8556 8.27679 18.4042 8.014 18.9149 7.70112C19.8189 7.14718 20.4994 6.50038 20.8737 5.76282L20.9681 5.55942Z" fill="#00276F"/><path id="Stroke 42" d="M8.66211 15.4472L12.4265 14.3268L12.5605 15.0076L12.6757 15.5525C12.717 15.7432 12.7611 15.9425 12.808 16.1492C13.0759 17.3302 13.3782 18.5109 13.7082 19.612C14.1176 20.9778 14.5401 22.1203 14.9677 22.9657L15.0844 23.1889L15.104 23.3586C15.0732 23.4714 15.0376 23.5858 14.9972 23.7019C14.7666 24.3658 14.3892 25.0672 13.9059 25.7828C13.617 26.2106 13.3078 26.6173 12.9985 26.9902L12.7962 27.2293L12.5831 27.468L12.248 27.1543L12.4503 26.9276C12.5079 26.8609 12.5733 26.7838 12.6452 26.6972C12.9454 26.3352 13.2457 25.9402 13.5255 25.5259C13.9884 24.8406 14.3478 24.1725 14.5637 23.5512L14.636 23.323L14.5597 23.1762C14.1572 22.3809 13.764 21.3445 13.3826 20.1175L13.2685 19.7437C12.9352 18.6316 12.6304 17.4411 12.3604 16.2508L12.1668 15.3679L12.072 14.911L8.79305 15.8872L8.66211 15.4472Z" fill="#00276F"/><path id="Stroke 44" fill-rule="evenodd" clip-rule="evenodd" d="M11.0614 16.0359L11.0029 15.7055L11.4555 15.6289L11.563 16.2254L11.6787 16.8271L11.2284 16.9159C11.2072 16.8088 11.1869 16.7046 11.1675 16.6034L11.0614 16.0359ZM11.6998 19.0993C11.6063 18.7032 11.5164 18.3019 11.4304 17.8991L11.8792 17.8032C11.9646 18.2029 12.0538 18.6011 12.1465 18.9938L11.6998 19.0993ZM11.9405 20.0748C12.0476 20.4894 12.1567 20.8866 12.2678 21.2633L12.708 21.1336C12.5986 20.762 12.4908 20.3698 12.3849 19.96L11.9405 20.0748ZM13.0133 23.3906C12.8648 23.0477 12.7176 22.6588 12.5716 22.2277L13.0064 22.0806C13.1485 22.5004 13.2914 22.8777 13.4345 23.2081L13.0133 23.3906ZM12.9725 24.168C12.8391 24.539 12.6697 24.8979 12.472 25.2417L12.8699 25.4705C13.0806 25.1042 13.2614 24.721 13.4044 24.3234L12.9725 24.168ZM11.5674 26.4865C11.639 26.4135 11.7656 26.2696 11.9243 26.063L12.2883 26.3426C12.1859 26.4758 12.0951 26.5859 12.0206 26.6711L11.8951 26.8079L11.5674 26.4865Z" fill="#00276F"/></g></g></g><g id="Facial Expression" transform="translate(55 148) scale(1 1)"><g id="Facial Expression/Happy"><g id="Expression"><g id="Group 3"><mask id="mask0b8dbcfcf-e14c-4d47-b5be-6cfeb866e1d8" style="mask-type:alpha" maskUnits="userSpaceOnUse" x="2" y="9" width="2" height="3" fill="#ffffff"><path id="Clip 2" fill-rule="evenodd" clip-rule="evenodd" d="M2 9.91651H3.09818V11.246H2V9.91651Z" fill="#ffffff"/></mask><g mask="url(#mask0b8dbcfcf-e14c-4d47-b5be-6cfeb866e1d8)"><path id="Fill 1" fill-rule="evenodd" clip-rule="evenodd" d="M2.23727 11.246C2.31027 11.246 2.38327 11.212 2.42927 11.149L3.05227 10.294C3.13027 10.188 3.10627 10.039 3.00127 9.962C2.89527 9.885 2.74727 9.908 2.66927 10.014L2.04627 10.869C1.96827 10.975 1.99127 11.123 2.09727 11.201C2.13927 11.231 2.18827 11.246 2.23727 11.246" fill="#6454AB"/></g></g><path id="Fill 4" fill-rule="evenodd" clip-rule="evenodd" d="M4.04575 11.9579C4.17075 11.9579 4.27475 11.8599 4.28275 11.7339L4.34175 10.6769C4.34875 10.5459 4.24775 10.4339 4.11675 10.4269C3.99675 10.4229 3.87475 10.5199 3.86675 10.6509L3.80875 11.7079C3.80075 11.8379 3.90075 11.9509 4.03175 11.9579H4.04575Z" fill="#6454AB"/><path id="Fill 6" fill-rule="evenodd" clip-rule="evenodd" d="M2.97829 11.6908C3.06429 11.6908 3.14829 11.6438 3.19029 11.5618L3.74129 10.4878C3.80029 10.3718 3.75429 10.2288 3.63729 10.1688C3.52129 10.1098 3.37729 10.1538 3.31829 10.2718L2.76729 11.3448C2.70729 11.4618 2.75329 11.6048 2.87029 11.6648C2.90529 11.6818 2.94229 11.6908 2.97829 11.6908" fill="#6454AB"/><path id="Fill 8" fill-rule="evenodd" clip-rule="evenodd" d="M16.0115 13.0634C16.0325 13.0634 16.0515 13.0604 16.0725 13.0554C16.1985 13.0214 16.2755 12.8924 16.2405 12.7654L15.9725 11.7424C15.9395 11.6164 15.8095 11.5414 15.6825 11.5734C15.5555 11.6064 15.4795 11.7364 15.5135 11.8634L15.7825 12.8864C15.8105 12.9924 15.9065 13.0634 16.0115 13.0634" fill="#6454AB"/><path id="Fill 10" fill-rule="evenodd" clip-rule="evenodd" d="M14.0684 13.0668C14.1684 13.0668 14.2614 13.0038 14.2944 12.9028L14.6254 11.8988C14.6664 11.7738 14.5974 11.6398 14.4734 11.5988C14.3494 11.5568 14.2144 11.6258 14.1734 11.7498L13.8424 12.7548C13.8014 12.8798 13.8704 13.0138 13.9944 13.0548C14.0184 13.0628 14.0444 13.0668 14.0684 13.0668" fill="#6454AB"/><path id="Fill 12" fill-rule="evenodd" clip-rule="evenodd" d="M15.159 13.2064C15.167 13.2064 15.175 13.2064 15.183 13.2054C15.313 13.1924 15.409 13.0754 15.395 12.9454L15.274 11.7454C15.262 11.6134 15.146 11.5134 15.014 11.5324C14.884 11.5454 14.789 11.6624 14.802 11.7924L14.923 12.9934C14.935 13.1154 15.039 13.2064 15.159 13.2064" fill="#6454AB"/><path id="Fill 14" fill-rule="evenodd" clip-rule="evenodd" d="M11.1913 10.3207C11.2823 10.4507 11.3773 10.5777 11.4673 10.7077C11.5783 10.8677 11.6683 11.0347 11.7583 11.2067C11.7673 11.2237 11.7643 11.2167 11.7503 11.1827C11.7543 11.1937 11.7583 11.2067 11.7623 11.2167C11.7683 11.2337 11.7753 11.2507 11.7803 11.2667C11.7863 11.2877 11.7913 11.3077 11.7963 11.3297C11.8113 11.3857 11.7823 11.3267 11.7953 11.3137C11.7953 11.3137 11.7953 11.3677 11.7963 11.3687C11.7883 11.3587 11.8153 11.2897 11.7973 11.3417C11.7853 11.3817 11.8393 11.2757 11.8003 11.3297C11.7943 11.3407 11.7863 11.3497 11.7783 11.3637C11.7953 11.3407 11.7943 11.3427 11.7723 11.3687C11.7543 11.3887 11.7373 11.4077 11.7183 11.4247C11.7113 11.4317 11.6333 11.4957 11.6733 11.4667C11.6233 11.5017 11.5713 11.5337 11.5153 11.5637C11.4913 11.5767 11.4673 11.5887 11.4443 11.6017C11.4343 11.6057 11.3403 11.6457 11.3853 11.6267C11.3283 11.6507 11.2683 11.6737 11.2093 11.6927C11.0733 11.7427 10.9673 11.8837 11.0163 12.0337C11.0583 12.1677 11.2103 12.2787 11.3553 12.2267C11.6393 12.1257 11.9363 12.0037 12.1453 11.7767C12.2523 11.6627 12.3353 11.5387 12.3473 11.3797C12.3543 11.2857 12.3353 11.1847 12.3043 11.0937C12.1713 10.7027 11.9033 10.3767 11.6683 10.0417C11.5813 9.9197 11.4253 9.8637 11.2903 9.9437C11.1703 10.0117 11.1053 10.1987 11.1913 10.3207" fill="#6454AB"/><g id="Group 18"><mask id="mask1b8dbcfcf-e14c-4d47-b5be-6cfeb866e1d8" style="mask-type:alpha" maskUnits="userSpaceOnUse" x="5" y="2" width="4" height="3" fill="#ffffff"><path id="Clip 17" fill-rule="evenodd" clip-rule="evenodd" d="M5.4165 2.9997H8.99708V4.84752H5.4165V2.9997Z" fill="#ffffff"/></mask><g mask="url(#mask1b8dbcfcf-e14c-4d47-b5be-6cfeb866e1d8)"><path id="Fill 16" fill-rule="evenodd" clip-rule="evenodd" d="M8.34058 4.7299C9.30458 4.5149 9.16858 3.0749 8.18358 3.0119C7.32358 2.9589 6.24558 3.0549 5.66258 3.7389C4.59658 4.9889 7.27658 4.9399 8.31058 4.7379C8.31958 4.7339 8.32958 4.7329 8.34058 4.7299" fill="#2D2163"/></g></g><path id="Fill 19" fill-rule="evenodd" clip-rule="evenodd" d="M14.828 5.9955C14.151 5.5195 14.719 4.4505 15.5 4.7175C16.182 4.9525 16.986 5.3705 17.218 6.0875C17.641 7.3965 15.584 6.4995 14.849 6.0105C14.843 6.0055 14.835 5.9995 14.828 5.9955" fill="#2D2163"/><g id="Group 23"><mask id="mask2b8dbcfcf-e14c-4d47-b5be-6cfeb866e1d8" style="mask-type:alpha" maskUnits="userSpaceOnUse" x="5" y="12" width="6" height="3" fill="#ffffff"><path id="Clip 22" fill-rule="evenodd" clip-rule="evenodd" d="M5.89697 12.0558H10.7886V14.9897H5.89697V12.0558Z" fill="#ffffff"/></mask><g mask="url(#mask2b8dbcfcf-e14c-4d47-b5be-6cfeb866e1d8)"><path id="Fill 21" fill-rule="evenodd" clip-rule="evenodd" d="M6.15912 12.0634C6.25012 12.0504 6.34412 12.0544 6.43312 12.0734C6.57412 12.1044 6.70412 12.1714 6.81212 12.2654C6.85212 12.3004 6.89512 12.3384 6.92512 12.3834C6.94312 12.4114 6.95112 12.4444 6.97112 12.4714C7.05012 12.5714 7.17812 12.6524 7.27512 12.7324C7.38212 12.8184 7.48912 12.9014 7.59812 12.9824C7.81412 13.1444 8.03812 13.2954 8.26612 13.4384C8.75912 13.7444 9.30212 14.0114 9.88212 14.0204C10.0511 14.0224 10.2211 14.0034 10.3891 14.0304C10.4511 14.0404 10.5151 14.0524 10.5641 14.0934C10.6321 14.1484 10.7111 14.2054 10.7581 14.2804C10.7651 14.2934 10.7661 14.3074 10.7711 14.3214C10.7841 14.3604 10.7921 14.3964 10.7871 14.4384C10.7811 14.4984 10.7631 14.5324 10.7271 14.5754C10.6971 14.6104 10.6711 14.6464 10.6371 14.6784C10.5701 14.7414 10.4941 14.7914 10.4121 14.8314C10.3591 14.8574 10.3041 14.8794 10.2471 14.8974C10.0521 14.9594 9.84412 14.9814 9.63912 14.9894C9.58212 14.9914 9.52412 14.9884 9.46812 14.9814C9.44412 14.9794 9.41912 14.9784 9.39512 14.9694C9.38212 14.9644 9.37012 14.9564 9.35512 14.9534C9.30912 14.9414 9.25712 14.9464 9.20912 14.9414C9.10912 14.9314 9.01112 14.9134 8.91412 14.8894C8.71712 14.8404 8.52712 14.7684 8.34212 14.6874C8.20612 14.6274 8.07212 14.5634 7.93812 14.4994C7.64912 14.3584 7.35712 14.2164 7.11812 14.0024C7.06112 13.9524 7.00912 13.8984 6.95612 13.8454L6.72412 13.6094C6.68612 13.5704 6.64712 13.5304 6.60912 13.4914C6.57312 13.4554 6.52712 13.4194 6.49912 13.3774C6.47412 13.3404 6.43612 13.3114 6.40512 13.2784C6.37112 13.2444 6.33812 13.2084 6.30512 13.1704C6.24312 13.0994 6.18512 13.0234 6.13312 12.9434C6.04012 12.8044 5.96212 12.6514 5.91812 12.4894C5.85512 12.2524 5.93212 12.0944 6.15912 12.0634" fill="#2D2163"/></g></g><path id="Fill 24" fill-rule="evenodd" clip-rule="evenodd" d="M8.81623 8.5683C8.81623 8.5683 9.07223 9.6983 8.23523 9.4223C7.39923 9.1453 4.49023 8.2633 4.49023 8.2633C4.49023 8.2633 5.97023 5.8853 8.81623 8.5683" fill="white"/><path id="Fill 26" fill-rule="evenodd" clip-rule="evenodd" d="M9.12281 8.2518C9.10981 8.2218 9.10181 8.1898 9.08781 8.1588C8.31181 6.4738 6.00481 6.4108 4.59081 7.2428C4.49081 7.3018 4.38481 7.3498 4.28181 7.4018C4.25981 7.4138 4.23381 7.4258 4.20881 7.4238C4.18981 7.4218 4.17281 7.4128 4.15681 7.4038C4.06881 7.3538 3.99081 7.2858 3.89781 7.2468C3.80581 7.2078 3.68681 7.2028 3.61281 7.2708C3.53381 7.3428 3.53381 7.4738 3.58381 7.5678C3.62681 7.6498 3.69481 7.6998 3.76181 7.7608C3.78581 7.7838 3.80081 7.8098 3.82281 7.8348C3.95881 7.9898 4.16681 8.1188 4.34081 8.2278C4.38581 8.2548 4.43181 8.2818 4.48281 8.2888C4.56981 8.3028 4.65281 8.2568 4.72381 8.2048C5.10981 7.9188 5.33581 7.5808 5.81881 7.4118C6.07181 7.3238 6.42881 7.2638 6.67781 7.3948C6.59081 7.8368 6.18081 8.3348 5.95981 8.7348L8.49181 9.5218C8.49181 9.5218 9.47381 9.0458 9.12281 8.2518" fill="#2A0752"/><path id="Fill 28" fill-rule="evenodd" clip-rule="evenodd" d="M16.5389 10.2968L12.4719 9.8968C12.4719 9.8968 14.0379 7.8098 15.6129 8.4348C17.1879 9.0608 16.5389 10.2968 16.5389 10.2968" fill="white"/><path id="Fill 30" fill-rule="evenodd" clip-rule="evenodd" d="M16.16 8.2606C15.606 7.9756 14.934 7.8736 14.316 7.9206C13.443 7.9876 12.514 8.3886 12.132 9.2256C12.057 9.3896 12.04 9.5896 12.131 9.7426C12.221 9.8976 12.439 9.9796 12.592 9.8856C12.658 9.8446 12.704 9.7766 12.748 9.7126C13.193 9.0546 14.165 8.2556 15.021 8.6256C14.892 9.1136 14.476 9.6176 14.24 10.0706C14.24 10.0706 16.532 10.2976 16.539 10.2976C16.556 10.2996 16.608 10.2456 16.621 10.2346C16.694 10.1736 16.761 10.1036 16.816 10.0266C16.886 9.9306 16.915 9.8326 16.959 9.7256C16.966 9.7076 16.972 9.6956 16.984 9.6806C17.06 9.5936 17.162 9.5256 17.239 9.4366C17.306 9.3616 17.368 9.2786 17.392 9.1806C17.417 9.0826 17.395 8.9686 17.318 8.9046C17.196 8.8026 17.013 8.8696 16.87 8.9406C16.889 8.9316 16.74 8.7736 16.731 8.7646C16.672 8.7066 16.616 8.6456 16.559 8.5846C16.441 8.4586 16.315 8.3406 16.16 8.2606" fill="#2A0752"/></g></g></g></g></svg>