<svg viewBox="32.45000000000002 20.650000000000006 76.7 215.35" fill="none" xmlns="http://www.w3.org/2000/svg" xmlns:xlink="http://www.w3.org/1999/xlink" overflow="visible" width="76.7px" height="215.35px"><g id="Master/Character/Standing"><g id="Lower Body/Standing" transform="translate(21 96) scale(1 1)"><g id="Lower Body/Standing/Walking"><g id="Group 18"><path id="Fill 1" fill-rule="evenodd" clip-rule="evenodd" d="M25.5879 103.396L37 93.3112L31.6054 87L20 98.1747L25.4427 104L25.5879 103.396Z" fill="#ccccff"/><path id="Fill 2" fill-rule="evenodd" clip-rule="evenodd" d="M23.1765 95C23.1765 95 24.6642 101.987 29.6713 102.067L32 120L17 97.0842L23.1765 95Z" fill="#2C2263"/><path id="Fill 4" fill-rule="evenodd" clip-rule="evenodd" d="M30.1611 122L15 99.3187L16.8378 98L32 120.681L30.1611 122Z" fill="#FED21C"/><path id="Fill 6" fill-rule="evenodd" clip-rule="evenodd" d="M42.5494 0C42.5494 0 51.2379 57.3362 50.3229 59.4885L26 89.3615L34.3776 101L62.7912 73.1432C74.4051 63.2874 62.9711 0 62.9711 0H42.5494Z" fill="#432C82"/><path id="Fill 8" fill-rule="evenodd" clip-rule="evenodd" d="M52.6407 131.165L51.5677 116L44 117.072L45.7612 133L53 131.619L52.6407 131.165Z" fill="#ccccff"/><path id="Fill 10" fill-rule="evenodd" clip-rule="evenodd" d="M44.9142 129.516C44.9142 129.516 51.0919 132.147 53.9934 128L69 136L43 135.842L44.9142 129.516Z" fill="#2C2263"/><path id="Fill 12" fill-rule="evenodd" clip-rule="evenodd" d="M43 138.804L43.0151 136L69 136.197L68.9849 139" fill="#FED21C"/><path id="Fill 15" fill-rule="evenodd" clip-rule="evenodd" d="M42.5494 0C42.5494 0 32.905 19.9266 34.103 37.6003L43.1459 124L55 122.797L54.8639 0H42.5494Z" fill="#503890"/></g></g></g><g id="Head" transform="translate(33 -1) scale(1 1)"><g id="Head/Messy"><g id="Group 30"><path id="Fill 1" fill-rule="evenodd" clip-rule="evenodd" d="M35.9321 51.7277V51.7297C35.9331 51.7297 35.9341 51.7307 35.9351 51.7307L35.9321 51.7277Z" fill="#432C82"/><g id="Group 5"><mask id="mask0_723_166168bc3a4ae-d737-4300-b711-ed10d5355bb8" style="mask-type:luminance" maskUnits="userSpaceOnUse" x="21" y="28" width="35" height="30" fill="#ffffff"><path id="Clip 4" fill-rule="evenodd" clip-rule="evenodd" d="M21 28.9865H55.8924V57.2977H21V28.9865Z" fill="#ffffff"/></mask><g mask="url(#mask0_723_166168bc3a4ae-d737-4300-b711-ed10d5355bb8)"><path id="Fill 3" fill-rule="evenodd" clip-rule="evenodd" d="M23.6524 52.1799C23.7124 52.2839 23.7674 52.3899 23.8124 52.4989C23.9384 52.6599 24.1934 52.7369 24.2474 52.9459C24.4044 52.9389 24.4994 53.0289 24.5964 53.1089C25.5894 53.9259 26.8744 54.2669 28.1734 54.5429C29.1844 54.7579 29.2064 54.7069 29.2934 55.5809C29.3324 55.9759 29.5654 56.1639 30.0484 56.1879C31.1864 56.2429 32.1224 55.8819 32.9444 55.2669C33.0544 55.1849 33.1874 55.0129 33.3194 55.1269C33.5554 55.3329 33.9004 55.3799 34.1244 55.6299C36.3914 58.1529 41.7794 57.5179 44.3274 55.6809C44.6634 55.4389 45.0284 55.1559 45.4734 55.1729C45.7904 55.1859 46.0634 55.3529 46.3484 55.4699C46.9474 55.7159 47.6694 55.7479 48.2974 55.5569C48.5884 55.4669 48.8574 55.3329 49.1484 55.2419C49.5504 55.1149 49.9664 55.2069 50.3764 55.2319C50.8024 55.2579 51.0294 55.1279 51.4284 55.0159C51.6224 54.9609 51.8574 54.9759 51.9874 55.1289C52.0504 55.2029 52.0834 55.3029 52.1594 55.3629C52.2354 55.4209 52.3384 55.4289 52.4344 55.4249C52.9844 55.4029 53.0494 55.0709 53.4754 54.8779C53.4844 55.0939 53.4664 55.2779 53.2744 55.4239C53.4424 55.8829 53.6644 55.9959 54.1634 55.8379C54.6004 55.6999 54.9574 55.4859 55.2324 55.1419C55.7424 54.5069 55.8864 53.7949 55.8924 53.0749C55.9024 51.8679 55.4614 50.7899 55.1664 49.6469C54.8574 48.4489 54.5324 47.2529 54.3004 46.0359C54.0604 44.7769 54.2384 43.5479 54.2104 42.2769C54.1934 41.4759 54.1004 40.6759 53.9354 39.8909C53.7344 38.9409 53.4264 38.0129 53.0144 37.1319C51.8584 34.6659 49.8884 32.5889 47.4864 31.3049C46.4874 30.7709 45.4224 30.3709 44.3484 30.0089C43.3764 29.6819 42.3924 29.3809 41.3824 29.1969C36.3844 28.2829 31.7784 30.4339 28.3424 33.9509C27.5974 34.7139 27.0814 35.6309 26.4764 36.4859C26.0084 37.1459 25.4924 37.7899 25.1194 38.4869C24.4524 39.7299 23.7934 40.9779 23.2254 42.2569C22.6084 43.6469 21.9774 45.0299 21.5714 46.4739C21.3964 47.0969 21.3304 47.7369 21.1984 48.3649C20.9674 49.4609 20.8844 50.5549 21.2474 51.6209C21.3984 52.0649 21.6144 52.4779 21.9834 52.7769C22.1364 52.9019 22.7384 53.2869 22.9354 53.1419C23.0924 53.0259 22.9454 52.6509 22.9294 52.4909C22.8854 52.0449 22.8934 51.5999 23.0824 51.1849C23.4444 52.0879 24.0934 53.0929 25.0554 53.4119C25.0334 53.3889 25.0114 53.3659 24.9894 53.3429" fill="#432C82"/></g></g><path id="Fill 6" fill-rule="evenodd" clip-rule="evenodd" d="M48.6694 47.0315H48.6684V47.0325L48.6694 47.0315" fill="#432C82"/><path id="Fill 3" fill-rule="evenodd" clip-rule="evenodd" d="M43.8892 53.8614L43.6872 61.5304C43.6212 64.2234 41.9272 65.6234 39.2772 65.5384C37.0142 65.4654 34.9272 64.2284 34.7192 61.9744L35.6172 49.9214L43.8892 53.8614Z" fill="#ccccff"/><path id="Fill 6_2" fill-rule="evenodd" clip-rule="evenodd" d="M43.7642 57.6016C38.3972 57.607 34.9902 50.6016 34.9902 50.6016L43.9252 52.6084L43.7642 57.6016Z" fill="#00023C" fill-opacity="0.18"/><path id="Fill 19" fill-rule="evenodd" clip-rule="evenodd" d="M40.2323 53.9339V53.9339C44.6523 54.6529 48.8593 51.7529 49.5683 48.1629L51.1893 39.6829C52.0763 35.1839 49.8033 30.8819 45.3363 29.8459C40.7623 28.7869 34.8253 31.3589 33.7653 35.9319L32.5363 42.7669C31.5853 48.0529 35.0003 52.7209 40.2323 53.9339" fill="#ccccff"/><path id="Fill 23" fill-rule="evenodd" clip-rule="evenodd" d="M56.5456 40.0695C55.9866 40.1355 55.4886 39.9855 55.0026 39.7545C54.8656 39.6885 54.6796 39.6115 54.6896 39.4455C54.6996 39.2595 54.9046 39.3315 55.0266 39.2985C55.9946 39.0455 56.6166 37.9935 56.2666 37.1505C55.7766 35.9735 55.0916 34.9615 53.8806 34.3955C53.5106 34.2225 53.3036 33.9485 53.4806 33.4835C53.8436 32.5295 53.7816 31.5565 53.5036 30.5955C53.2896 29.8585 52.8556 29.2815 52.0556 29.1535C51.3166 29.0345 50.6596 29.2805 50.1886 29.8805C49.9706 30.1575 49.7256 30.4175 49.6306 30.7955C49.5546 31.0975 49.3496 31.2585 49.0686 30.8865C47.1706 28.3685 43.2416 27.5925 40.3066 28.5075C40.5686 28.0825 40.7766 27.6755 40.8466 27.2075C41.0106 26.1195 40.9366 25.1025 39.9786 24.3695C39.3326 23.8745 38.5936 23.7925 37.7946 23.8825C36.8266 23.9905 36.0306 24.3795 35.3666 25.0835C34.8306 25.6525 34.4416 26.3185 34.0776 26.9975C33.8936 27.3405 32.5226 26.4915 32.1306 26.3695C31.2306 26.0875 30.2706 26.1715 29.3796 26.4535C27.9906 26.8925 27.5486 28.7855 28.2716 29.9905C28.8656 30.9805 29.7526 31.5825 30.7736 32.0265C31.3856 32.2935 31.4146 32.3025 30.9116 32.7725C28.8906 34.6585 27.7696 37.5905 29.1786 40.1805C29.4516 40.6835 29.8186 41.1535 30.3156 41.4375C30.9006 41.7725 31.6046 41.8185 32.2366 42.0545C33.0666 42.3655 33.3856 42.9375 33.9626 43.5265C34.7426 44.3235 35.4636 42.2345 35.8596 41.6155C36.7126 40.2835 37.5666 38.9505 38.4196 37.6185C38.4696 37.5395 38.5216 37.4585 38.5946 37.3985C38.8526 37.1845 39.2616 37.3225 39.4876 37.5685C39.7146 37.8155 39.8286 38.1435 40.0196 38.4195C40.4666 39.0685 41.2676 39.3545 42.0166 39.6025C42.3226 39.7045 42.6396 39.8065 42.9606 39.7755C44.0456 39.6685 43.4066 38.3075 43.7986 37.6035C43.8716 37.4715 43.8826 37.2885 44.0726 37.2665C44.3016 37.2405 44.3486 37.4385 44.4176 37.5905C44.7486 38.3195 44.9776 39.0905 45.3156 39.8205C45.6266 40.4905 46.0246 41.3815 46.6956 41.7645C47.5406 42.2495 48.3146 41.5875 49.1186 42.4395C49.7036 43.0595 49.7226 44.0105 50.3566 44.6175C50.9916 45.2245 51.8606 45.1885 52.6266 44.7505C53.2006 44.4225 53.6936 43.8185 53.8696 43.1745C53.9416 42.9075 54.1186 41.2665 53.9386 41.1485C54.0996 41.2545 54.1976 41.3125 54.2896 41.3805C55.1136 41.9895 56.5126 41.6415 56.9576 40.7155C57.1886 40.2365 57.0586 40.0075 56.5456 40.0695" fill="#432C82"/><path id="Fill 15" fill-rule="evenodd" clip-rule="evenodd" d="M27.92 43.3332C27.485 45.2092 28.653 47.0812 30.528 47.5162C32.403 47.9502 34.275 46.7822 34.71 44.9072C35.145 43.0322 33.977 41.1602 32.102 40.7262C30.227 40.2912 28.354 41.4582 27.92 43.3332" fill="#ccccff"/><path id="Fill 17" fill-rule="evenodd" clip-rule="evenodd" d="M32.268 45.4045C32.268 45.4045 32.838 42.9435 30.395 42.7855Z" fill="#00023C" fill-opacity="0.18"/><path id="Fill 25" fill-rule="evenodd" clip-rule="evenodd" d="M48.6694 51.8527H48.6684V51.8537L48.6694 51.8527" fill="#432C82"/></g></g></g><g id="Expression" transform="translate(64 35) scale(1 1)"><g id="Expression/Excited"><g id="Group 38"><path id="Fill 1" fill-rule="evenodd" clip-rule="evenodd" d="M12.4074 9.05433C12.4884 9.20161 12.574 9.34433 12.6541 9.49051C12.7508 9.67061 12.8269 9.85557 12.9046 10.0447C12.9115 10.0646 12.9094 10.0563 12.8972 10.0188C12.9009 10.0313 12.9047 10.0437 12.9074 10.0561C12.9116 10.0736 12.9157 10.0921 12.9198 10.1097C12.9235 10.1322 12.9262 10.1546 12.9299 10.1771C12.9395 10.2384 12.9152 10.1725 12.9305 10.1611C12.9304 10.1621 12.9247 10.2168 12.9256 10.2179C12.9177 10.207 12.9541 10.1374 12.9304 10.1912C12.9122 10.2305 12.9815 10.1262 12.9338 10.1775C12.9256 10.1887 12.9165 10.1988 12.9073 10.2099C12.9275 10.1899 12.9253 10.1917 12.9007 10.2153C12.8797 10.2332 12.8596 10.2522 12.8378 10.268C12.8291 10.2751 12.7416 10.3323 12.7866 10.3058C12.7298 10.3391 12.6706 10.367 12.6097 10.3918C12.5834 10.4021 12.5572 10.4124 12.53 10.4226C12.5206 10.4257 12.4176 10.4591 12.4674 10.4442C12.4031 10.4626 12.3391 10.479 12.2751 10.4944C12.1276 10.5302 12.0016 10.6667 12.0348 10.8291C12.0659 10.9732 12.2117 11.1071 12.3696 11.0684C12.6792 10.9934 13.0018 10.8986 13.2455 10.6849C13.3704 10.5773 13.4716 10.4563 13.501 10.2914C13.5194 10.1928 13.5096 10.0852 13.4877 9.98737C13.3917 9.562 13.1461 9.1913 12.9372 8.81541C12.8612 8.67771 12.7043 8.60189 12.5523 8.67038C12.4182 8.7307 12.3303 8.91653 12.4074 9.05433" fill="#00023C" fill-opacity="0.18"/><path id="Fill 3" fill-rule="evenodd" clip-rule="evenodd" d="M10.3098 3.94982C11.2403 3.62028 10.9323 2.20735 9.94705 2.26367C9.08806 2.31415 8.02879 2.53866 7.53286 3.28692C6.62562 4.6576 9.2789 4.28691 10.2806 3.95982C10.2899 3.95678 10.3004 3.95286 10.3098 3.94982" fill="#2C2263"/><path id="Fill 5" fill-rule="evenodd" clip-rule="evenodd" d="M15.1297 4.6391C14.4015 4.24884 14.8361 3.11808 15.6446 3.28953C16.3487 3.43995 17.1969 3.76036 17.5132 4.44317C18.0908 5.69239 15.9403 5.04907 15.1525 4.65155C15.1449 4.64773 15.1372 4.64391 15.1297 4.6391" fill="#2C2263"/><path id="Fill 7" fill-rule="evenodd" clip-rule="evenodd" d="M8.49265 5.58918C8.54311 5.58745 8.59456 5.58581 8.64491 5.58507C9.48893 5.58128 10.3294 6.02255 10.9165 6.60712C11.0742 6.76245 11.1383 6.96527 11.0807 7.19752C11.0058 7.49934 10.8253 7.57992 10.6037 7.35452C10.0071 6.74482 9.26307 6.56305 8.44909 6.51068C8.04066 6.48384 7.68223 6.58392 7.34565 6.79188C7.08972 6.94999 6.84908 7.13485 6.59493 7.29516C6.41416 7.40788 6.20244 7.46104 6.03712 7.29284C5.85714 7.11103 5.91897 6.90537 6.05796 6.71184C6.61231 5.94357 7.57274 5.62623 8.49265 5.58918" fill="#2C2263"/><path id="Fill 9" fill-rule="evenodd" clip-rule="evenodd" d="M17.1029 8.12027C16.4945 7.51838 15.6861 6.8291 14.7761 7.15476C14.3028 7.32422 13.8916 7.70633 13.4106 7.83375C13.2245 7.88257 13.0145 7.89972 12.8909 7.72685C12.7621 7.54639 12.8744 7.39631 13.0004 7.23057C13.5442 6.5145 14.3747 6.25689 15.2372 6.2309C16.1358 6.20469 16.941 6.7237 17.522 7.39511C17.7479 7.87636 17.6556 8.03759 17.1029 8.12027" fill="#2C2263"/><path id="Fill 11" fill-rule="evenodd" clip-rule="evenodd" d="M13.2824 13.8136C13.5061 13.7989 13.981 13.4044 13.9272 13.2559C13.8356 13.008 13.5936 12.9665 13.3747 12.9736C12.9507 12.9894 13.2019 13.3738 13.0763 13.5255C13.0934 13.6881 13.0931 13.8249 13.2824 13.8136M12.2519 12.932C11.6927 12.9899 11.9107 13.4321 11.8813 13.7116C11.8373 14.1303 12.2094 13.9482 12.4018 13.9734C12.8472 14.0313 12.7117 13.6943 12.7133 13.3918C12.7481 13.1179 12.6725 12.8908 12.2519 12.932M10.6623 12.2703C10.6327 12.2752 10.5995 12.2848 10.5765 12.3025C10.3578 12.4796 10.4253 13.3484 10.6681 13.4875C10.7099 13.511 10.7555 13.5269 10.7988 13.5455C10.9935 13.6354 11.1931 13.8786 11.3946 13.7318C11.5886 13.5883 11.4795 13.2873 11.5194 13.0803C11.5065 12.8678 10.8318 12.2458 10.6623 12.2703M10.0902 12.4233C10.1697 11.8585 9.59544 11.3427 9.02661 11.493C8.80631 11.5513 8.74876 11.7162 8.83956 11.9429C9.0134 12.3745 9.50398 12.8443 10.0343 13.0318C10.0552 12.8037 10.0643 12.6126 10.0902 12.4233M8.42403 12.395C8.16771 12.0593 8.04789 11.6687 8.35131 11.2883C8.63621 10.9311 9.03093 10.9736 9.41131 11.076C9.87985 11.2006 10.2915 11.446 10.6734 11.7435C11.2878 12.2224 11.9686 12.489 12.7674 12.4181C13.0669 12.3913 13.3743 12.4125 13.676 12.4412C14.0603 12.4776 14.3434 12.6732 14.4358 13.0661C14.5328 13.4734 14.3028 13.7579 13.9942 13.9477C13.5547 14.2173 13.0732 14.3969 12.5347 14.4218C10.8881 14.3121 9.45942 13.7466 8.42403 12.395" fill="#2C2263"/><path id="Fill 13" fill-rule="evenodd" clip-rule="evenodd" d="M10.0345 13.0314C10.0555 12.8033 10.0645 12.6122 10.0903 12.4239C10.1699 11.8581 9.5957 11.3422 9.02687 11.4926C8.80657 11.5509 8.74902 11.7158 8.83981 11.9425C9.01366 12.3741 9.50423 12.8439 10.0345 13.0314" fill="#FDFDFD"/><path id="Fill 15" fill-rule="evenodd" clip-rule="evenodd" d="M11.5194 13.0804C11.5066 12.8679 10.8319 12.2459 10.6624 12.2704C10.6327 12.2753 10.5995 12.2849 10.5766 12.3026C10.3579 12.4797 10.4254 13.3485 10.6682 13.4876C10.71 13.5111 10.7557 13.526 10.7988 13.5456C10.9936 13.6345 11.1932 13.8787 11.3946 13.7319C11.5897 13.5885 11.4796 13.2874 11.5194 13.0804" fill="#FDFDFD"/><path id="Fill 17" fill-rule="evenodd" clip-rule="evenodd" d="M12.7135 13.3915C12.7482 13.1186 12.6726 12.8905 12.2519 12.9328C11.6929 12.9896 11.9108 13.4318 11.8815 13.7113C11.8375 14.13 12.2095 13.9479 12.402 13.9731C12.8473 14.031 12.7117 13.695 12.7135 13.3915" fill="#FDFDFD"/><path id="Fill 19" fill-rule="evenodd" clip-rule="evenodd" d="M13.0758 13.5258C13.093 13.6875 13.0926 13.8252 13.2818 13.814C13.5066 13.7994 13.9805 13.4037 13.9267 13.2563C13.8352 13.0074 13.5941 12.9669 13.3741 12.974C12.9513 12.9889 13.2014 13.3741 13.0758 13.5258" fill="#FDFDFD"/><path id="Fill 21" fill-rule="evenodd" clip-rule="evenodd" d="M8.10474 10.5946C7.80811 10.9295 7.37391 11.1382 6.92734 11.1969C6.41256 11.2634 5.8843 11.1425 5.41627 10.9174C5.11115 10.7687 4.81931 10.5701 4.62439 10.2912C4.2877 9.81134 4.34683 9.00008 4.53261 8.46658C4.64358 8.14743 4.86546 7.85401 5.1762 7.71976C5.63155 7.52026 6.10085 7.55149 6.56306 7.68855C6.97171 7.80893 7.38409 7.94176 7.73472 8.18374C8.43299 8.66738 8.7236 9.70041 8.23154 10.431C8.19323 10.4893 8.15037 10.5431 8.10474 10.5946" fill="#FF37B8" fill-opacity="0.5"/><path id="Fill 23" fill-rule="evenodd" clip-rule="evenodd" d="M5.09349 9.62216C5.04277 9.61683 4.99273 9.59548 4.95232 9.55906C4.8495 9.4658 4.84194 9.30815 4.9341 9.20622L5.68257 8.37993C5.77583 8.27712 5.93327 8.27154 6.03541 8.36171C6.13723 8.45487 6.14468 8.61352 6.05252 8.71544L5.30515 9.54084C5.24931 9.60335 5.17007 9.63021 5.09349 9.62216" fill="#FFD0F6"/><path id="Fill 25" fill-rule="evenodd" clip-rule="evenodd" d="M6.90826 10.568L6.89434 10.5665C6.75793 10.5441 6.66584 10.4158 6.68723 10.2793L6.86612 9.17998C6.88751 9.04346 7.0017 8.9519 7.15235 8.97276C7.28876 8.99514 7.38085 9.12347 7.35956 9.25899L7.18156 10.3594C7.1597 10.4908 7.03954 10.5818 6.90826 10.568" fill="#FFD0F6"/><path id="Fill 27" fill-rule="evenodd" clip-rule="evenodd" d="M5.82009 10.1709C5.7813 10.1668 5.74345 10.1538 5.70953 10.1321C5.5939 10.0556 5.56084 9.90131 5.63735 9.78568L6.33229 8.72249C6.4078 8.60675 6.56299 8.5748 6.67884 8.64932C6.79447 8.72582 6.82653 8.88002 6.75102 8.99576L6.05509 10.0588C6.00234 10.1398 5.90959 10.1803 5.82009 10.1709" fill="#FFD0F6"/><g id="Group 31"><mask id="mask0_723_157568c8f9ef1-21f4-4dca-bd1a-b82b8e8c5f96" style="mask-type:luminance" maskUnits="userSpaceOnUse" x="14" y="9" width="5" height="4" fill="#ffffff"><path id="Clip 30" fill-rule="evenodd" clip-rule="evenodd" d="M15.0791 9.11649L18.5125 9.47735L18.2007 12.4434L14.7674 12.0826L15.0791 9.11649Z" fill="#ffffff"/></mask><g mask="url(#mask0_723_157568c8f9ef1-21f4-4dca-bd1a-b82b8e8c5f96)"><path id="Fill 29" fill-rule="evenodd" clip-rule="evenodd" d="M15.0657 11.4548C15.2506 11.781 15.5696 12.0276 15.9255 12.1525C16.3356 12.2972 16.7899 12.2896 17.212 12.1862C17.4886 12.1187 17.7618 12.0067 17.9702 11.8124C18.3301 11.4782 18.4233 10.8022 18.3641 10.3325C18.3282 10.0522 18.1965 9.77389 17.9666 9.60795C17.628 9.36623 17.2378 9.31013 16.8353 9.34123C16.4795 9.36819 16.1185 9.40667 15.7895 9.54302C15.1322 9.81782 14.7137 10.6134 14.9905 11.2991C15.0121 11.3527 15.0368 11.4045 15.0657 11.4548" fill="#FF37B8" fill-opacity="0.5"/></g></g><path id="Fill 32" fill-rule="evenodd" clip-rule="evenodd" d="M17.6982 11.2229C17.6216 11.2149 17.5497 11.1721 17.5081 11.0994L17.0398 10.293C16.971 10.1732 17.0111 10.0205 17.1301 9.9506C17.2498 9.88274 17.4027 9.92093 17.4724 10.0419L17.9406 10.8492C18.0096 10.9681 17.9694 11.1207 17.8494 11.1906C17.8023 11.2178 17.7489 11.2283 17.6982 11.2229" fill="#FFD0F6"/><path id="Fill 34" fill-rule="evenodd" clip-rule="evenodd" d="M16.0463 11.6807C15.915 11.6669 15.8164 11.553 15.8224 11.4199L15.8691 10.4876C15.8755 10.3495 15.9923 10.2432 16.1314 10.2497C16.2709 10.2614 16.3746 10.3749 16.3681 10.5129L16.3225 11.4443C16.3151 11.5822 16.1983 11.6886 16.0602 11.6822L16.0463 11.6807Z" fill="#FFD0F6"/><path id="Fill 36" fill-rule="evenodd" clip-rule="evenodd" d="M17.0069 11.546C16.9174 11.5366 16.8351 11.4777 16.8003 11.3875L16.4159 10.3959C16.3651 10.2669 16.4285 10.1227 16.5575 10.0719C16.6861 10.0251 16.8316 10.0857 16.8814 10.2146L17.2657 11.2072C17.3165 11.3362 17.2521 11.4803 17.1231 11.5311C17.0854 11.5452 17.0457 11.5501 17.0069 11.546" fill="#FFD0F6"/></g></g></g><g id="Upper Body" transform="translate(7 0) scale(1 1)"><g id="Upper Body/With Backpack"><g id="Group 39"><path id="Fill 1" fill-rule="evenodd" clip-rule="evenodd" d="M34.8359 64.8636C29.3449 80.2166 27.6699 115.251 47.7019 117.488C66.1611 119.547 61.1844 55.2624 61.1844 55.2624L61.2556 54.1682C61.2556 54.1682 40.3279 49.5106 34.8359 64.8636Z" fill="#2C2263"/><g id="Group 5"><mask id="mask0_723_257230fe5a0a0-3e5d-45f5-930b-0bb34641bcaa" style="mask-type:luminance" maskUnits="userSpaceOnUse" x="44" y="50" width="12" height="7" fill="#ffffff"><path id="Clip 4" fill-rule="evenodd" clip-rule="evenodd" d="M44.4043 49.9999H55.7466V56.7254H44.4043V49.9999Z" fill="#ffffff"/></mask><g mask="url(#mask0_723_257230fe5a0a0-3e5d-45f5-930b-0bb34641bcaa)"><path id="Fill 3" fill-rule="evenodd" clip-rule="evenodd" d="M45.7653 56.7254L44.4043 56.4574C44.4173 56.3924 44.7283 54.8454 45.6333 53.2864C46.8873 51.1264 48.6703 49.9904 50.7873 49.9994C52.3683 50.0074 53.6113 50.4844 54.4833 51.4174C55.8623 52.8934 55.7473 54.9554 55.7423 55.0424L54.3583 54.9544C54.3593 54.9424 54.4333 53.3874 53.4623 52.3564C52.8623 51.7184 51.9593 51.3924 50.7813 51.3864C46.8773 51.3694 45.7763 56.6724 45.7653 56.7254" fill="#2C2263"/></g></g><path id="Fill 6" fill-rule="evenodd" clip-rule="evenodd" d="M100.29 98.0858C100.373 97.1938 100.299 96.2628 100.062 95.2498C100.026 95.0938 99.9859 94.9358 99.9419 94.7748C98.6259 90.0128 95.6039 83.7018 90.9579 76.0228C87.6019 70.4718 84.6309 66.2548 84.5069 66.0778C82.5879 63.3588 78.8299 62.7108 76.1109 64.6298C73.3939 66.5478 72.7449 70.3068 74.6629 73.0238C76.0399 74.9768 78.4859 78.6428 80.9599 82.7728C79.6479 82.9198 78.3739 83.4978 77.3679 84.5048C75.0189 86.8608 75.0239 90.6758 77.3799 93.0248C77.4929 93.1368 80.1799 95.8138 83.1609 98.3918C85.0419 100.021 86.6099 101.241 87.9549 102.125C88.9889 102.806 89.9129 103.297 90.7759 103.626C91.4399 103.879 92.0669 104.033 92.6509 104.112C93.9729 104.293 95.0779 104.092 95.9159 103.796C96.3719 103.637 96.7479 103.45 97.0379 103.281C98.8959 102.196 100.082 100.304 100.29 98.0858" fill="#FED21C"/><path id="Fill 8" fill-rule="evenodd" clip-rule="evenodd" d="M97.0381 103.281C96.7491 103.45 96.3721 103.636 95.9171 103.796C95.6811 99.9751 98.3341 96.8581 100.063 95.2501C100.3 96.2621 100.374 97.1941 100.29 98.0861C100.083 100.303 98.8971 102.196 97.0381 103.281" fill="#AD5CEE"/><path id="Fill 10" fill-rule="evenodd" clip-rule="evenodd" d="M56.1496 57.3264C55.9886 57.4154 55.8166 57.5254 55.7656 57.7014C55.6996 57.9244 55.8556 58.1474 56.0026 58.3284C57.5546 60.2454 59.1256 62.1804 61.0716 63.6974C63.0176 65.2124 65.4006 66.2954 67.8666 66.2424C70.7036 66.1794 73.3296 64.6244 75.3566 62.6384C75.6286 62.3714 75.9006 62.0844 76.0266 61.7254C76.3196 60.8914 75.7366 59.9964 75.0496 59.4404C74.0006 58.5874 71.2116 57.3834 70.0406 56.7254C69.2276 56.2684 70.9266 58.9109 66.871 58.3284C63.8271 57.8913 61.187 55.2664 61.187 55.2664C61.187 55.2664 58.5646 55.9754 56.1496 57.3264Z" fill="#7B76DD"/><path id="Fill 12" fill-rule="evenodd" clip-rule="evenodd" d="M45.5378 77.3407C45.4788 78.2937 45.4298 79.1927 45.3888 80.0457C45.3738 80.3347 45.3618 80.6167 45.3478 80.8957C44.9918 88.7937 46.0948 93.0217 43.8348 100.695C37.7998 121.186 45.4198 124.747 45.4198 124.747C56.0868 130.664 83.4208 125.447 83.4208 125.447C83.4208 125.447 86.8948 122.227 86.2928 111.075C85.6358 98.8817 83.8908 92.8397 83.3788 85.4737C82.8678 78.1077 86.1178 65.8447 81.6318 63.4807C80.0858 62.6657 78.5988 61.7567 77.0878 60.8797C75.6578 60.0497 74.6208 60.3707 73.4788 61.6167C72.9058 62.2427 72.4428 62.9687 71.8228 63.5487C69.9838 65.2677 66.5508 66.3487 64.2338 65.3637C61.9178 64.3797 60.6028 61.5227 58.9658 59.6107C58.2498 58.7757 57.5008 57.8847 56.4598 57.5297C55.1418 57.0817 53.6088 57.5837 52.4348 58.2167C51.3448 58.8037 50.2098 59.2347 49.0538 59.7267C43.5048 62.0857 46.1838 66.9367 45.5378 77.3407" fill="#FED21C"/><path id="Fill 14" fill-rule="evenodd" clip-rule="evenodd" d="M47.7321 60.3143C47.7321 60.3143 54.7961 65.3213 55.9821 75.1763C57.1671 85.0313 51.4871 98.3373 43.5541 101.666C43.5541 101.666 40.7771 103.573 42.1781 107.565C42.1781 107.565 58.4541 104.453 61.3111 83.4893C64.1681 62.5243 52.5551 58.4063 52.5551 58.4063C51.0881 57.8803 48.6641 59.1363 47.7321 60.3143" fill="#2C2263"/><path id="Fill 16" fill-rule="evenodd" clip-rule="evenodd" d="M56.4191 76.3739C55.9611 76.4139 55.5621 76.0609 55.5451 75.6009C55.5301 75.1649 55.5011 74.7379 55.4541 74.3299C55.3811 73.6879 55.7671 73.0829 56.3771 72.8719C57.4311 72.5059 59.1151 72.0429 60.8251 72.0699C61.5731 72.0819 62.1741 72.6919 62.1821 73.4409C62.1881 73.9409 62.1901 74.5649 62.1851 75.2549C62.1821 75.6869 61.8391 76.0419 61.4081 76.0549C59.7421 76.1039 58.0801 76.2289 56.4191 76.3739" fill="#816AD8"/><path id="Fill 18" fill-rule="evenodd" clip-rule="evenodd" d="M77.0605 60.911C77.0605 60.911 78.1035 75.335 79.2485 82.881C80.4045 90.509 84.9575 101.205 85.4715 101.041C85.4715 101.041 86.9285 88.807 84.8365 81.988C82.7455 75.171 82.6195 66.304 81.2335 63.586C79.8485 60.868 77.0605 60.911 77.0605 60.911" fill="#2C2263"/><path id="Fill 20" fill-rule="evenodd" clip-rule="evenodd" d="M90.1504 93.2967C90.1504 93.2967 89.3534 90.1027 88.3414 88.7697C87.3144 87.4157 85.6794 87.7667 85.6794 87.7667L85.8824 89.1747C85.8824 89.1747 80.7804 88.7637 80.0844 89.5077C79.3874 90.2517 80.4514 91.3817 80.4514 91.3817C80.4514 91.3817 80.1804 91.1547 80.1144 92.1137C80.0484 93.0737 81.2224 93.7427 81.2224 93.7427C81.2224 93.7427 80.9264 94.0297 80.9824 94.8887C81.0384 95.7467 82.1754 96.5687 82.1754 96.5687C82.1754 96.5687 81.4324 97.5477 82.6424 98.1247C83.1934 98.3877 84.8684 99.0697 87.3524 98.1247C88.4884 97.6917 90.6314 96.5727 90.1504 93.2967" fill="#ccccff"/><path id="Fill 22" fill-rule="evenodd" clip-rule="evenodd" d="M83.1526 75.5887C83.5726 75.5837 83.9046 75.2267 83.8776 74.8067C83.8526 74.4087 83.8406 74.0187 83.8456 73.6427C83.8556 73.0527 83.4496 72.5367 82.8756 72.3997C81.8836 72.1607 80.3096 71.8917 78.7566 72.0697C78.0766 72.1497 77.5856 72.7587 77.6456 73.4407C77.6866 73.8957 77.7396 74.4627 77.8066 75.0907C77.8486 75.4827 78.1926 75.7747 78.5856 75.7477C80.1056 75.6437 81.6286 75.6067 83.1526 75.5887" fill="#816AD8"/><path id="Fill 24" fill-rule="evenodd" clip-rule="evenodd" d="M85.2346 122.001C85.2346 122.001 85.8826 125.572 83.9946 127.656C83.9946 127.656 59.4016 132.607 44.1676 126.657C44.1676 126.657 42.9826 124.755 43.0646 121.194C43.0646 121.194 61.3676 128.486 85.2346 122.001" fill="#AD5CEE"/><path id="Fill 26" fill-rule="evenodd" clip-rule="evenodd" d="M78.8991 103.92C78.8991 103.92 80.6591 113.574 78.8531 118.555C78.8531 118.555 68.1081 123.123 53.7031 118.129C53.7031 118.129 54.1191 108.878 54.3371 102.924C54.3371 102.924 69.7951 102.533 78.8991 103.92" fill="#AD5CEE"/><path id="Fill 28" fill-rule="evenodd" clip-rule="evenodd" d="M61.5754 114.659C61.6894 114.675 61.7954 114.598 61.8164 114.484C65.4184 94.869 63.9324 64.509 63.9164 64.204C63.9104 64.085 63.8084 63.994 63.6904 64C63.5714 64.006 63.4794 64.107 63.4864 64.225C63.5014 64.53 64.9854 94.841 61.3924 114.407C61.3704 114.524 61.4484 114.637 61.5654 114.658C61.5684 114.658 61.5724 114.659 61.5754 114.659" fill="#EFF2F9"/><path id="Fill 30" fill-rule="evenodd" clip-rule="evenodd" d="M74.9466 115.126C74.9486 115.127 74.9506 115.127 74.9526 115.127C75.0716 115.14 75.1776 115.054 75.1906 114.936C77.7216 90.9998 72.9416 65.5748 72.8936 65.3208C72.8706 65.2038 72.7586 65.1268 72.6406 65.1488C72.5236 65.1718 72.4466 65.2848 72.4686 65.4018C72.5176 65.6548 77.2856 91.0198 74.7616 114.89C74.7486 115.006 74.8316 115.11 74.9466 115.126" fill="#EFF2F9"/><g id="Group 34"><mask id="mask1_723_257230fe5a0a0-3e5d-45f5-930b-0bb34641bcaa" style="mask-type:luminance" maskUnits="userSpaceOnUse" x="26" y="60" width="32" height="43" fill="#ffffff"><path id="Clip 33" fill-rule="evenodd" clip-rule="evenodd" d="M26 60.4917H57.8941V102.462H26V60.4917Z" fill="#ffffff"/></mask><g mask="url(#mask1_723_257230fe5a0a0-3e5d-45f5-930b-0bb34641bcaa)"><path id="Fill 32" fill-rule="evenodd" clip-rule="evenodd" d="M54.7282 95.9217C54.5592 96.0127 50.5312 98.1747 45.9522 99.9577C43.0862 101.073 40.5502 101.823 38.4162 102.187C36.8462 102.454 35.4602 102.526 34.1822 102.405C34.0172 102.39 33.8542 102.371 33.6932 102.349C32.7222 102.217 31.8222 101.967 30.9992 101.604C30.2732 101.281 29.6062 100.869 29.0042 100.37C27.3572 99.0037 26.3442 97.1127 26.0732 94.9027C25.9372 93.7967 25.9902 92.6417 26.2362 91.4057C26.3462 90.8507 26.4962 90.2777 26.6852 89.6877C27.4072 87.4217 28.8872 84.5797 31.2082 80.9997C32.8882 78.4087 35.0262 75.4037 37.5632 72.0687C41.8282 66.4627 45.7332 61.8717 45.8972 61.6787C46.2442 61.2727 46.9152 60.6617 47.5952 60.4917C49.9082 64.0537 51.7492 67.8127 53.0912 71.8657C51.5832 73.7017 49.3862 76.4257 47.1192 79.4077C43.7212 83.8757 41.5992 87.0347 40.2742 89.2177C41.0482 88.9427 41.9252 88.6057 42.9182 88.1907C46.2262 86.8087 48.9862 85.3287 49.0142 85.3147C51.9442 83.7387 55.5972 84.8357 57.1732 87.7637C58.7492 90.6927 57.6562 94.3427 54.7282 95.9217" fill="#FED21C"/></g></g><path id="Fill 35" fill-rule="evenodd" clip-rule="evenodd" d="M30.9993 101.603C30.2723 101.281 29.6063 100.869 29.0033 100.37C27.3573 99.0034 26.3443 97.1134 26.0733 94.9034C25.9373 93.7964 25.9903 92.6414 26.2353 91.4064C28.4393 92.8884 32.9463 96.6504 30.9993 101.603" fill="#AD5CEE"/><path id="Fill 37" fill-rule="evenodd" clip-rule="evenodd" d="M47.6508 87.579C47.6508 87.579 51.9498 83.038 53.4958 82.789C55.0418 82.539 55.6428 83.081 55.6428 83.081L55.3608 84.441C55.3608 84.441 60.8958 83.469 61.5998 84.091C62.3038 84.712 61.4268 85.842 61.4268 85.842C61.4268 85.842 61.6558 85.609 61.7998 86.483C61.9428 87.357 60.9258 88.073 60.9258 88.073C60.9258 88.073 61.2218 88.311 61.2458 89.102C61.2688 89.894 60.2978 90.748 60.2978 90.748C60.2978 90.748 60.6148 91.317 60.0698 92.426C59.5248 93.535 54.8578 95.462 51.7338 95.233C48.6098 95.005 46.0618 91.043 47.6508 87.579" fill="#ccccff"/></g></g></g></g></svg>