<svg viewBox="37.07908163265307 43.64999999999998 221.7474489795918 200.06250000000003" fill="none" xmlns="http://www.w3.org/2000/svg" xmlns:xlink="http://www.w3.org/1999/xlink" overflow="visible" width="221.7474489795918px" height="200.06250000000003px"><g id="Master/Spot Illustrations/Work from Home"><g id="Backdrop" transform="translate(29 36) scale(1 1)"><g id="Backdrop/Slab"><path id="Background" opacity="0.2" fill-rule="evenodd" clip-rule="evenodd" d="M205.234 15.012L13.2864 53.2484C11.0835 53.4593 10.1998 56.2033 11.8644 57.6613L123.584 175.375C124.819 176.456 126.739 176.089 127.489 174.63L207.716 18.6804C208.629 16.9057 207.219 14.8231 205.234 15.012" fill="#FFC435"/></g></g><g id="Texture" opacity="0.644252" transform="translate(39 50) scale(1 1)"><g id="Texture/Glitch"><g id="Decoration 17" opacity="0.767834"><path id="Fill 37" fill-rule="evenodd" clip-rule="evenodd" d="M53.0537 11.4412C55.5327 9.30123 59.2767 9.57623 61.4157 12.0542C63.5557 14.5322 63.2817 18.2762 60.8027 20.4162C58.3247 22.5552 54.5807 22.2812 52.4417 19.8022C50.3017 17.3252 50.5757 13.5812 53.0537 11.4412" fill="#F28DFD"/></g><g id="Decoration 16"><path id="Fill 23" fill-rule="evenodd" clip-rule="evenodd" d="M89.1782 136.101C89.1942 136.425 89.0732 136.583 88.8932 136.708C88.6382 136.886 88.4022 137.156 88.1192 137.217C86.8272 137.497 86.4242 138.567 85.9122 139.561C85.4252 140.51 84.7522 140.597 84.2902 139.644C83.6742 138.376 82.8962 137.439 81.5452 136.899C80.8112 136.607 80.8182 135.688 81.5672 135.393C82.9242 134.858 83.7162 133.944 84.3052 132.647C84.7192 131.734 85.4742 131.811 85.8912 132.725C86.3782 133.791 86.8702 134.778 88.1502 135.126C88.6162 135.254 89.0712 135.615 89.1782 136.101" fill="#FFFAD9"/></g><g id="Decoration 15"><path id="Fill 13" fill-rule="evenodd" clip-rule="evenodd" d="M101.337 151.106C101.206 149.966 101.159 148.943 100.736 147.985C99.6022 145.411 97.5118 144.792 95.0546 145.056C92.9872 145.279 91.8371 146.755 91.1875 148.618C90.8178 149.679 90.571 150.003 89.5338 149.247C87.891 148.049 86.1084 148.263 84.5136 149.391C82.7449 150.643 82.0545 152.493 82.3482 154.677C82.4661 155.555 82.5211 156.453 82.8918 157.24C82.4831 157.545 82.2333 157.283 81.9765 157.206C80.3667 156.719 78.9458 157.146 77.9585 158.437C76.8914 159.834 76.7115 161.906 77.4379 163.294C77.8306 164.042 78.4292 163.952 79.0437 163.952C85.9505 163.954 92.8573 163.953 99.7631 163.953C108.375 163.953 116.987 163.958 125.6 163.943C126.056 163.942 126.689 164.215 126.925 163.573C127.151 162.957 126.832 162.392 126.434 161.927C125.623 160.974 124.504 160.565 123.369 160.319C121.717 159.961 120.568 159.065 119.638 157.601C118.389 155.634 116.606 154.227 114.217 154.655C112.647 154.937 111.429 155.201 110.268 153.653C109.74 152.951 108.557 152.828 107.591 153.381C107.226 153.59 106.937 153.655 106.778 153.054C105.901 149.76 104.037 149.057 101.337 151.106" fill="#EFF2F9"/></g><g id="Decoration 14"><path id="Triangle" fill-rule="evenodd" clip-rule="evenodd" d="M3.22988 49.4321L10.0339 46.2264C11.4966 45.5371 13.1108 46.7352 12.9596 48.3426L12.2336 56.0607C12.0818 57.6754 10.2606 58.5329 8.95782 57.5645L2.8793 53.0519C1.60656 52.1058 1.79529 50.1072 3.22988 49.4321ZM11.0282 48.1609C11.0413 48.0216 10.938 47.9449 10.8609 47.9813L4.05625 51.1873C3.95322 51.2358 3.93583 51.42 4.0361 51.4945L10.1147 56.0072C10.1854 56.0598 10.2898 56.0106 10.3022 55.879L11.0282 48.1609Z" fill="#FED21C"/></g><g id="Decoration 13"><path id="Fill 39" fill-rule="evenodd" clip-rule="evenodd" d="M29.6278 143.812C29.6268 144.811 28.8158 145.622 27.8158 145.621C26.8158 145.62 26.0068 144.809 26.0078 143.809C26.0078 142.809 26.8188 142 27.8188 142C28.8178 142 29.6288 142.812 29.6278 143.812" fill="#FED21C"/><path id="Fill 41" fill-rule="evenodd" clip-rule="evenodd" d="M29.6239 149.28C29.6229 150.279 28.8119 151.09 27.8119 151.089C26.8119 151.088 26.0029 150.277 26.0039 149.277C26.0039 148.277 26.8149 147.468 27.8149 147.468C28.8139 147.468 29.6249 148.28 29.6239 149.28" fill="#FED21C"/><path id="Fill 43" fill-rule="evenodd" clip-rule="evenodd" d="M29.62 154.406C29.62 155.406 28.808 156.216 27.808 156.215C26.808 156.215 25.999 155.403 26 154.403C26.001 153.403 26.811 152.594 27.811 152.594C28.811 152.594 29.621 153.406 29.62 154.406" fill="#FED21C"/></g><g id="Decoration 12"><path id="Stroke 29" fill-rule="evenodd" clip-rule="evenodd" d="M106.709 113.699L112.115 113.376C113.198 113.31 113.981 114.405 113.47 115.364L111.069 119.882C110.577 120.806 109.24 120.886 108.629 120.035L105.626 115.841C104.988 114.952 105.62 113.765 106.709 113.699ZM112.19 114.628L106.784 114.95C106.65 114.959 106.602 115.05 106.645 115.11L109.648 119.304C109.719 119.403 109.909 119.392 109.962 119.293L112.363 114.775C112.396 114.713 112.329 114.619 112.19 114.628Z" fill="#FF44F8"/></g><g id="Decoration 11"><path id="Fill 23_2" fill-rule="evenodd" clip-rule="evenodd" d="M105.178 100.101C105.194 100.425 105.073 100.583 104.893 100.708C104.638 100.886 104.402 101.156 104.119 101.217C102.827 101.497 102.424 102.567 101.912 103.561C101.425 104.51 100.752 104.597 100.29 103.644C99.6742 102.376 98.8962 101.439 97.5452 100.899C96.8112 100.607 96.8182 99.6884 97.5672 99.3934C98.9242 98.8584 99.7162 97.9444 100.305 96.6474C100.719 95.7344 101.474 95.8114 101.891 96.7254C102.378 97.7914 102.87 98.7784 104.15 99.1264C104.616 99.2544 105.071 99.6154 105.178 100.101" fill="#FFFAD9"/></g><g id="Decoration 10"><path id="Fill 23_3" fill-rule="evenodd" clip-rule="evenodd" d="M183.178 72.1014C183.194 72.4254 183.073 72.5834 182.893 72.7084C182.638 72.8864 182.402 73.1564 182.119 73.2174C180.827 73.4974 180.424 74.5674 179.912 75.5614C179.425 76.5104 178.752 76.5974 178.29 75.6444C177.674 74.3764 176.896 73.4394 175.545 72.8994C174.811 72.6074 174.818 71.6884 175.567 71.3934C176.924 70.8584 177.716 69.9444 178.305 68.6474C178.719 67.7344 179.474 67.8114 179.891 68.7254C180.378 69.7914 180.87 70.7784 182.15 71.1264C182.616 71.2544 183.071 71.6154 183.178 72.1014" fill="#FFFAD9"/></g><g id="Decoration 10_2"><path id="Fill 23_4" fill-rule="evenodd" clip-rule="evenodd" d="M17.1782 117.101C17.1942 117.425 17.0732 117.583 16.8932 117.708C16.6382 117.886 16.4022 118.156 16.1192 118.217C14.8272 118.497 14.4242 119.567 13.9122 120.561C13.4252 121.51 12.7522 121.597 12.2902 120.644C11.6742 119.376 10.8962 118.439 9.54518 117.899C8.81118 117.607 8.81818 116.688 9.56718 116.393C10.9242 115.858 11.7162 114.944 12.3052 113.647C12.7192 112.734 13.4742 112.811 13.8912 113.725C14.3782 114.791 14.8702 115.778 16.1502 116.126C16.6162 116.254 17.0712 116.615 17.1782 117.101" fill="#FFFAD9"/></g><g id="Decoration 9"><path id="Fill 23_5" fill-rule="evenodd" clip-rule="evenodd" d="M67.1782 28.1014C67.1942 28.4254 67.0732 28.5834 66.8932 28.7084C66.6382 28.8864 66.4022 29.1564 66.1192 29.2174C64.8272 29.4974 64.4242 30.5674 63.9122 31.5614C63.4252 32.5104 62.7522 32.5974 62.2902 31.6444C61.6742 30.3764 60.8962 29.4394 59.5452 28.8994C58.8112 28.6074 58.8182 27.6884 59.5672 27.3934C60.9242 26.8584 61.7162 25.9444 62.3052 24.6474C62.7192 23.7344 63.4742 23.8114 63.8912 24.7254C64.3782 25.7914 64.8702 26.7784 66.1502 27.1264C66.6162 27.2544 67.0712 27.6154 67.1782 28.1014" fill="#FFFAD9"/></g><g id="Decoration 8"><path id="Fill 27" fill-rule="evenodd" clip-rule="evenodd" d="M99.7014 24.8592C99.7134 25.0852 99.6284 25.1952 99.5034 25.2822C99.3254 25.4062 99.1604 25.5932 98.9644 25.6372C98.0624 25.8322 97.7814 26.5782 97.4254 27.2712C97.0854 27.9332 96.6164 27.9932 96.2944 27.3292C95.8644 26.4452 95.3214 25.7922 94.3804 25.4152C93.8684 25.2122 93.8734 24.5712 94.3944 24.3652C95.3424 23.9932 95.8934 23.3552 96.3054 22.4512C96.5934 21.8142 97.1194 21.8692 97.4104 22.5052C97.7504 23.2492 98.0934 23.9362 98.9844 24.1792C99.3104 24.2692 99.6264 24.5192 99.7014 24.8592" fill="#FF97FF"/></g><g id="Decoration 7"><path id="Fill 27_2" fill-rule="evenodd" clip-rule="evenodd" d="M81.7014 66.8592C81.7134 67.0852 81.6284 67.1952 81.5034 67.2822C81.3254 67.4062 81.1604 67.5932 80.9644 67.6372C80.0624 67.8322 79.7814 68.5782 79.4254 69.2712C79.0854 69.9332 78.6164 69.9932 78.2944 69.3292C77.8644 68.4452 77.3214 67.7922 76.3804 67.4152C75.8684 67.2122 75.8734 66.5712 76.3944 66.3652C77.3424 65.9932 77.8934 65.3552 78.3054 64.4512C78.5934 63.8142 79.1194 63.8692 79.4104 64.5052C79.7504 65.2492 80.0934 65.9362 80.9844 66.1792C81.3104 66.2692 81.6264 66.5192 81.7014 66.8592" fill="#FF97FF"/></g><g id="Decoration 6"><path id="Fill 27_3" fill-rule="evenodd" clip-rule="evenodd" d="M132.701 80.8592C132.713 81.0852 132.628 81.1952 132.503 81.2822C132.325 81.4062 132.16 81.5932 131.964 81.6372C131.062 81.8322 130.781 82.5782 130.425 83.2712C130.085 83.9332 129.616 83.9932 129.294 83.3292C128.864 82.4452 128.321 81.7922 127.38 81.4152C126.868 81.2122 126.873 80.5712 127.394 80.3652C128.342 79.9932 128.893 79.3552 129.305 78.4512C129.593 77.8142 130.119 77.8692 130.41 78.5052C130.75 79.2492 131.093 79.9362 131.984 80.1792C132.31 80.2692 132.626 80.5192 132.701 80.8592" fill="#FF97FF"/></g><g id="Decoration 5"><path id="Fill 37_2" fill-rule="evenodd" clip-rule="evenodd" d="M173.054 115.441C175.533 113.301 179.277 113.576 181.416 116.054C183.556 118.532 183.282 122.276 180.803 124.416C178.325 126.555 174.581 126.281 172.442 123.802C170.302 121.325 170.576 117.581 173.054 115.441" fill="#F28DFD"/></g><g id="Decoration 4"><path id="Stroke 35" d="M201.813 46.2669C202.177 45.9297 202.726 45.9131 203.108 46.2109L203.199 46.2918L207.706 50.7852C208.097 51.1752 208.098 51.8084 207.708 52.1995C207.348 52.5605 206.781 52.589 206.388 52.2846L206.294 52.2016L202.468 48.387L198.066 52.472C197.714 52.7985 197.186 52.8255 196.805 52.5532L196.705 52.4715L192.545 48.606L187.901 52.7465C187.528 53.0792 186.973 53.0817 186.597 52.7699L186.507 52.6854L182.272 48.1847C181.893 47.7826 181.912 47.1497 182.315 46.7712C182.686 46.4218 183.254 46.4113 183.637 46.728L183.728 46.814L187.296 50.606L191.894 46.5083C192.247 46.1937 192.767 46.1725 193.142 46.4417L193.24 46.5223L197.385 50.374L201.813 46.2669Z" fill="#FF67FF"/></g><g id="Decoration 3"><g id="Group"><path id="Fill 39_2" fill-rule="evenodd" clip-rule="evenodd" d="M204.688 99.1278C203.689 99.1268 202.878 98.3158 202.879 97.3158C202.88 96.3158 203.691 95.5068 204.691 95.5078C205.691 95.5078 206.5 96.3188 206.5 97.3188C206.5 98.3178 205.688 99.1288 204.688 99.1278" fill="#FF97FF"/><path id="Fill 41_2" fill-rule="evenodd" clip-rule="evenodd" d="M199.219 99.1239C198.22 99.1229 197.409 98.3119 197.41 97.3119C197.411 96.3119 198.222 95.5029 199.222 95.5039C200.222 95.5039 201.031 96.3149 201.031 97.3149C201.031 98.3139 200.219 99.1249 199.219 99.1239" fill="#FF97FF"/><path id="Fill 43_2" fill-rule="evenodd" clip-rule="evenodd" d="M194.094 99.12C193.094 99.12 192.284 98.308 192.285 97.308C192.285 96.308 193.097 95.499 194.097 95.5C195.097 95.501 195.906 96.311 195.906 97.311C195.906 98.311 195.094 99.121 194.094 99.12" fill="#FF97FF"/></g></g><g id="Decoration 2" opacity="0.456659"><path id="Fill 15" fill-rule="evenodd" clip-rule="evenodd" d="M189.797 146.428C189.658 145.228 189.609 144.15 189.161 143.141C187.957 140.432 185.743 139.781 183.137 140.059C180.945 140.293 179.727 141.848 179.038 143.809C178.647 144.925 178.385 145.266 177.287 144.47C175.544 143.21 173.654 143.435 171.964 144.623C170.089 145.94 169.358 147.887 169.669 150.185C169.794 151.111 169.853 152.056 170.244 152.883C169.812 153.205 169.546 152.929 169.276 152.848C167.569 152.335 166.062 152.787 165.016 154.144C163.885 155.614 163.694 157.796 164.465 159.256C164.881 160.044 165.515 159.951 166.167 159.951C173.487 159.953 180.808 159.952 188.129 159.952C197.257 159.952 206.386 159.957 215.515 159.94C216 159.939 216.67 160.227 216.92 159.551C217.16 158.903 216.822 158.307 216.4 157.817C215.539 156.815 214.354 156.385 213.151 156.125C211.401 155.748 210.183 154.806 209.196 153.264C207.873 151.194 205.983 149.713 203.45 150.164C201.786 150.459 200.494 150.739 199.263 149.108C198.704 148.368 197.451 148.239 196.426 148.822C196.04 149.042 195.733 149.11 195.564 148.479C194.635 145.01 192.659 144.27 189.797 146.428" fill="#FF67FF"/></g><path id="Fill 31" opacity="0.529483" fill-rule="evenodd" clip-rule="evenodd" d="M170.469 3.00004C177.373 2.98198 182.983 8.5655 183 15.4694C183.017 22.3733 177.435 27.9829 170.531 28C163.628 28.018 158.018 22.4345 158 15.5306C157.984 8.6267 163.566 3.0171 170.469 3.00004" fill="#F28DFD"/></g></g><g id="Window" transform="translate(157 38) scale(1 1)"><g id="Window/Checkmark 3"><mask id="mask0_723_25790fc083d76-dde0-42b2-97dc-13434803db47" style="mask-type:luminance" maskUnits="userSpaceOnUse" x="10" y="11" width="62" height="52" fill="#ffffff"><path id="Clip 142" fill-rule="evenodd" clip-rule="evenodd" d="M10 11H71.3217V62.276H10V11Z" fill="#ffffff"/></mask><g mask="url(#mask0_723_25790fc083d76-dde0-42b2-97dc-13434803db47)"><path id="Fill 141" fill-rule="evenodd" clip-rule="evenodd" d="M60.52 52.651H32.363L23.326 62.276V52.651H20.802C14.836 52.651 10 47.815 10 41.849V21.801C10 15.836 14.836 11 20.802 11H60.52C66.486 11 71.322 15.836 71.322 21.801V41.849C71.322 47.815 66.486 52.651 60.52 52.651" fill="#C2F5FF"/><path id="Fill 144" fill-rule="evenodd" clip-rule="evenodd" d="M55.9541 31.9098C55.9541 40.3558 49.1071 47.2028 40.6621 47.2028C32.2161 47.2028 25.3691 40.3558 25.3691 31.9098C25.3691 23.4648 32.2161 16.6178 40.6621 16.6178C49.1071 16.6178 55.9541 23.4648 55.9541 31.9098" fill="#EFF2F9"/><path id="Fill 146" fill-rule="evenodd" clip-rule="evenodd" d="M40.8797 40.0465L31.3027 32.6195L34.6367 28.3185L40.0747 32.5365L47.1247 24.1245L51.2947 27.6205L40.8797 40.0465Z" fill="#00A8C4"/></g></g></g><g id="Pet" transform="translate(199 186) scale(1 1)"><g id="Pet/Black Cat"><g id="Cat 1"><path id="Fill 36" fill-rule="evenodd" clip-rule="evenodd" d="M17.4456 51.2485C17.4986 51.6145 17.5506 51.9805 17.6006 52.3485C17.6646 52.8105 17.7226 53.3025 17.5316 53.7285C17.2146 54.4365 16.3646 54.6895 15.7086 55.1025C15.5976 55.1725 15.4866 55.2525 15.4216 55.3655C15.2776 55.6195 15.4176 55.9595 15.6526 56.1325C15.8876 56.3065 16.1886 56.3545 16.4776 56.3975C17.7196 56.5865 18.7796 56.8915 20.0496 56.8715C21.4306 56.8515 22.9466 56.7935 24.2756 56.3765C25.1466 56.1615 26.0156 55.8615 26.9116 55.8965C27.3136 55.9135 27.7116 55.9975 28.1136 56.0025C28.9476 56.0145 29.7806 55.6695 30.3626 55.0725C30.9456 54.4775 31.2696 53.6365 31.2386 52.8035C31.1856 51.3725 30.1706 50.1705 29.7706 48.7965C29.3926 47.4965 29.5806 46.1105 29.6866 44.7615C29.7916 43.4115 29.7886 41.9725 29.0906 40.8115C28.6616 40.0985 27.9806 39.5385 27.1966 39.2555C26.4106 38.9725 25.5566 38.9655 24.7206 38.9535C21.9566 38.9145 19.0786 38.8095 16.5596 39.9505C16.2486 40.0915 15.9226 40.2735 15.7896 40.5895C15.4736 41.3335 15.9466 42.4735 16.0916 43.2175C16.2886 44.2395 16.4766 45.2645 16.6556 46.2895C16.9436 47.9385 17.2066 49.5915 17.4456 51.2485" fill="#7362a5"/><path id="Fill 37" fill-rule="evenodd" clip-rule="evenodd" d="M16.1567 22.6997C16.9957 22.9117 17.9267 22.8237 18.6317 22.4317C18.8177 22.3287 18.9287 22.1607 18.9357 21.9307C18.9457 21.6357 18.8017 21.5127 18.5387 21.6637C17.8317 22.0677 17.1017 22.0427 16.3397 21.8797C15.9567 21.7977 15.6547 21.6117 15.3987 21.3347C15.2047 21.1227 15.0317 20.8897 14.8397 20.6777C14.7027 20.5257 14.5217 20.4237 14.3267 20.5337C14.1147 20.6537 14.1167 20.8587 14.1957 21.0727C14.5097 21.9357 15.2827 22.4797 16.1567 22.6997" fill="#FAA6DC"/><path id="Fill 38" fill-rule="evenodd" clip-rule="evenodd" d="M15.9169 16.9653C15.3929 16.8193 15.2439 16.5883 15.4979 16.1103C15.8349 15.4743 16.2039 14.8553 16.5619 14.2303C16.6639 14.0503 16.7639 13.8663 17.0269 13.9183C17.2879 13.9703 17.3059 14.1763 17.3489 14.3793C17.5089 15.1453 17.5399 15.9243 17.6249 16.6983C17.6799 17.2023 17.7139 17.1983 17.3839 17.2113C16.7549 17.2483 16.3429 17.0843 15.9169 16.9653" fill="#F376DA"/><path id="Fill 39" fill-rule="evenodd" clip-rule="evenodd" d="M19.5098 26.4009C19.9748 26.3369 20.2918 26.0369 20.6218 25.7609C20.6888 25.7059 20.6538 25.6269 20.6058 25.5689C20.5438 25.4939 20.4598 25.4859 20.3768 25.5239C20.2578 25.5789 20.1368 25.6319 20.0258 25.7029C19.5968 25.9709 19.2358 25.8349 18.8978 25.5279C18.7288 25.3759 18.5568 25.2269 18.3918 25.0719C18.2658 24.9539 18.0908 24.8959 17.9708 24.9759C17.8308 25.0709 17.9308 25.2429 18.0028 25.3649C18.3428 25.9479 18.8478 26.2919 19.5098 26.4009" fill="#F376DA"/><path id="Fill 40" fill-rule="evenodd" clip-rule="evenodd" d="M18.9829 23.7271C18.9959 23.8001 19.0069 23.9081 19.0349 24.0101C19.0989 24.2451 19.2649 24.3951 19.4979 24.3831C19.7549 24.3711 19.8619 24.1521 19.8609 23.9231C19.8599 23.6871 19.8559 23.4491 19.8449 23.2121C19.8359 23.0261 19.7549 22.8371 19.5139 22.8041C19.2789 22.7721 19.1999 22.9331 19.1269 23.1031C19.0449 23.2901 18.9959 23.4871 18.9829 23.7271" fill="#F376DA"/><path id="Fill 41" fill-rule="evenodd" clip-rule="evenodd" d="M13.5551 26.896H13.5561C13.5561 26.898 13.5581 26.899 13.5581 26.901L13.5551 26.896Z" fill="#FCB332"/><path id="Fill 42" fill-rule="evenodd" clip-rule="evenodd" d="M36.8188 42.7622C36.5828 42.2072 34.5728 37.1962 29.8568 33.8762C28.8268 33.1522 27.8438 32.3622 26.7848 31.6812C25.9548 31.1472 24.8998 30.7312 24.4848 29.7712C24.2578 29.2472 24.1678 28.6762 24.0798 28.1132C21.5108 28.7912 18.8028 28.5862 16.1538 28.3772C16.0038 29.3722 14.2128 38.9502 15.1558 41.2092C15.3378 41.6432 15.6778 41.9822 15.8268 42.4272C15.8468 42.4532 15.8668 42.4792 15.8868 42.5042C15.9898 42.6162 16.0938 42.7282 16.1948 42.8412C16.6728 43.3722 17.8758 43.6842 18.4768 44.0462C18.4768 44.0462 19.5708 54.7852 19.3588 54.9042C18.7318 55.2522 17.8078 55.4792 17.2748 55.9282C17.1268 56.0532 17.0158 56.2382 17.0268 56.4312C17.0468 56.7532 17.3808 56.8482 17.6478 56.8662C20.3398 57.0452 23.0398 56.9642 25.7348 56.9082C28.1378 56.8572 30.6558 56.9472 33.0148 56.4282C33.4278 56.3372 33.8508 56.2182 34.1738 55.9462C34.4158 55.7412 41.0018 48.5622 41.5728 36.8512C41.6998 34.2402 41.6548 31.6162 41.2828 29.0272C40.8288 25.8612 39.8488 22.7372 37.4578 20.5032C37.0968 20.1662 36.7108 19.8562 36.2838 19.6192C35.6198 19.2492 34.9148 19.1752 34.2878 19.6282C33.7218 20.0362 33.2828 21.1002 33.4298 21.7592C33.4188 21.8412 33.4018 21.9232 33.3968 22.0062C33.3138 23.3672 35.6478 28.3182 36.0608 29.8492C36.9048 32.9752 37.4838 36.1722 37.7868 39.3962C37.8398 39.9532 38.0208 43.0232 36.8858 42.8812C36.8738 42.8792 36.8508 42.8372 36.8188 42.7622" fill="#2C2571"/><path id="Fill 43" fill-rule="evenodd" clip-rule="evenodd" d="M14.3254 20.5337C14.5204 20.4237 14.7014 20.5257 14.8384 20.6777C15.0314 20.8897 15.2034 21.1227 15.3974 21.3347C15.6524 21.6117 15.9554 21.7977 16.3384 21.8797C17.1004 22.0427 17.8304 22.0677 18.5374 21.6637C18.8004 21.5127 18.9444 21.6357 18.9344 21.9307C18.9274 22.1607 18.8164 22.3287 18.6314 22.4317C17.1864 23.2357 14.8124 22.7677 14.1944 21.0727C14.1164 20.8587 14.1134 20.6537 14.3254 20.5337M17.9714 24.9757C18.0904 24.8957 18.2664 24.9527 18.3914 25.0707C18.5564 25.2267 18.7294 25.3757 18.8974 25.5277C19.2354 25.8347 19.5974 25.9707 20.0264 25.7017C20.1374 25.6327 20.2584 25.5787 20.3774 25.5237C20.4604 25.4857 20.5434 25.4937 20.6054 25.5687C20.6544 25.6267 20.6894 25.7057 20.6214 25.7617C20.2924 26.0367 19.9754 26.3367 19.5104 26.4007C18.8484 26.2917 18.3434 25.9477 18.0024 25.3647C17.9314 25.2427 17.8314 25.0707 17.9714 24.9757M24.9064 17.8847C24.5014 17.8167 23.9584 17.7327 23.4294 17.5757C23.1204 17.4847 23.0714 17.3127 23.1594 16.9997C23.3884 16.1817 23.9284 15.5127 24.2044 14.7197C24.2514 14.5847 24.3344 14.4157 24.5234 14.4227C24.6964 14.4297 24.7984 14.5507 24.8634 14.7047C25.1884 15.4737 25.5594 16.2287 25.7454 17.0497C25.9194 17.8167 25.8674 17.8707 24.9064 17.8847M19.8594 23.9237C19.8604 24.1517 19.7534 24.3707 19.4954 24.3837C19.2634 24.3947 19.0964 24.2447 19.0334 24.0107C19.0054 23.9077 18.9934 23.8007 18.9814 23.7267C18.9934 23.4867 19.0434 23.2907 19.1254 23.1027C19.1984 22.9327 19.2774 22.7717 19.5124 22.8047C19.7534 22.8377 19.8344 23.0257 19.8434 23.2127C19.8534 23.4487 19.8584 23.6867 19.8594 23.9237M17.3834 17.2117C16.7544 17.2487 16.3424 17.0847 15.9154 16.9657C15.3914 16.8197 15.2424 16.5887 15.4964 16.1097C15.8344 15.4737 16.2024 14.8547 16.5604 14.2297C16.6624 14.0507 16.7634 13.8667 17.0264 13.9187C17.2864 13.9707 17.3044 14.1767 17.3474 14.3797C17.5084 15.1447 17.5384 15.9247 17.6234 16.6987C17.6784 17.2027 17.7124 17.1987 17.3834 17.2117M12.7504 25.4157C13.0944 26.3047 13.6624 27.0987 14.3214 27.7837C15.4224 28.9297 17.4824 28.9507 18.9394 29.1907C20.6444 29.4717 22.4394 29.4047 24.1164 28.9247C24.9144 28.6957 25.5924 28.4647 26.1424 27.8277C26.5854 27.3147 26.9234 26.7177 27.1604 26.0837C27.8294 24.2977 27.7574 22.2657 27.3064 20.4377C27.1384 19.7527 26.5784 16.7117 26.3274 15.9077C25.9154 14.5877 25.4994 13.2687 24.9974 11.9797C24.9344 11.8197 24.8844 11.6277 24.6904 11.6257C24.5144 11.6247 24.4614 11.8177 24.3974 11.9567C23.6004 13.6797 22.8074 15.4047 22.0114 17.1287C21.7514 17.6907 21.6784 18.1187 21.0014 18.1197C20.3884 18.1207 19.6824 17.9397 19.1364 17.6657C18.6934 17.4417 18.6854 17.2367 18.6324 16.7257C18.6314 16.7147 18.6284 16.7027 18.6274 16.6897C18.4324 14.9247 18.2384 13.1587 18.0404 11.3917C18.0254 11.2567 18.0784 11.0647 17.9104 11.0117C17.7474 10.9597 17.6094 11.0907 17.5134 11.2107C17.0144 11.8327 13.5574 16.1537 12.4574 20.6797C12.1374 21.9947 12.2254 23.3867 12.5324 24.7077C12.5884 24.9507 12.6614 25.1857 12.7504 25.4157" fill="#2C2571"/><path id="Fill 44" fill-rule="evenodd" clip-rule="evenodd" d="M25.7461 17.0493C25.5591 16.2293 25.1891 15.4743 24.8641 14.7043C24.7991 14.5503 24.6961 14.4293 24.5231 14.4223C24.3341 14.4153 24.2521 14.5843 24.2041 14.7193C23.9291 15.5133 23.3891 16.1823 23.1601 16.9993C23.0721 17.3133 23.1211 17.4843 23.4291 17.5753C23.9581 17.7333 24.5011 17.8173 24.9061 17.8843C25.8681 17.8703 25.9201 17.8173 25.7461 17.0493" fill="#F376DA"/><path id="Fill 45" fill-rule="evenodd" clip-rule="evenodd" d="M15.5103 29.8921C16.5143 30.3481 17.5933 30.4331 18.6713 30.5201C19.1973 30.5631 19.7243 30.5931 20.2513 30.6271C20.7183 30.6591 20.8493 30.5101 20.7873 30.0751C20.7513 29.8261 20.5833 29.8081 20.4003 29.7891C19.6953 29.7181 18.9883 29.6651 18.2853 29.5751C17.3823 29.4571 16.4993 29.2251 15.6133 29.0191L15.5093 29.0251C15.4623 29.3021 15.3033 29.5771 15.4793 29.8621C15.4943 29.8671 15.5043 29.8771 15.5103 29.8921" fill="#F376DA"/><path id="Fill 46" fill-rule="evenodd" clip-rule="evenodd" d="M24.6031 30.1304C24.6481 30.0334 24.6991 29.9384 24.7381 29.8394C24.8431 29.5764 24.7111 29.3754 24.4301 29.3924C23.9881 29.4174 23.5511 29.4914 23.1191 29.5894C22.7451 29.6744 22.8541 29.9774 22.8731 30.2024C22.8931 30.4674 23.1231 30.3664 23.2701 30.3484C23.6921 30.2954 24.1111 30.2224 24.5321 30.1564C24.5561 30.1484 24.5791 30.1394 24.6031 30.1304" fill="#F376DA"/><path id="Fill 47" fill-rule="evenodd" clip-rule="evenodd" d="M21.7422 30.3364C21.9262 30.3244 22.1602 30.3564 22.1632 30.0734C22.1672 29.7894 21.9362 29.8014 21.7452 29.8074C21.5692 29.8134 21.3602 29.8154 21.3642 30.0804C21.3672 30.3334 21.5322 30.3704 21.7422 30.3364" fill="#F376DA"/><path id="Fill 48" fill-rule="evenodd" clip-rule="evenodd" d="M23.6596 23.7622C22.7946 23.7632 21.9116 23.4522 21.3236 22.9012C21.1686 22.7552 21.1016 22.5652 21.1506 22.3412C21.2136 22.0512 21.3826 21.9682 21.6006 22.1772C22.1876 22.7412 22.9026 22.8952 23.6806 22.9212C24.0726 22.9352 24.4116 22.8282 24.7256 22.6212C24.9666 22.4632 25.1896 22.2802 25.4286 22.1192C25.5976 22.0062 25.7986 21.9502 25.9606 22.1062C26.1376 22.2742 26.0846 22.4722 25.9576 22.6602C25.4426 23.4202 24.5596 23.7612 23.6596 23.7622" fill="#FAA6DC"/><path id="Stroke 49 (Stroke)" fill-rule="evenodd" clip-rule="evenodd" d="M26.8918 42.1548C26.9932 42.2484 26.9995 42.4066 26.9058 42.508C25.4839 44.0478 24.8503 45.5045 24.6958 46.823C24.5411 48.1429 24.8636 49.3488 25.3953 50.3901C25.9278 51.4329 26.6672 52.3044 27.3336 52.9467C28.0032 53.5922 28.5848 53.9927 28.7888 54.1003C28.9038 54.1609 28.9531 54.2995 28.9023 54.4191C28.8515 54.5387 28.7175 54.5995 28.5941 54.5589C28.1899 54.426 27.5172 54.3393 26.6907 54.3041C25.8709 54.2693 24.921 54.2859 23.9745 54.3498C23.0279 54.4138 22.0896 54.5249 21.2926 54.6778C20.4869 54.8322 19.8539 55.0243 19.4973 55.2371C19.3787 55.3078 19.2252 55.2691 19.1545 55.1505C19.0837 55.032 19.1225 54.8785 19.2411 54.8077C19.6779 54.547 20.3853 54.3426 21.1984 54.1867C22.0202 54.0291 22.9794 53.916 23.9408 53.851C24.9024 53.786 25.871 53.7688 26.712 53.8046C27.0308 53.8181 27.3345 53.8394 27.6144 53.8692C27.4185 53.7065 27.2061 53.5183 26.9866 53.3067C26.2934 52.6386 25.5148 51.7236 24.95 50.6175C24.3845 49.5099 24.0305 48.2046 24.1992 46.7648C24.3681 45.3236 25.058 43.772 26.5385 42.1688C26.6322 42.0674 26.7904 42.0611 26.8918 42.1548Z" fill="#CDD6F2"/><path id="Stroke 50 (Stroke)" fill-rule="evenodd" clip-rule="evenodd" d="M11.0785 21.7503C11.227 21.5175 11.5361 21.4491 11.7689 21.5976L13.8229 22.9076C14.0557 23.0561 14.1241 23.3652 13.9756 23.598C13.8271 23.8309 13.518 23.8992 13.2852 23.7507L11.2312 22.4407C10.9984 22.2922 10.93 21.9831 11.0785 21.7503Z" fill="#2C2571"/><path id="Stroke 51 (Stroke)" fill-rule="evenodd" clip-rule="evenodd" d="M13.888 24.6245C13.9251 24.8982 13.7333 25.1501 13.4597 25.1871L11.7547 25.4181C11.481 25.4552 11.2292 25.2634 11.1921 24.9898C11.155 24.7162 11.3468 24.4643 11.6204 24.4272L13.3254 24.1962C13.5991 24.1591 13.851 24.3509 13.888 24.6245Z" fill="#2C2571"/><path id="Stroke 52 (Stroke)" fill-rule="evenodd" clip-rule="evenodd" d="M30.893 23.3459C30.9787 23.6084 30.8355 23.8907 30.573 23.9765L28.257 24.7335C27.9946 24.8193 27.7122 24.6761 27.6264 24.4136C27.5406 24.1511 27.6839 23.8688 27.9464 23.783L30.2624 23.026C30.5248 22.9402 30.8072 23.0834 30.893 23.3459Z" fill="#2C2571"/><path id="Stroke 53 (Stroke)" fill-rule="evenodd" clip-rule="evenodd" d="M27.3592 25.748C27.4633 25.4923 27.755 25.3692 28.0108 25.4733L29.6038 26.1213C29.8596 26.2253 29.9826 26.5171 29.8785 26.7728C29.7745 27.0286 29.4828 27.1516 29.227 27.0476L27.634 26.3996C27.3782 26.2955 27.2552 26.0038 27.3592 25.748Z" fill="#2C2571"/><path id="Fill 54" fill-rule="evenodd" clip-rule="evenodd" d="M14.5917 25.98C15.6237 26.127 16.2347 25.832 16.4417 25.086C16.6827 24.22 16.1287 23.295 15.1517 22.932C14.3877 22.649 13.6277 22.96 13.2327 23.719C12.7157 24.713 13.3717 25.806 14.5917 25.98" fill="#F376DA"/><path id="Fill 55" fill-rule="evenodd" clip-rule="evenodd" d="M24.4374 27.395C25.4684 27.541 26.0804 27.247 26.2874 26.5C26.5284 25.634 25.9744 24.71 24.9974 24.347C24.2334 24.064 23.4734 24.375 23.0784 25.134C22.5614 26.128 23.2174 27.22 24.4374 27.395" fill="#F376DA"/></g></g></g><g id="Chairs" transform="translate(90 124) scale(1 1)"><g id="Chairs/Chair"><g id="Chair"><path id="Fill 9" fill-rule="evenodd" clip-rule="evenodd" d="M50.3701 118.47C49.5092 118.47 48.7593 117.806 48.6419 116.893L41.3399 60.1054H10.7826L3.59365 116.889C3.46777 117.886 2.59089 118.586 1.63508 118.453C0.679257 118.322 0.00719786 117.41 0.133076 116.413L7.52146 58.0499C7.63561 57.1466 8.37594 56.47 9.25175 56.47H42.8665C43.7412 56.47 44.4805 57.1444 44.5968 58.0466L52.1025 116.41C52.2294 117.406 51.5595 118.32 50.6037 118.453C50.5258 118.464 50.4469 118.47 50.3701 118.47" fill="#A12BB6"/><g id="Group 3"><path id="Fill 1" fill-rule="evenodd" clip-rule="evenodd" d="M72.3701 118.47C71.5092 118.47 70.7593 117.806 70.6419 116.893L63.3399 60.1054H32.7826L25.5936 116.889C25.4678 117.886 24.5909 118.586 23.6351 118.453C22.6793 118.322 22.0072 117.41 22.1331 116.413L29.5215 58.0499C29.6356 57.1466 30.3759 56.47 31.2518 56.47H64.8665C65.7412 56.47 66.4805 57.1444 66.5968 58.0466L74.1025 116.41C74.2294 117.406 73.5595 118.32 72.6037 118.453C72.5258 118.464 72.4469 118.47 72.3701 118.47" fill="#974CCD"/></g><g id="Group 6"><path id="Fill 4" fill-rule="evenodd" clip-rule="evenodd" d="M17.2172 1.00162C20.8762 1.00061 24.5342 1.00061 28.1932 0.9996C31.8152 0.9996 35.5072 1.00968 38.9522 2.13517C42.3982 3.26066 45.6202 5.70728 46.7502 9.17652C47.5902 11.7583 47.1762 14.4762 47.3512 17.1346C47.5122 19.5913 48.2762 22.0238 48.7102 24.4593C49.6722 29.8468 51.1282 35.1444 53.0582 40.2625C54.5402 44.1917 56.3992 48.15 59.5922 50.8528C61.7622 52.6883 64.6322 54.081 65.5282 56.7909C65.6322 57.1055 65.6922 57.4877 65.4752 57.7368C64.3392 59.0378 60.3672 58.9995 58.8972 58.9995C50.1492 58.8008 41.4012 58.6021 32.6532 58.4035C29.8152 58.3389 26.9492 58.2713 24.2002 57.5593C20.0812 56.4934 13.5929 56.9002 10.0689 54.5C9.00793 53.7769 7.93194 53.0407 7.10694 52.0544C3.90093 48.2221 6.48824 40.6932 6.39524 35.8877C6.24224 27.9709 6.09024 20.0401 6.71024 12.1476C6.87024 10.1104 7.08924 8.047 7.83024 6.14497C8.57124 4.24193 9.90224 2.49218 11.7582 1.67126C13.2492 1.01372 14.9312 1.00162 16.5582 1.00162H17.2172Z" fill="#771F98"/></g><path id="Fill 7" fill-rule="evenodd" clip-rule="evenodd" d="M15.8533 58.1061C9.37029 58.1061 2.42629 54.5571 1.43129 48.1511C0.100286 39.5841 -0.228714 31.2871 0.142286 23.6731C0.563286 15.0621 4.67429 7.0511 11.4443 1.7131C11.4443 1.7131 15.5323 19.5291 10.3913 44.1181C7.36216 60.7936 30.9297 53.1944 43.5384 55.4198C50.1999 56.5955 50.4533 59 50.4533 59L15.8533 58.1061Z" fill="#A12BB6"/></g></g></g><g id="Master/Character/Sitting" transform="translate(51 6) scale(1 1)"><g id="Master/Character/Sitting"><g id="Lower Body/Sitting" transform="translate(32 113) scale(1 1)"><g id="Lower Body/Sitting/Crossed"><g id="Group 87"><path id="Fill 1" fill-rule="evenodd" clip-rule="evenodd" d="M85.6831 104.701L86.1127 102.791L87 98.8457L78.937 97L78.6057 101.072L78.4504 102.973L78 108.513L84.4894 110L85.6831 104.701Z" fill="#ccccff"/><path id="Fill 2" fill-rule="evenodd" clip-rule="evenodd" d="M100.813 89.9915L99.6174 86L92 88.1297L93.7219 91.9741L94.5257 93.7694L96.8691 99L103 97.2863L101.392 91.9237L100.813 89.9915Z" fill="#ccccff"/><g id="Group 13"><path id="Fill 3" fill-rule="evenodd" clip-rule="evenodd" d="M77.1499 103.846C77.1499 103.846 77.08 86.6706 77.4836 81.0158C77.7275 77.5756 78.2416 74.1492 78.7379 70.7407C78.9506 69.2748 80.7124 63.1521 79.5337 62.1649C78.6207 61.4003 49.9416 62.8288 45.5024 62C45.2489 61.9527 29.1484 33 29.1484 33H47.0546C47.0546 33 60.8453 40.8066 63.0816 41.3042C83.843 45.9224 89.6172 52.1173 90.7789 53.2538C92.2732 54.7118 92.6986 58.2757 92.4982 62.8009C91.8951 76.4044 85.6199 105.629 85.6199 105.629L77.1499 103.846Z" fill="#5736AE"/><path id="Fill 5" fill-rule="evenodd" clip-rule="evenodd" d="M96.0576 123L73.4435 118.24C73.3377 117.885 73.3329 117.412 73.3991 116.863C73.643 114.832 74.8661 111.766 75.5523 109.815C75.6345 109.586 75.7073 109.375 75.7697 109.18C75.8755 108.852 75.9559 108.577 75.9956 108.372C76.3113 106.728 77.6478 107.302 77.6478 107.302C79.4843 110.132 82.7519 107.156 84.0431 108.63C84.0431 108.63 84.096 108.689 84.2122 108.833C84.32 108.964 84.4807 109.167 84.7038 109.459C85.0242 109.876 85.4713 110.48 86.0715 111.323C87.5413 113.391 90.3797 115.15 92.7616 116.836C93.065 117.049 93.3439 117.259 93.6019 117.463C93.7976 117.619 93.9809 117.771 94.153 117.921C96.0472 119.569 96.5028 120.858 96.4952 121.725C96.4895 122.557 96.0576 123 96.0576 123" fill="#FF67FF"/><path id="Fill 7" fill-rule="evenodd" clip-rule="evenodd" d="M94.1537 117.921C93.4779 118.283 91.9958 118.981 90.957 118.764C90.9116 118.754 90.8653 118.742 90.8218 118.728C90.1006 118.51 87.6724 116.557 85.7215 114.835C84.6033 113.847 83.5929 112.894 82.8774 112.15C81.7034 110.932 81.5371 110.525 81.5314 110.267C81.5125 109.292 83.1137 108.951 84.213 108.833C84.3207 108.963 84.4823 109.166 84.7045 109.458C83.349 109.555 82.1827 109.907 82.1694 110.244C82.2422 110.548 83.3746 111.897 86.2225 114.404C88.3955 116.317 90.4939 117.935 90.9995 118.087C91.6839 118.293 92.8342 117.846 93.6026 117.463C93.7992 117.618 93.9817 117.772 94.1537 117.921" fill="#432C82"/><path id="Fill 9" fill-rule="evenodd" clip-rule="evenodd" d="M96.0575 123L73.4444 118.24C73.3376 117.885 73.3329 117.412 73.399 116.863L96.4961 121.725C96.4885 122.556 96.0575 123 96.0575 123" fill="#7E4DCD"/><path id="Fill 11" fill-rule="evenodd" clip-rule="evenodd" d="M75.7512 118.726L75.0801 118.584C75.9043 117.923 76.7673 116.826 77.0234 115.051C77.3637 112.69 76.3259 110.832 75.5527 109.814C75.634 109.587 75.7077 109.373 75.7701 109.18C76.6189 110.194 77.9734 112.309 77.5669 115.136C77.3231 116.831 76.5555 117.973 75.7512 118.726" fill="#432C82"/></g><g id="Group 59"><g id="Group 16"><mask id="mask0_723_2415154ea3deb-7b07-4d5e-8ab8-e2a5c336f430" style="mask-type:luminance" maskUnits="userSpaceOnUse" x="28" y="33" width="65" height="74" fill="#ffffff"><path id="Clip 15" fill-rule="evenodd" clip-rule="evenodd" d="M40.6437 33.521C34.7061 33.5308 29.1038 33.7716 28.9117 34.6339V34.6339C27.3997 41.4251 26.9899 50.7482 41.5283 58.0416V58.0416C44.3214 59.4417 47.3086 60.3386 50.3522 60.9463V60.9463C55.02 61.8768 59.7678 62.2596 64.4667 63.0124V63.0124C67.5772 63.5117 71.2314 63.3065 74.1517 63.1012V63.1012C76.8506 62.9128 78.923 62.7233 79.3592 63.0894V63.0894C80.5349 64.0741 78.7799 70.1815 78.567 71.6428V71.6428C78.0724 75.0448 77.5599 78.4617 77.3169 81.8923V81.8923C76.9156 87.535 76.9834 104.668 76.9834 104.668V104.668L85.4259 106.445C85.4259 106.445 91.68 77.2934 92.281 63.7238V63.7238C92.4817 59.2108 92.0568 55.6558 90.5675 54.2005V54.2005C89.4097 53.0668 87.6406 46.8873 66.9499 42.2796V42.2796C64.721 41.7843 54.728 33.8002 54.728 33.8002V33.8002C54.728 33.8002 48.0424 33.5318 41.4746 33.521V33.521" fill="#ffffff"/></mask><g mask="url(#mask0_723_2415154ea3deb-7b07-4d5e-8ab8-e2a5c336f430)"><path id="Fill 14" fill-rule="evenodd" clip-rule="evenodd" d="M97.5558 103.599C94.042 103.429 89.8283 100.163 88.8335 96.9583C88.6159 96.2587 88.4379 95.5039 89.037 94.9465C89.785 94.2499 90.6846 94.4541 91.4119 94.9425C93.7792 96.5311 95.9298 98.459 98.689 99.4003C99.9005 99.8137 100.455 101.076 100.013 102.38C99.6028 103.588 98.413 103.54 97.5558 103.599" fill="#FED21C"/></g></g><g id="Group 19"><mask id="mask1_723_2415154ea3deb-7b07-4d5e-8ab8-e2a5c336f430" style="mask-type:luminance" maskUnits="userSpaceOnUse" x="28" y="33" width="65" height="74" fill="#ffffff"><path id="Clip 18" fill-rule="evenodd" clip-rule="evenodd" d="M40.6437 33.521C34.7061 33.5308 29.1038 33.7716 28.9117 34.6339V34.6339C27.3997 41.4251 26.9899 50.7482 41.5283 58.0416V58.0416C44.3214 59.4417 47.3086 60.3386 50.3522 60.9463V60.9463C55.02 61.8768 59.7678 62.2596 64.4667 63.0124V63.0124C67.5772 63.5117 71.2314 63.3065 74.1517 63.1012V63.1012C76.8506 62.9128 78.923 62.7233 79.3592 63.0894V63.0894C80.5349 64.0741 78.7799 70.1815 78.567 71.6428V71.6428C78.0724 75.0448 77.5599 78.4617 77.3169 81.8923V81.8923C76.9156 87.535 76.9834 104.668 76.9834 104.668V104.668L85.4259 106.445C85.4259 106.445 91.68 77.2934 92.281 63.7238V63.7238C92.4817 59.2108 92.0568 55.6558 90.5675 54.2005V54.2005C89.4097 53.0668 87.6406 46.8873 66.9499 42.2796V42.2796C64.721 41.7843 54.728 33.8002 54.728 33.8002V33.8002C54.728 33.8002 48.0424 33.5318 41.4746 33.521V33.521" fill="#ffffff"/></mask><g mask="url(#mask1_723_2415154ea3deb-7b07-4d5e-8ab8-e2a5c336f430)"><path id="Fill 17" fill-rule="evenodd" clip-rule="evenodd" d="M90.5004 71.6755C90.961 69.4643 92.6934 68.4816 94.7546 68.3208C97.3772 68.1166 99.0267 69.5748 99.656 72.2931C99.9273 73.4672 99.8557 74.6098 99.5335 75.7277C99.3178 76.4776 98.8449 77.1317 98.0036 77.0844C96.7168 77.0123 96.3259 75.9556 96.0254 74.8654C95.5836 73.2581 94.8478 72.5072 93.2756 73.6754C92.765 74.0553 92.116 74.0553 91.531 73.6971C90.8772 73.2975 90.4862 72.7292 90.5004 71.6755" fill="#C664E9"/></g></g><g id="Group 25"><mask id="mask2_723_2415154ea3deb-7b07-4d5e-8ab8-e2a5c336f430" style="mask-type:luminance" maskUnits="userSpaceOnUse" x="28" y="33" width="65" height="74" fill="#ffffff"><path id="Clip 24" fill-rule="evenodd" clip-rule="evenodd" d="M40.6437 33.521C34.7061 33.5308 29.1038 33.7716 28.9117 34.6339V34.6339C27.3997 41.4251 26.9899 50.7482 41.5283 58.0416V58.0416C44.3214 59.4417 47.3086 60.3386 50.3522 60.9463V60.9463C55.02 61.8768 59.7678 62.2596 64.4667 63.0124V63.0124C67.5772 63.5117 71.2314 63.3065 74.1517 63.1012V63.1012C76.8506 62.9128 78.923 62.7233 79.3592 63.0894V63.0894C80.5349 64.0741 78.7799 70.1815 78.567 71.6428V71.6428C78.0724 75.0448 77.5599 78.4617 77.3169 81.8923V81.8923C76.9156 87.535 76.9834 104.668 76.9834 104.668V104.668L85.4259 106.445C85.4259 106.445 91.68 77.2934 92.281 63.7238V63.7238C92.4817 59.2108 92.0568 55.6558 90.5675 54.2005V54.2005C89.4097 53.0668 87.6406 46.8873 66.9499 42.2796V42.2796C64.721 41.7843 54.728 33.8002 54.728 33.8002V33.8002C54.728 33.8002 48.0424 33.5318 41.4746 33.521V33.521" fill="#ffffff"/></mask><g mask="url(#mask2_723_2415154ea3deb-7b07-4d5e-8ab8-e2a5c336f430)"><path id="Fill 23" fill-rule="evenodd" clip-rule="evenodd" d="M94.1151 82.7081C93.4811 82.5285 92.4995 82.2986 91.5509 81.9661C90.8933 81.7362 90.4713 81.1639 90.6381 80.4279C90.8048 79.6938 91.4991 79.5567 92.1133 79.5083C93.677 79.386 95.2644 79.5695 96.7009 78.5907C97.5262 78.0303 98.4249 78.2779 99.1304 78.9844C99.6184 79.4718 99.6382 80.1477 99.3584 80.7239C98.7612 81.9562 97.5949 82.3233 96.4174 82.562C95.7862 82.6883 95.1259 82.6508 94.1151 82.7081" fill="#FF67FF"/></g></g><g id="Group 28"><mask id="mask3_723_2415154ea3deb-7b07-4d5e-8ab8-e2a5c336f430" style="mask-type:luminance" maskUnits="userSpaceOnUse" x="28" y="33" width="65" height="74" fill="#ffffff"><path id="Clip 27" fill-rule="evenodd" clip-rule="evenodd" d="M40.6437 33.521C34.7061 33.5308 29.1038 33.7716 28.9117 34.6339V34.6339C27.3997 41.4251 26.9899 50.7482 41.5283 58.0416V58.0416C44.3214 59.4417 47.3086 60.3386 50.3522 60.9463V60.9463C55.02 61.8768 59.7678 62.2596 64.4667 63.0124V63.0124C67.5772 63.5117 71.2314 63.3065 74.1517 63.1012V63.1012C76.8506 62.9128 78.923 62.7233 79.3592 63.0894V63.0894C80.5349 64.0741 78.7799 70.1815 78.567 71.6428V71.6428C78.0724 75.0448 77.5599 78.4617 77.3169 81.8923V81.8923C76.9156 87.535 76.9834 104.668 76.9834 104.668V104.668L85.4259 106.445C85.4259 106.445 91.68 77.2934 92.281 63.7238V63.7238C92.4817 59.2108 92.0568 55.6558 90.5675 54.2005V54.2005C89.4097 53.0668 87.6406 46.8873 66.9499 42.2796V42.2796C64.721 41.7843 54.728 33.8002 54.728 33.8002V33.8002C54.728 33.8002 48.0424 33.5318 41.4746 33.521V33.521" fill="#ffffff"/></mask><g mask="url(#mask3_723_2415154ea3deb-7b07-4d5e-8ab8-e2a5c336f430)"><path id="Fill 26" fill-rule="evenodd" clip-rule="evenodd" d="M90.7832 88.522C91.0536 88.2329 91.3117 87.7139 91.6772 87.6113C92.6324 87.3449 93.1524 88.1727 93.5273 88.8565C94.5183 90.6641 95.4001 92.5368 96.3054 94.3946C96.5673 94.9304 96.8631 95.5194 96.2988 96.0503C95.6356 96.6758 95.0431 96.1233 94.5278 95.8006C91.9692 94.2032 91.388 91.4593 90.7832 88.522" fill="#FF67FF"/></g></g><g id="Group 31"><mask id="mask4_723_2415154ea3deb-7b07-4d5e-8ab8-e2a5c336f430" style="mask-type:luminance" maskUnits="userSpaceOnUse" x="28" y="33" width="65" height="74" fill="#ffffff"><path id="Clip 30" fill-rule="evenodd" clip-rule="evenodd" d="M40.6437 33.521C34.7061 33.5308 29.1038 33.7716 28.9117 34.6339V34.6339C27.3997 41.4251 26.9899 50.7482 41.5283 58.0416V58.0416C44.3214 59.4417 47.3086 60.3386 50.3522 60.9463V60.9463C55.02 61.8768 59.7678 62.2596 64.4667 63.0124V63.0124C67.5772 63.5117 71.2314 63.3065 74.1517 63.1012V63.1012C76.8506 62.9128 78.923 62.7233 79.3592 63.0894V63.0894C80.5349 64.0741 78.7799 70.1815 78.567 71.6428V71.6428C78.0724 75.0448 77.5599 78.4617 77.3169 81.8923V81.8923C76.9156 87.535 76.9834 104.668 76.9834 104.668V104.668L85.4259 106.445C85.4259 106.445 91.68 77.2934 92.281 63.7238V63.7238C92.4817 59.2108 92.0568 55.6558 90.5675 54.2005V54.2005C89.4097 53.0668 87.6406 46.8873 66.9499 42.2796V42.2796C64.721 41.7843 54.728 33.8002 54.728 33.8002V33.8002C54.728 33.8002 48.0424 33.5318 41.4746 33.521V33.521" fill="#ffffff"/></mask><g mask="url(#mask4_723_2415154ea3deb-7b07-4d5e-8ab8-e2a5c336f430)"><path id="Fill 29" fill-rule="evenodd" clip-rule="evenodd" d="M92.6899 83.3632C95.8467 83.5033 97.7524 85.5595 97.4434 88.263C97.3737 88.8767 97.157 89.3582 96.5353 89.5151C95.9333 89.667 95.5292 89.3661 95.2381 88.8471C94.3714 87.3 93.5434 85.8082 91.3635 86.3795C90.6966 86.5531 89.8751 86.0835 90.0061 85.0573C90.2463 83.1886 91.7281 83.5467 92.6899 83.3632" fill="#C2F5FF"/></g></g><g id="Group 34"><mask id="mask5_723_2415154ea3deb-7b07-4d5e-8ab8-e2a5c336f430" style="mask-type:luminance" maskUnits="userSpaceOnUse" x="28" y="33" width="65" height="74" fill="#ffffff"><path id="Clip 33" fill-rule="evenodd" clip-rule="evenodd" d="M40.6437 33.521C34.7061 33.5308 29.1038 33.7716 28.9117 34.6339V34.6339C27.3997 41.4251 26.9899 50.7482 41.5283 58.0416V58.0416C44.3214 59.4417 47.3086 60.3386 50.3522 60.9463V60.9463C55.02 61.8768 59.7678 62.2596 64.4667 63.0124V63.0124C67.5772 63.5117 71.2314 63.3065 74.1517 63.1012V63.1012C76.8506 62.9128 78.923 62.7233 79.3592 63.0894V63.0894C80.5349 64.0741 78.7799 70.1815 78.567 71.6428V71.6428C78.0724 75.0448 77.5599 78.4617 77.3169 81.8923V81.8923C76.9156 87.535 76.9834 104.668 76.9834 104.668V104.668L85.4259 106.445C85.4259 106.445 91.68 77.2934 92.281 63.7238V63.7238C92.4817 59.2108 92.0568 55.6558 90.5675 54.2005V54.2005C89.4097 53.0668 87.6406 46.8873 66.9499 42.2796V42.2796C64.721 41.7843 54.728 33.8002 54.728 33.8002V33.8002C54.728 33.8002 48.0424 33.5318 41.4746 33.521V33.521" fill="#ffffff"/></mask><g mask="url(#mask5_723_2415154ea3deb-7b07-4d5e-8ab8-e2a5c336f430)"><path id="Fill 32" fill-rule="evenodd" clip-rule="evenodd" d="M85.4355 89.633C85.5947 89.037 85.4412 88.376 86.2796 88.2674C89.5023 87.8521 90.563 89.6863 90.5291 92.6828C90.5244 93.0952 90.2955 93.2619 89.8998 93.4474C85.8453 95.3478 85.8679 92.2102 85.4355 89.633" fill="#26B6E3"/></g></g><g id="Group 37"><mask id="mask6_723_2415154ea3deb-7b07-4d5e-8ab8-e2a5c336f430" style="mask-type:luminance" maskUnits="userSpaceOnUse" x="28" y="33" width="65" height="74" fill="#ffffff"><path id="Clip 36" fill-rule="evenodd" clip-rule="evenodd" d="M40.6437 33.521C34.7061 33.5308 29.1038 33.7716 28.9117 34.6339V34.6339C27.3997 41.4251 26.9899 50.7482 41.5283 58.0416V58.0416C44.3214 59.4417 47.3086 60.3386 50.3522 60.9463V60.9463C55.02 61.8768 59.7678 62.2596 64.4667 63.0124V63.0124C67.5772 63.5117 71.2314 63.3065 74.1517 63.1012V63.1012C76.8506 62.9128 78.923 62.7233 79.3592 63.0894V63.0894C80.5349 64.0741 78.7799 70.1815 78.567 71.6428V71.6428C78.0724 75.0448 77.5599 78.4617 77.3169 81.8923V81.8923C76.9156 87.535 76.9834 104.668 76.9834 104.668V104.668L85.4259 106.445C85.4259 106.445 91.68 77.2934 92.281 63.7238V63.7238C92.4817 59.2108 92.0568 55.6558 90.5675 54.2005V54.2005C89.4097 53.0668 87.6406 46.8873 66.9499 42.2796V42.2796C64.721 41.7843 54.728 33.8002 54.728 33.8002V33.8002C54.728 33.8002 48.0424 33.5318 41.4746 33.521V33.521" fill="#ffffff"/></mask><g mask="url(#mask6_723_2415154ea3deb-7b07-4d5e-8ab8-e2a5c336f430)"><path id="Fill 35" fill-rule="evenodd" clip-rule="evenodd" d="M95.3226 76.9268C95.2887 77.9806 94.7348 78.3496 93.9378 78.3219C92.7612 78.2795 92.0528 77.5592 92.083 76.3575C92.1074 75.3432 92.7574 74.6367 93.7899 74.7571C95.0353 74.9002 95.2746 75.9312 95.3226 76.9268" fill="#C2F5FF"/></g></g><g id="Group 46"><mask id="mask7_723_2415154ea3deb-7b07-4d5e-8ab8-e2a5c336f430" style="mask-type:luminance" maskUnits="userSpaceOnUse" x="28" y="33" width="65" height="74" fill="#ffffff"><path id="Clip 45" fill-rule="evenodd" clip-rule="evenodd" d="M40.6437 33.521C34.7061 33.5308 29.1038 33.7716 28.9117 34.6339V34.6339C27.3997 41.4251 26.9899 50.7482 41.5283 58.0416V58.0416C44.3214 59.4417 47.3086 60.3386 50.3522 60.9463V60.9463C55.02 61.8768 59.7678 62.2596 64.4667 63.0124V63.0124C67.5772 63.5117 71.2314 63.3065 74.1517 63.1012V63.1012C76.8506 62.9128 78.923 62.7233 79.3592 63.0894V63.0894C80.5349 64.0741 78.7799 70.1815 78.567 71.6428V71.6428C78.0724 75.0448 77.5599 78.4617 77.3169 81.8923V81.8923C76.9156 87.535 76.9834 104.668 76.9834 104.668V104.668L85.4259 106.445C85.4259 106.445 91.68 77.2934 92.281 63.7238V63.7238C92.4817 59.2108 92.0568 55.6558 90.5675 54.2005V54.2005C89.4097 53.0668 87.6406 46.8873 66.9499 42.2796V42.2796C64.721 41.7843 54.728 33.8002 54.728 33.8002V33.8002C54.728 33.8002 48.0424 33.5318 41.4746 33.521V33.521" fill="#ffffff"/></mask><g mask="url(#mask7_723_2415154ea3deb-7b07-4d5e-8ab8-e2a5c336f430)"><path id="Fill 44" fill-rule="evenodd" clip-rule="evenodd" d="M88.0925 98.6489C87.159 100.924 88.4138 103.015 89.1533 105.22C89.4632 106.146 88.9432 106.885 88.2706 107.423C87.7214 107.864 87.045 107.798 86.4751 107.468C85.8025 107.075 85.8948 106.389 85.9249 105.67C85.9494 105.093 85.7799 104.395 85.4586 103.934C84.5411 102.623 84.5571 101.404 85.3738 100.065C85.5773 99.7332 85.5604 99.1905 85.5076 98.7623C85.388 97.7845 84.3668 96.417 85.8543 96.0322C87.3276 95.6504 87.6083 97.2655 88.0925 98.6489" fill="#F28DFD"/></g></g><g id="Group 49"><path id="Fill 47" fill-rule="evenodd" clip-rule="evenodd" d="M84.3959 95.3429C83.3503 95.4278 83.0517 94.7332 82.9254 93.9517C82.7841 93.0706 83.3729 92.5546 84.054 92.4125C84.736 92.2704 85.3022 92.7352 85.3804 93.5077C85.4661 94.3533 85.2061 95.0736 84.3959 95.3429" fill="#FF67FF"/></g><g id="Group 52"><path id="Fill 50" fill-rule="evenodd" clip-rule="evenodd" d="M82.2862 86.8465C82.5801 87.6891 82.8373 88.5119 83.7595 88.953C82.8731 89.3812 82.5321 90.1577 82.2099 91.0704C81.8642 90.1972 81.4356 89.5193 80.6367 89.0684C81.5891 88.6047 81.933 87.7345 82.2862 86.8465" fill="#FF67FF"/></g><g id="Group 55"><path id="Fill 53" fill-rule="evenodd" clip-rule="evenodd" d="M81.4644 103.23C80.8935 101.793 80.1389 100.833 79.0801 100.046C80.3952 99.2543 81.0301 97.9982 81.5595 96.3258C82.0635 97.8828 82.4573 99.1852 83.9061 99.8611C82.559 100.56 82.007 101.712 81.4644 103.23" fill="#FED21C"/></g><g id="Group 58"><path id="Fill 56" fill-rule="evenodd" clip-rule="evenodd" d="M80.9322 93.2463C80.8804 93.2463 80.8277 93.2453 80.7758 93.2463C79.9506 93.2571 79.9064 93.3291 80.2332 94.1017C80.3246 94.3178 80.4103 94.5378 80.481 94.7608C80.5366 94.9344 80.5856 95.1495 80.3689 95.2275C80.1711 95.2995 80.1098 95.0943 80.0467 94.9502C79.9167 94.6523 79.8018 94.3474 79.6708 94.0504C79.538 93.7524 79.3675 93.7287 79.1716 93.9961C78.9606 94.2842 78.7514 94.5753 78.4698 94.7963C78.3812 94.8674 78.2964 94.9295 78.1956 94.8368C78.1052 94.7539 78.0939 94.6365 78.1579 94.5408C78.336 94.2714 78.531 94.0159 78.7119 93.7504C78.9634 93.3775 78.8946 93.2117 78.4594 93.1387C78.2192 93.0983 77.9761 93.0756 77.735 93.04C77.6295 93.0243 77.5174 92.9887 77.5258 92.8496C77.5343 92.7164 77.6483 92.67 77.7519 92.6651C78.0816 92.6503 78.4114 92.6523 78.742 92.6483C79.0303 92.6434 79.1113 92.4855 79.0124 92.2201C78.9116 91.9498 78.791 91.6873 78.6855 91.418C78.6139 91.2354 78.4914 90.9986 78.7241 90.8911C78.9737 90.7756 79.0208 91.0786 79.1075 91.2305C79.23 91.4486 79.3157 91.6903 79.4108 91.9241C79.5644 92.301 79.7471 92.4313 80.0213 92.0258C80.2012 91.7584 80.3896 91.4989 80.5818 91.2414C80.6967 91.0874 80.8192 90.8635 81.0387 91.0361C81.2346 91.19 81.1423 91.3884 81.0114 91.561C80.839 91.788 80.659 92.0119 80.5045 92.2517C80.3133 92.5497 80.4 92.7283 80.7466 92.748C80.9897 92.7628 81.2337 92.7559 81.4739 92.7855C81.6029 92.8013 81.7782 92.825 81.7612 93.0282C81.7461 93.2088 81.5992 93.2512 81.4532 93.2591C81.2798 93.267 81.1065 93.2611 80.9322 93.2611V93.2463Z" fill="#FED21C"/></g></g><g id="Group 73"><g id="Group 62"><mask id="mask8_723_2415154ea3deb-7b07-4d5e-8ab8-e2a5c336f430" style="mask-type:luminance" maskUnits="userSpaceOnUse" x="95" y="96" width="25" height="14" fill="#ffffff"><path id="Clip 61" fill-rule="evenodd" clip-rule="evenodd" d="M95.1289 96.1988H119.556V109.807H95.1289V96.1988Z" fill="#ffffff"/></mask><g mask="url(#mask8_723_2415154ea3deb-7b07-4d5e-8ab8-e2a5c336f430)"><path id="Fill 60" fill-rule="evenodd" clip-rule="evenodd" d="M119.502 103.46L97.1647 109.807C96.917 109.54 96.7092 109.12 96.5327 108.6C95.8761 106.676 95.654 103.371 95.4301 101.311C95.4054 101.069 95.3798 100.846 95.3523 100.645C95.3058 100.302 95.2593 100.02 95.2071 99.8174C94.782 98.2048 96.2281 98.0914 96.2281 98.0914C99.0947 99.7533 100.745 95.5714 102.538 96.2805C102.538 96.2805 102.61 96.3082 102.777 96.3812C102.929 96.4482 103.162 96.5528 103.487 96.7086C103.955 96.9315 104.615 97.2599 105.517 97.7304C107.726 98.8854 111.03 99.1241 113.891 99.5097C114.256 99.559 114.597 99.6152 114.916 99.6764C115.158 99.7227 115.389 99.773 115.607 99.8253C118.016 100.407 118.979 101.343 119.346 102.119C119.698 102.863 119.502 103.46 119.502 103.46" fill="#FF67FF"/></g></g><path id="Fill 63" fill-rule="evenodd" clip-rule="evenodd" d="M115.606 99.8257C115.156 100.465 114.127 101.781 113.1 102.073C113.056 102.085 113.01 102.098 112.965 102.106C112.224 102.248 109.203 101.645 106.713 101.023C105.285 100.667 103.968 100.291 103.005 99.9638C101.428 99.4272 101.104 99.1432 100.988 98.9154C100.551 98.0543 101.841 97.0019 102.777 96.3815C102.928 96.4476 103.161 96.5532 103.486 96.709C102.312 97.429 101.417 98.2891 101.551 98.5968C101.746 98.8325 103.343 99.5052 106.977 100.406C109.75 101.092 112.329 101.552 112.848 101.451C113.55 101.314 114.39 100.376 114.915 99.6768C115.158 99.7231 115.388 99.7725 115.606 99.8257" fill="#3B2D7E"/><g id="Group 67"><mask id="mask9_723_2415154ea3deb-7b07-4d5e-8ab8-e2a5c336f430" style="mask-type:luminance" maskUnits="userSpaceOnUse" x="96" y="102" width="24" height="8" fill="#ffffff"><path id="Clip 66" fill-rule="evenodd" clip-rule="evenodd" d="M96.5312 102.119H119.555V109.807H96.5312V102.119Z" fill="#ffffff"/></mask><g mask="url(#mask9_723_2415154ea3deb-7b07-4d5e-8ab8-e2a5c336f430)"><path id="Fill 65" fill-rule="evenodd" clip-rule="evenodd" d="M119.501 103.46L97.1642 109.807C96.9155 109.539 96.7087 109.12 96.5312 108.6L119.345 102.119C119.697 102.863 119.501 103.46 119.501 103.46" fill="#7E4DCD"/></g></g><path id="Fill 68" fill-rule="evenodd" clip-rule="evenodd" d="M98.7799 109.347C99.2353 108.373 99.538 106.99 99.0038 105.289C98.2921 103.025 96.5614 101.855 95.4294 101.311C95.4047 101.07 95.3781 100.845 95.3516 100.643C96.55 101.15 98.6745 102.399 99.5276 105.11C100.038 106.736 99.8417 108.112 99.4441 109.159L98.7799 109.347Z" fill="#3B2D7E"/><g id="Group 72"><path id="Fill 70" fill-rule="evenodd" clip-rule="evenodd" d="M94.1596 95.9786C94.1596 95.9786 86.8381 79.9729 84.7648 74.7436C82.6915 69.5162 78.9804 56.7781 78.9804 56.7781C78.9804 56.7781 66.6607 61.1031 53.1257 62C30.1223 63.5244 28.1732 62.881 26.976 55.9721C25.9994 50.3368 28.1613 40.1106 28.1613 40.1106L46.2545 38.6006C46.2545 38.6006 71.8126 41.5131 79.6256 42.6621C81.5063 42.9383 83.2124 43.3111 84.7429 43.7786C86.7119 44.3803 88.6276 47.355 90.3954 51.4826C95.7091 63.8874 102.526 93.6017 102.526 93.6017L94.1596 95.9786Z" fill="#7E4DCD"/></g></g><g id="Group 86"><g id="Group 76"><mask id="mask10_723_2415154ea3deb-7b07-4d5e-8ab8-e2a5c336f430" style="mask-type:luminance" maskUnits="userSpaceOnUse" x="28" y="38" width="75" height="58" fill="#ffffff"><path id="Clip 75" fill-rule="evenodd" clip-rule="evenodd" d="M28.1614 40.1037C28.1614 40.1037 28.0085 41.2165 28 42.9713V42.9713V43.2751C28.0361 50.9478 30.9203 69.4891 58.7396 63.9555V63.9555C72.981 61.1223 79.0066 56.7163 79.0066 56.7163V56.7163C79.0066 56.7163 82.7206 69.4124 84.7949 74.6216V74.6216C86.8684 79.8337 94.1937 95.7877 94.1937 95.7877V95.7877L102.564 93.4185C102.564 93.4185 95.7449 63.8021 90.4285 51.4383V51.4383C88.6598 47.3242 86.743 44.3594 84.7731 43.7607V43.7607C83.2418 43.2927 81.5339 42.9212 79.6532 42.6469V42.6469C71.8361 41.5026 46.2649 38.5987 46.2649 38.5987V38.5987" fill="#ffffff"/></mask><g mask="url(#mask10_723_2415154ea3deb-7b07-4d5e-8ab8-e2a5c336f430)"><path id="Fill 74" fill-rule="evenodd" clip-rule="evenodd" d="M89.1511 75.8262C89.7113 74.9307 89.9154 74.0302 90.9018 74.6112C91.609 75.028 92.1768 75.7083 91.6897 76.48C91.2473 77.1818 90.3644 77.8297 89.5214 77.4502C88.7097 77.0855 88.8397 76.2273 89.1511 75.8262" fill="#FED21C"/></g></g><g id="Group 79"><mask id="mask11_723_2415154ea3deb-7b07-4d5e-8ab8-e2a5c336f430" style="mask-type:luminance" maskUnits="userSpaceOnUse" x="28" y="38" width="75" height="58" fill="#ffffff"><path id="Clip 78" fill-rule="evenodd" clip-rule="evenodd" d="M28.1614 40.1037C28.1614 40.1037 28.0085 41.2165 28 42.9713V42.9713V43.2751C28.0361 50.9478 30.9203 69.4891 58.7396 63.9555V63.9555C72.981 61.1223 79.0066 56.7163 79.0066 56.7163V56.7163C79.0066 56.7163 82.7206 69.4124 84.7949 74.6216V74.6216C86.8684 79.8337 94.1937 95.7877 94.1937 95.7877V95.7877L102.564 93.4185C102.564 93.4185 95.7449 63.8021 90.4285 51.4383V51.4383C88.6598 47.3242 86.743 44.3594 84.7731 43.7607V43.7607C83.2418 43.2927 81.5339 42.9212 79.6532 42.6469V42.6469C71.8361 41.5026 46.2649 38.5987 46.2649 38.5987V38.5987" fill="#ffffff"/></mask><g mask="url(#mask11_723_2415154ea3deb-7b07-4d5e-8ab8-e2a5c336f430)"><path id="Fill 77" fill-rule="evenodd" clip-rule="evenodd" d="M89.9834 80.4621C89.4479 81.4068 88.7273 81.2652 88.0381 80.929C87.2615 80.5496 87.1932 79.7504 87.4723 79.0868C87.7533 78.4213 88.4473 78.2021 89.1014 78.5746C89.8191 78.9836 90.2378 79.6157 89.9834 80.4621" fill="#F28DFD"/></g></g><g id="Group 82"><mask id="mask12_723_2415154ea3deb-7b07-4d5e-8ab8-e2a5c336f430" style="mask-type:luminance" maskUnits="userSpaceOnUse" x="28" y="38" width="75" height="58" fill="#ffffff"><path id="Clip 81" fill-rule="evenodd" clip-rule="evenodd" d="M28.1614 40.1037C28.1614 40.1037 28.0085 41.2165 28 42.9713V42.9713V43.2751C28.0361 50.9478 30.9203 69.4891 58.7396 63.9555V63.9555C72.981 61.1223 79.0066 56.7163 79.0066 56.7163V56.7163C79.0066 56.7163 82.7206 69.4124 84.7949 74.6216V74.6216C86.8684 79.8337 94.1937 95.7877 94.1937 95.7877V95.7877L102.564 93.4185C102.564 93.4185 95.7449 63.8021 90.4285 51.4383V51.4383C88.6598 47.3242 86.743 44.3594 84.7731 43.7607V43.7607C83.2418 43.2927 81.5339 42.9212 79.6532 42.6469V42.6469C71.8361 41.5026 46.2649 38.5987 46.2649 38.5987V38.5987L28.1614 40.1037Z" fill="#ffffff"/></mask><g mask="url(#mask12_723_2415154ea3deb-7b07-4d5e-8ab8-e2a5c336f430)"><path id="Fill 80" fill-rule="evenodd" clip-rule="evenodd" d="M97.3681 72.3836C97.2789 72.3836 97.1897 72.3826 97.1004 72.3836C95.6887 72.4023 95.6137 72.5232 96.1729 73.8306C96.3286 74.1953 96.4757 74.5669 96.5972 74.9444C96.6903 75.2384 96.7748 75.6011 96.4045 75.7348C96.0666 75.8557 95.9621 75.5097 95.8529 75.2649C95.6308 74.7606 95.4343 74.2465 95.2102 73.7441C94.9833 73.2388 94.6919 73.1995 94.3567 73.6507C93.995 74.1383 93.6371 74.6299 93.1558 75.0064C93.0039 75.1253 92.8586 75.2305 92.6859 75.0732C92.5311 74.9336 92.5121 74.735 92.6213 74.5719C92.926 74.1187 93.2602 73.6851 93.5688 73.2349C94.0007 72.6058 93.883 72.3246 93.1368 72.2007C92.7267 72.1329 92.3109 72.0955 91.8988 72.0356C91.7175 72.009 91.5267 71.9481 91.5419 71.7112C91.5552 71.488 91.7507 71.4094 91.9273 71.4015C92.4912 71.3779 93.0561 71.3799 93.621 71.371C94.1156 71.3642 94.2523 71.0958 94.0843 70.6485C93.9105 70.1914 93.7055 69.7461 93.5241 69.2909C93.4007 68.9822 93.1928 68.5821 93.5906 68.4003C94.0169 68.2056 94.0985 68.7168 94.2457 68.9744C94.4564 69.342 94.6017 69.751 94.765 70.1471C95.0279 70.7851 95.3403 71.0053 95.8102 70.3182C96.1178 69.867 96.4397 69.4275 96.7681 68.993C96.9647 68.7315 97.1754 68.3531 97.5504 68.645C97.8846 68.9065 97.727 69.2427 97.5039 69.5337C97.2086 69.9171 96.902 70.2956 96.6362 70.7026C96.3086 71.2059 96.4577 71.5057 97.051 71.5421C97.4659 71.5657 97.8836 71.5549 98.2957 71.604C98.515 71.6306 98.815 71.6709 98.7855 72.0149C98.7599 72.3197 98.5083 72.3924 98.2596 72.4042C97.9624 72.419 97.6653 72.4072 97.3681 72.4072V72.3836Z" fill="#FED21C"/></g></g><g id="Group 85"><mask id="mask13_723_2415154ea3deb-7b07-4d5e-8ab8-e2a5c336f430" style="mask-type:luminance" maskUnits="userSpaceOnUse" x="28" y="38" width="75" height="58" fill="#ffffff"><path id="Clip 84" fill-rule="evenodd" clip-rule="evenodd" d="M30.7242 40.2616C30.7242 40.2616 28.0085 41.2165 28 42.9713V43.2751C28.0361 50.9478 30.9203 69.4891 58.7396 63.9555C72.981 61.1223 79.0066 56.7163 79.0066 56.7163C79.0066 56.7163 82.7206 69.4124 84.7949 74.6216C86.8684 79.8337 94.1937 95.7877 94.1937 95.7877L102.564 93.4185C102.564 93.4185 95.7449 63.8021 90.4285 51.4383C88.6598 47.3242 86.743 44.3594 84.7731 43.7607C83.2418 43.2927 81.5339 42.9212 79.6532 42.6469C71.8361 41.5026 46.2649 38.5987 46.2649 38.5987L30.7242 40.2616Z" fill="#ffffff"/></mask><g mask="url(#mask13_723_2415154ea3deb-7b07-4d5e-8ab8-e2a5c336f430)"><path id="Fill 83" fill-rule="evenodd" clip-rule="evenodd" d="M88.9727 83.9632C89.4065 83.7588 89.8746 83.7843 90.3274 83.7519C91.6821 83.6536 93.0388 83.5769 94.3945 83.4855C94.5673 83.4737 94.8084 83.5739 94.8825 83.3282C94.9442 83.1217 94.7553 82.9812 94.6366 82.8367C93.7252 81.7307 92.81 80.6268 91.8967 79.5218C91.7334 79.3242 91.572 79.1247 91.3537 78.8582C91.8682 78.7629 92.191 79.0195 92.5138 79.1915C93.6151 79.7813 94.7087 80.3879 95.7891 81.017C96.2068 81.2598 96.392 81.2254 96.5116 80.7034C96.879 79.1001 97.3394 77.5233 97.8606 75.9661C97.9204 75.7872 97.9432 75.5857 98.1483 75.4952C98.3942 75.6358 98.2897 75.8826 98.2983 76.0801C98.3771 77.7749 98.3401 79.4736 98.4796 81.1674C98.5271 81.7553 98.6856 81.8015 99.1594 81.5862C100.595 80.9335 102.042 80.3092 103.49 79.6889C103.784 79.5631 104.076 79.3901 104.587 79.4569C104.052 79.9258 103.615 80.322 103.164 80.7015C102.182 81.5262 101.205 82.3589 100.204 83.1571C99.7632 83.5091 99.7821 83.688 100.282 83.9455C101.665 84.6592 103.028 85.4142 104.399 86.1535C104.582 86.2518 104.795 86.3088 104.933 86.5772C104.638 86.7128 104.351 86.6558 104.064 86.6165C102.67 86.4277 101.273 86.2695 99.8856 86.0375C99.3008 85.9401 99.1518 86.1043 99.1584 86.6951C99.1765 88.5374 99.1451 90.3806 99.1299 92.2228C99.128 92.4047 99.1945 92.6111 98.9714 92.7792C98.6363 92.3447 98.5223 91.8188 98.3685 91.3351C97.9689 90.0709 97.6128 88.789 97.2863 87.5032C97.1306 86.8868 96.9312 86.933 96.5761 87.3272C95.4255 88.6003 94.2663 89.8655 93.109 91.1326C93.017 91.2339 92.9125 91.3233 92.7701 91.4619C92.5736 90.7571 93.0122 90.2764 93.203 89.7642C93.6217 88.6426 94.1306 87.5524 94.6603 86.4798C94.8967 86.0001 94.7894 85.8645 94.3318 85.7396C92.7265 85.3002 91.1287 84.8322 89.5309 84.3614C89.3277 84.3024 89.0429 84.3279 88.9727 83.9632" fill="#FF67FF"/></g></g></g></g><path id="Path 2" fill-rule="evenodd" clip-rule="evenodd" d="M28 41.0551L29.1483 32.8026L50.2122 33L60 41.0551L44.7149 42L28 41.0551Z" fill="#7E4DCD"/></g></g><g id="Head" transform="translate(33 40) scale(1 1)"><g id="Head/Messy"><g id="Group 30"><path id="Fill 1" fill-rule="evenodd" clip-rule="evenodd" d="M35.9321 51.7277V51.7297C35.9331 51.7297 35.9341 51.7307 35.9351 51.7307L35.9321 51.7277Z" fill="#432C82"/><g id="Group 5"><mask id="mask0_723_166168bc3a4ae-d737-4300-b711-ed10d5355bb8" style="mask-type:luminance" maskUnits="userSpaceOnUse" x="21" y="28" width="35" height="30" fill="#ffffff"><path id="Clip 4" fill-rule="evenodd" clip-rule="evenodd" d="M21 28.9865H55.8924V57.2977H21V28.9865Z" fill="#ffffff"/></mask><g mask="url(#mask0_723_166168bc3a4ae-d737-4300-b711-ed10d5355bb8)"><path id="Fill 3" fill-rule="evenodd" clip-rule="evenodd" d="M23.6524 52.1799C23.7124 52.2839 23.7674 52.3899 23.8124 52.4989C23.9384 52.6599 24.1934 52.7369 24.2474 52.9459C24.4044 52.9389 24.4994 53.0289 24.5964 53.1089C25.5894 53.9259 26.8744 54.2669 28.1734 54.5429C29.1844 54.7579 29.2064 54.7069 29.2934 55.5809C29.3324 55.9759 29.5654 56.1639 30.0484 56.1879C31.1864 56.2429 32.1224 55.8819 32.9444 55.2669C33.0544 55.1849 33.1874 55.0129 33.3194 55.1269C33.5554 55.3329 33.9004 55.3799 34.1244 55.6299C36.3914 58.1529 41.7794 57.5179 44.3274 55.6809C44.6634 55.4389 45.0284 55.1559 45.4734 55.1729C45.7904 55.1859 46.0634 55.3529 46.3484 55.4699C46.9474 55.7159 47.6694 55.7479 48.2974 55.5569C48.5884 55.4669 48.8574 55.3329 49.1484 55.2419C49.5504 55.1149 49.9664 55.2069 50.3764 55.2319C50.8024 55.2579 51.0294 55.1279 51.4284 55.0159C51.6224 54.9609 51.8574 54.9759 51.9874 55.1289C52.0504 55.2029 52.0834 55.3029 52.1594 55.3629C52.2354 55.4209 52.3384 55.4289 52.4344 55.4249C52.9844 55.4029 53.0494 55.0709 53.4754 54.8779C53.4844 55.0939 53.4664 55.2779 53.2744 55.4239C53.4424 55.8829 53.6644 55.9959 54.1634 55.8379C54.6004 55.6999 54.9574 55.4859 55.2324 55.1419C55.7424 54.5069 55.8864 53.7949 55.8924 53.0749C55.9024 51.8679 55.4614 50.7899 55.1664 49.6469C54.8574 48.4489 54.5324 47.2529 54.3004 46.0359C54.0604 44.7769 54.2384 43.5479 54.2104 42.2769C54.1934 41.4759 54.1004 40.6759 53.9354 39.8909C53.7344 38.9409 53.4264 38.0129 53.0144 37.1319C51.8584 34.6659 49.8884 32.5889 47.4864 31.3049C46.4874 30.7709 45.4224 30.3709 44.3484 30.0089C43.3764 29.6819 42.3924 29.3809 41.3824 29.1969C36.3844 28.2829 31.7784 30.4339 28.3424 33.9509C27.5974 34.7139 27.0814 35.6309 26.4764 36.4859C26.0084 37.1459 25.4924 37.7899 25.1194 38.4869C24.4524 39.7299 23.7934 40.9779 23.2254 42.2569C22.6084 43.6469 21.9774 45.0299 21.5714 46.4739C21.3964 47.0969 21.3304 47.7369 21.1984 48.3649C20.9674 49.4609 20.8844 50.5549 21.2474 51.6209C21.3984 52.0649 21.6144 52.4779 21.9834 52.7769C22.1364 52.9019 22.7384 53.2869 22.9354 53.1419C23.0924 53.0259 22.9454 52.6509 22.9294 52.4909C22.8854 52.0449 22.8934 51.5999 23.0824 51.1849C23.4444 52.0879 24.0934 53.0929 25.0554 53.4119C25.0334 53.3889 25.0114 53.3659 24.9894 53.3429" fill="#432C82"/></g></g><path id="Fill 6" fill-rule="evenodd" clip-rule="evenodd" d="M48.6694 47.0315H48.6684V47.0325L48.6694 47.0315" fill="#432C82"/><path id="Fill 3" fill-rule="evenodd" clip-rule="evenodd" d="M43.8892 53.8614L43.6872 61.5304C43.6212 64.2234 41.9272 65.6234 39.2772 65.5384C37.0142 65.4654 34.9272 64.2284 34.7192 61.9744L35.6172 49.9214L43.8892 53.8614Z" fill="#ccccff"/><path id="Fill 6_2" fill-rule="evenodd" clip-rule="evenodd" d="M43.7642 57.6016C38.3972 57.607 34.9902 50.6016 34.9902 50.6016L43.9252 52.6084L43.7642 57.6016Z" fill="#00023C" fill-opacity="0.18"/><path id="Fill 19" fill-rule="evenodd" clip-rule="evenodd" d="M40.2323 53.9339V53.9339C44.6523 54.6529 48.8593 51.7529 49.5683 48.1629L51.1893 39.6829C52.0763 35.1839 49.8033 30.8819 45.3363 29.8459C40.7623 28.7869 34.8253 31.3589 33.7653 35.9319L32.5363 42.7669C31.5853 48.0529 35.0003 52.7209 40.2323 53.9339" fill="#ccccff"/><path id="Fill 23" fill-rule="evenodd" clip-rule="evenodd" d="M56.5456 40.0695C55.9866 40.1355 55.4886 39.9855 55.0026 39.7545C54.8656 39.6885 54.6796 39.6115 54.6896 39.4455C54.6996 39.2595 54.9046 39.3315 55.0266 39.2985C55.9946 39.0455 56.6166 37.9935 56.2666 37.1505C55.7766 35.9735 55.0916 34.9615 53.8806 34.3955C53.5106 34.2225 53.3036 33.9485 53.4806 33.4835C53.8436 32.5295 53.7816 31.5565 53.5036 30.5955C53.2896 29.8585 52.8556 29.2815 52.0556 29.1535C51.3166 29.0345 50.6596 29.2805 50.1886 29.8805C49.9706 30.1575 49.7256 30.4175 49.6306 30.7955C49.5546 31.0975 49.3496 31.2585 49.0686 30.8865C47.1706 28.3685 43.2416 27.5925 40.3066 28.5075C40.5686 28.0825 40.7766 27.6755 40.8466 27.2075C41.0106 26.1195 40.9366 25.1025 39.9786 24.3695C39.3326 23.8745 38.5936 23.7925 37.7946 23.8825C36.8266 23.9905 36.0306 24.3795 35.3666 25.0835C34.8306 25.6525 34.4416 26.3185 34.0776 26.9975C33.8936 27.3405 32.5226 26.4915 32.1306 26.3695C31.2306 26.0875 30.2706 26.1715 29.3796 26.4535C27.9906 26.8925 27.5486 28.7855 28.2716 29.9905C28.8656 30.9805 29.7526 31.5825 30.7736 32.0265C31.3856 32.2935 31.4146 32.3025 30.9116 32.7725C28.8906 34.6585 27.7696 37.5905 29.1786 40.1805C29.4516 40.6835 29.8186 41.1535 30.3156 41.4375C30.9006 41.7725 31.6046 41.8185 32.2366 42.0545C33.0666 42.3655 33.3856 42.9375 33.9626 43.5265C34.7426 44.3235 35.4636 42.2345 35.8596 41.6155C36.7126 40.2835 37.5666 38.9505 38.4196 37.6185C38.4696 37.5395 38.5216 37.4585 38.5946 37.3985C38.8526 37.1845 39.2616 37.3225 39.4876 37.5685C39.7146 37.8155 39.8286 38.1435 40.0196 38.4195C40.4666 39.0685 41.2676 39.3545 42.0166 39.6025C42.3226 39.7045 42.6396 39.8065 42.9606 39.7755C44.0456 39.6685 43.4066 38.3075 43.7986 37.6035C43.8716 37.4715 43.8826 37.2885 44.0726 37.2665C44.3016 37.2405 44.3486 37.4385 44.4176 37.5905C44.7486 38.3195 44.9776 39.0905 45.3156 39.8205C45.6266 40.4905 46.0246 41.3815 46.6956 41.7645C47.5406 42.2495 48.3146 41.5875 49.1186 42.4395C49.7036 43.0595 49.7226 44.0105 50.3566 44.6175C50.9916 45.2245 51.8606 45.1885 52.6266 44.7505C53.2006 44.4225 53.6936 43.8185 53.8696 43.1745C53.9416 42.9075 54.1186 41.2665 53.9386 41.1485C54.0996 41.2545 54.1976 41.3125 54.2896 41.3805C55.1136 41.9895 56.5126 41.6415 56.9576 40.7155C57.1886 40.2365 57.0586 40.0075 56.5456 40.0695" fill="#432C82"/><path id="Fill 15" fill-rule="evenodd" clip-rule="evenodd" d="M27.92 43.3332C27.485 45.2092 28.653 47.0812 30.528 47.5162C32.403 47.9502 34.275 46.7822 34.71 44.9072C35.145 43.0322 33.977 41.1602 32.102 40.7262C30.227 40.2912 28.354 41.4582 27.92 43.3332" fill="#ccccff"/><path id="Fill 17" fill-rule="evenodd" clip-rule="evenodd" d="M32.268 45.4045C32.268 45.4045 32.838 42.9435 30.395 42.7855Z" fill="#00023C" fill-opacity="0.18"/><path id="Fill 25" fill-rule="evenodd" clip-rule="evenodd" d="M48.6694 51.8527H48.6684V51.8537L48.6694 51.8527" fill="#432C82"/></g></g></g><g id="Expression" transform="translate(64 76) scale(1 1)"><g id="Expression/Smile 3"><g id="Group 30"><path id="Fill 3" fill-rule="evenodd" clip-rule="evenodd" d="M13.3265 12.4095L8.89755 11.0845C8.89755 11.0845 8.65355 14.1695 10.4315 14.6225C11.9795 15.0175 13.3265 12.4095 13.3265 12.4095" fill="#2A0952"/></g><path id="Fill 1" fill-rule="evenodd" clip-rule="evenodd" d="M12.505 9.06441C12.576 9.21041 12.652 9.35341 12.722 9.50041C12.744 9.54541 12.765 9.59241 12.786 9.63941C12.792 9.65241 12.831 9.74441 12.8 9.67141C12.809 9.69241 12.817 9.71241 12.826 9.73341C12.863 9.82841 12.898 9.92341 12.922 10.0224C12.928 10.0434 12.933 10.0654 12.938 10.0864C12.94 10.0964 12.953 10.1744 12.944 10.1194C12.937 10.0644 12.945 10.1354 12.945 10.1454C12.946 10.1634 12.943 10.1814 12.945 10.1994C12.947 10.2154 12.966 10.1224 12.946 10.1824C12.926 10.2454 12.966 10.1474 12.957 10.1664C12.926 10.2194 13.026 10.1004 12.961 10.1624C12.937 10.1844 12.915 10.2084 12.891 10.2294C12.876 10.2424 12.877 10.2414 12.896 10.2264C12.881 10.2374 12.866 10.2484 12.851 10.2574C12.824 10.2754 12.796 10.2924 12.767 10.3064C12.758 10.3114 12.674 10.3514 12.723 10.3304C12.693 10.3424 12.662 10.3544 12.63 10.3644C12.5 10.4094 12.365 10.4374 12.231 10.4614C12.081 10.4904 11.982 10.6794 12.027 10.8204C12.079 10.9804 12.225 11.0524 12.385 11.0234C12.711 10.9624 13.034 10.8674 13.292 10.6494C13.394 10.5624 13.48 10.4584 13.51 10.3254C13.538 10.2024 13.526 10.0824 13.504 9.95941C13.428 9.53841 13.192 9.15141 13.007 8.77141C12.94 8.63341 12.734 8.58541 12.609 8.66741C12.468 8.75741 12.433 8.91841 12.505 9.06441" fill="#00023C" fill-opacity="0.18"/><path id="Fill 3_2" fill-rule="evenodd" clip-rule="evenodd" d="M9.92512 6.7206C9.92512 6.7206 10.1811 7.8506 9.34512 7.5746C8.50812 7.2986 5.59912 6.4156 5.59912 6.4156C5.59912 6.4156 7.08012 4.0376 9.92512 6.7206" fill="#EFF2F9"/><path id="Fill 5" fill-rule="evenodd" clip-rule="evenodd" d="M10.2311 6.40421C10.2191 6.37421 10.2101 6.34221 10.1961 6.31121C9.42105 4.62621 7.11305 4.56421 5.69905 5.39621C5.58805 5.46221 5.46005 5.53021 5.33505 5.49721C5.24805 5.47321 5.18005 5.40521 5.11705 5.33921C4.90405 5.11421 4.62305 4.64421 4.25505 4.75221C4.06405 4.80821 4.03605 4.88121 4.00405 5.01921C3.95005 5.25321 4.45105 5.54921 4.58605 5.67421C4.86105 5.92721 5.12505 6.17721 5.44905 6.38021C5.49405 6.40721 5.54105 6.43421 5.59205 6.44221C5.67905 6.45421 5.76205 6.40921 5.83205 6.35721C6.21905 6.07121 6.44405 5.73421 6.92805 5.56521C7.18105 5.47621 7.53805 5.41621 7.78605 5.54721C7.69905 5.98921 7.29005 6.48721 7.06805 6.88821L9.60105 7.67321C9.60105 7.67321 10.5821 7.19921 10.2311 6.40421" fill="#2A0952"/><path id="Fill 7" fill-rule="evenodd" clip-rule="evenodd" d="M17.6476 8.44912L13.5806 8.04912C13.5806 8.04912 15.1466 5.96112 16.7216 6.58712C18.2966 7.21212 17.6476 8.44912 17.6476 8.44912" fill="#EFF2F9"/><path id="Fill 9" fill-rule="evenodd" clip-rule="evenodd" d="M19.2513 6.64827C19.0823 6.55827 18.9233 6.61727 18.7823 6.72427C18.5483 6.90227 18.2513 7.24927 17.9743 7.03527C17.7183 6.83627 17.5823 6.57427 17.2693 6.41327C16.7153 6.12727 16.0433 6.02527 15.4253 6.07327C14.5523 6.13927 13.6223 6.54127 13.2403 7.37827C13.1663 7.54227 13.1483 7.74127 13.2393 7.89627C13.3303 8.05027 13.5483 8.13127 13.7003 8.03727C13.7673 7.99627 13.8133 7.92927 13.8563 7.86427C14.3023 7.20727 15.2733 6.40727 16.1303 6.77927C16.0013 7.26527 15.5853 7.77127 15.3503 8.22227L17.6473 8.44927C17.6473 8.44927 18.0463 8.19227 18.0823 7.78227C18.1313 7.75527 18.1803 7.73227 18.2313 7.72127C18.4753 7.42827 18.8903 7.44027 19.1623 7.19827C19.2513 7.11127 19.3403 7.02427 19.4293 6.93627C19.4263 6.80527 19.4143 6.73527 19.2513 6.64827" fill="#2A0952"/><path id="Fill 14" fill-rule="evenodd" clip-rule="evenodd" d="M8.70975 4.16199C9.45375 4.06199 9.44575 2.96199 8.70275 2.84999C8.05675 2.75399 7.23275 2.75499 6.74675 3.23499C5.85575 4.11299 7.88975 4.25299 8.68675 4.16499C8.69375 4.16399 8.70175 4.16399 8.70975 4.16199" fill="#2A0952"/><path id="Fill 16" fill-rule="evenodd" clip-rule="evenodd" d="M16.236 5.10833C15.654 4.87133 15.893 3.98033 16.518 4.04633C17.063 4.10433 17.73 4.27933 18.024 4.77033C18.56 5.67033 16.882 5.35433 16.255 5.11633C16.249 5.11333 16.242 5.11133 16.236 5.10833" fill="#2A0952"/><path id="Fill 18" fill-rule="evenodd" clip-rule="evenodd" d="M8.28715 10.0898C8.02715 10.4538 7.61815 10.7068 7.18015 10.8118C6.67415 10.9318 6.13715 10.8668 5.64815 10.6918C5.32815 10.5758 5.01815 10.4078 4.79515 10.1518C4.40915 9.7098 4.38315 8.8958 4.51215 8.3468C4.58915 8.0178 4.78015 7.7028 5.07415 7.5358C5.50615 7.2908 5.97615 7.2728 6.45015 7.3598C6.86915 7.4378 7.29315 7.5268 7.66715 7.7308C8.41215 8.1388 8.81015 9.1358 8.39615 9.9138C8.36415 9.9758 8.32715 10.0338 8.28715 10.0898" fill="#FF37B8" fill-opacity="0.5"/><path id="Fill 20" fill-rule="evenodd" clip-rule="evenodd" d="M5.19178 9.43738C5.14078 9.43738 5.08878 9.42138 5.04478 9.38938C4.93278 9.30738 4.90878 9.15138 4.98978 9.04038L5.64678 8.14038C5.72878 8.02938 5.88578 8.00538 5.99578 8.08538C6.10778 8.16738 6.13178 8.32438 6.05078 8.43538L5.39378 9.33438C5.34478 9.40238 5.26878 9.43738 5.19178 9.43738" fill="#FFD0F6"/><path id="Fill 22" fill-rule="evenodd" clip-rule="evenodd" d="M7.09498 10.1884H7.08098C6.94298 10.1804 6.83798 10.0624 6.84498 9.92442L6.90798 8.81242C6.91498 8.67442 7.02698 8.58842 7.17098 8.57642C7.30898 8.58442 7.41398 8.70242 7.40698 8.83942L7.34498 9.95242C7.33698 10.0854 7.22698 10.1884 7.09498 10.1884" fill="#FFD0F6"/><path id="Fill 24" fill-rule="evenodd" clip-rule="evenodd" d="M5.97134 9.90709C5.93234 9.90709 5.89334 9.89809 5.85734 9.88009C5.73434 9.81609 5.68534 9.66609 5.74934 9.54309L6.32934 8.41309C6.39134 8.29009 6.54333 8.24209 6.66533 8.30409C6.78834 8.36809 6.83733 8.51809 6.77333 8.64109L6.19334 9.77109C6.14934 9.85709 6.06134 9.90709 5.97134 9.90709" fill="#FFD0F6"/><path id="Fill 26" fill-rule="evenodd" clip-rule="evenodd" d="M14.9899 11.2167C15.2079 11.5227 15.5509 11.7347 15.9179 11.8207C16.3409 11.9217 16.7909 11.8677 17.2009 11.7207C17.4689 11.6237 17.7289 11.4847 17.9159 11.2697C18.2389 10.8987 18.2609 10.2167 18.1529 9.75667C18.0879 9.48067 17.9279 9.21767 17.6819 9.07767C17.3199 8.87167 16.9259 8.85667 16.5289 8.92967C16.1779 8.99467 15.8229 9.06967 15.5099 9.23967C14.8849 9.58167 14.5519 10.4167 14.8989 11.0697C14.9259 11.1207 14.9559 11.1697 14.9899 11.2167" fill="#FF37B8" fill-opacity="0.5"/><path id="Fill 28" fill-rule="evenodd" clip-rule="evenodd" d="M17.5839 10.7108C17.5069 10.7108 17.4309 10.6758 17.3819 10.6078L16.8319 9.85482C16.7499 9.74282 16.7739 9.58682 16.8859 9.50482C16.9959 9.42482 17.1529 9.44582 17.2349 9.55982L17.7859 10.3138C17.8669 10.4248 17.8429 10.5808 17.7309 10.6628C17.6869 10.6948 17.6349 10.7108 17.5839 10.7108" fill="#FFD0F6"/><path id="Fill 30" fill-rule="evenodd" clip-rule="evenodd" d="M15.9889 11.3398C15.8569 11.3398 15.7469 11.2368 15.7389 11.1038L15.6869 10.1718C15.6789 10.0338 15.7849 9.91578 15.9229 9.90778C16.0789 9.92178 16.1789 10.0068 16.1859 10.1448L16.2389 11.0758C16.2459 11.2138 16.1409 11.3318 16.0029 11.3398H15.9889Z" fill="#FFD0F6"/><path id="Fill 32" fill-rule="evenodd" clip-rule="evenodd" d="M16.9298 11.1044C16.8398 11.1044 16.7518 11.0544 16.7078 10.9684L16.2218 10.0224C16.1588 9.89939 16.2068 9.74939 16.3298 9.68539C16.4538 9.62439 16.6038 9.67139 16.6658 9.79339L17.1518 10.7404C17.2158 10.8634 17.1668 11.0134 17.0438 11.0774C17.0078 11.0954 16.9688 11.1044 16.9298 11.1044" fill="#FFD0F6"/></g></g><g id="Upper Body" transform="translate(7 41) scale(1 1)"><g id="Upper Body/Cheers 2"><g id="Group 67"><g id="Group 3"><mask id="mask0_723_24850ea3bcec2-be11-4b90-aae4-a05a030cfb00" style="mask-type:luminance" maskUnits="userSpaceOnUse" x="98" y="51" width="13" height="19" fill="#ffffff"><path id="Clip 2" fill-rule="evenodd" clip-rule="evenodd" d="M98.9121 51.0001H110.445V69.0584H98.9121V51.0001Z" fill="#ffffff"/></mask><g mask="url(#mask0_723_24850ea3bcec2-be11-4b90-aae4-a05a030cfb00)"><path id="Fill 1" fill-rule="evenodd" clip-rule="evenodd" d="M109.709 54.2234C110.448 55.8104 110.138 60.8204 110.364 62.2784C110.586 63.7304 110.331 65.0964 109.856 66.3604C109.381 67.6324 109.66 68.4624 109.66 68.4624L105.093 69.0584C105.093 69.0584 104.056 68.8734 102.497 65.8464C100.932 62.8224 98.3487 57.6864 99.0217 57.0054C99.6757 56.3494 102.385 59.3444 102.939 59.9994L102.99 60.0634C103.021 60.1014 103.037 60.0804 103.049 60.0074C103.147 59.1684 101.85 51.3604 102.782 51.0374C103.066 50.9444 103.686 51.0284 104.438 51.2364C104.49 51.2494 104.542 51.2644 104.597 51.2844C105.15 51.4444 105.769 51.6644 106.378 51.9234C106.434 51.9434 106.484 51.9654 106.539 51.9944C107.144 52.2564 107.74 52.5594 108.251 52.8734C108.304 52.9114 108.354 52.9424 108.404 52.9744C109.037 53.3824 109.522 53.8144 109.709 54.2234" fill="#ccccff"/></g></g><path id="Fill 4" fill-rule="evenodd" clip-rule="evenodd" d="M106.418 63.3523C106.417 63.3533 106.416 63.3543 106.414 63.3553C106.379 63.3793 106.331 63.3723 106.305 63.3363C105.195 61.7773 102.97 60.1423 102.947 60.1253C102.913 60.1003 102.905 60.0513 102.931 60.0173C102.955 59.9833 103.004 59.9753 103.039 59.9993C103.062 60.0163 105.307 61.6663 106.433 63.2473C106.457 63.2803 106.45 63.3273 106.418 63.3523" fill="#9387BE"/><path id="Fill 6" fill-rule="evenodd" clip-rule="evenodd" d="M104.596 51.2839L104.981 58.7569C104.978 58.7829 104.971 58.8049 104.952 58.8199C104.938 58.8319 104.924 58.8349 104.902 58.8369C104.862 58.8369 104.83 58.8069 104.825 58.7629L104.437 51.2359C104.489 51.2499 104.541 51.2639 104.596 51.2839" fill="#9387BE"/><path id="Fill 8" fill-rule="evenodd" clip-rule="evenodd" d="M106.538 51.994L106.7 58.479C106.702 58.501 106.69 58.526 106.671 58.542C106.662 58.55 106.643 58.556 106.63 58.559C106.581 58.559 106.549 58.529 106.545 58.484L106.377 51.924C106.433 51.943 106.483 51.966 106.538 51.994" fill="#9387BE"/><path id="Fill 10" fill-rule="evenodd" clip-rule="evenodd" d="M108.405 52.9744L108.557 58.6754C108.554 58.7024 108.543 58.7274 108.529 58.7394C108.514 58.7504 108.495 58.7574 108.478 58.7554C108.438 58.7554 108.397 58.7244 108.402 58.6814L108.252 52.8734C108.305 52.9114 108.355 52.9424 108.405 52.9744" fill="#9387BE"/><path id="Fill 12" fill-rule="evenodd" clip-rule="evenodd" d="M100.703 72.5583C100.703 72.5583 107.216 73.9953 111.719 78.3203L103.313 76.3193L100.703 72.5583Z" fill="#C4B8EE"/><path id="Fill 14" fill-rule="evenodd" clip-rule="evenodd" d="M108.993 80.2751C110.124 80.0401 110.039 79.8351 109.949 78.5801C109.806 76.6171 109.667 74.6541 109.526 72.6911C109.359 70.3701 110.241 64.5151 107.023 63.9941C103.514 63.4241 103.463 70.4401 102.889 72.8671C102.649 73.8861 102.408 74.9051 102.168 75.9231C101.979 76.7241 101.366 78.0481 101.466 78.8561C101.648 80.3251 104.197 80.6231 105.43 80.6591C106.553 80.6921 107.665 80.5271 108.765 80.3201C108.846 80.3041 108.922 80.2901 108.993 80.2751" fill="#ccccff"/><path id="Fill 16" fill-rule="evenodd" clip-rule="evenodd" d="M80.1705 83.9909L78.3312 109C78.3312 109 74.1184 109.999 66.7189 109.996C60.8384 109.994 54.9578 109.36 52.7913 109.1C52.2907 109.04 51.9237 108.613 51.9288 108.108L52.1705 83.9909H80.1705Z" fill="#ccccff"/><path id="Fill 18" fill-rule="evenodd" clip-rule="evenodd" d="M61.5359 54.2839L58.6289 55.1629L59.9609 98.7049C59.9609 98.7049 77.1989 98.3999 77.1989 98.7049C77.1989 98.8489 79.0019 79.4279 77.3239 72.0659C75.4769 63.9619 72.0589 55.4219 72.0589 55.4219L70.2709 55.1499C69.8929 57.4149 65.4049 59.9609 61.5359 54.2839" fill="#F376DA"/><path id="Fill 20" fill-rule="evenodd" clip-rule="evenodd" d="M78.0572 76.4245C78.0992 76.7885 78.1382 77.1505 78.1702 77.5065H60.2812L60.2012 76.4245H78.0572Z" fill="#EFF2F9"/><path id="Fill 22" fill-rule="evenodd" clip-rule="evenodd" d="M77.0758 71.0212C77.1608 71.3692 77.2438 71.7172 77.3238 72.0662C77.3258 72.0792 77.3288 72.0902 77.3308 72.1032H59.8808L59.8008 71.0212H77.0758Z" fill="#EFF2F9"/><path id="Fill 24" fill-rule="evenodd" clip-rule="evenodd" d="M60.5996 81.8269H78.3866C78.3906 82.2049 78.3896 82.5649 78.3866 82.9089H60.6796L60.5996 81.8269Z" fill="#EFF2F9"/><path id="Fill 26" fill-rule="evenodd" clip-rule="evenodd" d="M73.742 60.2156C73.867 60.5606 73.997 60.9216 74.13 61.2966H59.082L59.002 60.2156H73.742Z" fill="#EFF2F9"/><path id="Fill 28" fill-rule="evenodd" clip-rule="evenodd" d="M75.5683 65.6179C75.6793 65.9739 75.7893 66.3349 75.8983 66.6999H59.4823L59.4023 65.6179H75.5683Z" fill="#EFF2F9"/><path id="Fill 30" fill-rule="evenodd" clip-rule="evenodd" d="M78.147 87.2302C78.189 87.5942 78.227 87.9572 78.26 88.3122H60.37L60.291 87.2302H78.147Z" fill="#EFF2F9"/><path id="Fill 32" fill-rule="evenodd" clip-rule="evenodd" d="M60.6895 92.6335H78.4765C78.4805 93.0105 78.4805 93.3715 78.4765 93.7145H60.7695L60.6895 92.6335Z" fill="#EFF2F9"/><path id="Fill 34" fill-rule="evenodd" clip-rule="evenodd" d="M60.6895 95.6335H78.4765C78.4805 96.0105 78.4805 96.3715 78.4765 96.7145H60.7695L60.6895 95.6335Z" fill="#EFF2F9"/><path id="Stroke 36 (Stroke)" fill-rule="evenodd" clip-rule="evenodd" d="M60.416 104.352V100.447H60.557V104.352H60.416Z" fill="#2A0952"/><path id="Stroke 38 (Stroke)" fill-rule="evenodd" clip-rule="evenodd" d="M58.8594 104.352V100.447H59.0004V104.352H58.8594Z" fill="#2A0952"/><path id="Fill 40" fill-rule="evenodd" clip-rule="evenodd" d="M60.9094 54.4734C60.9094 54.4734 52.7794 56.6504 49.6014 59.3554C46.4234 62.0594 39.3334 78.0354 36.7554 84.7785C33.0704 94.4124 31.0754 109.389 44.1924 107.09C57.3094 104.791 59.4014 104.116 59.4014 104.116V97.5574L64.2744 95.4604L64.9504 75.0415L60.9094 54.4734Z" fill="#432C82"/><path id="Fill 42" fill-rule="evenodd" clip-rule="evenodd" d="M61.8235 90.4577C61.8235 90.4577 63.9375 96.7827 62.5385 102.868L59.9375 94.6287L61.8235 90.4577Z" fill="#C4B8EE"/><path id="Fill 44" fill-rule="evenodd" clip-rule="evenodd" d="M70.3926 55.1628C78.1056 55.9288 81.5496 61.8558 84.2426 65.2368C86.9356 68.6178 97.0196 81.8038 97.0196 81.8038L97.0026 82.0518L97.7566 82.9018C97.7566 82.9018 99.1566 79.3088 101.374 73.7648L110.773 78.1948C110.098 82.4548 109.355 87.1578 109.014 89.3918C108.31 94.0008 106.435 103.46 98.3836 103.46C96.3046 103.46 81.2486 88.1618 81.2486 88.1618L81.3226 101.559H74.1296L74.6526 74.9668L70.3926 55.1628Z" fill="#432C82"/><path id="Fill 46" fill-rule="evenodd" clip-rule="evenodd" d="M87.2266 79.8034L87.0036 96.3654C86.9996 96.6724 84.8236 96.9944 82.1436 97.0864C79.4646 97.1784 77.2716 97.0054 77.2466 96.6994L75.8926 80.1914L87.2266 79.8034Z" fill="#FCFCFC"/><path id="Fill 48" fill-rule="evenodd" clip-rule="evenodd" d="M77.3695 83.2068C78.1255 83.0448 77.9595 83.3238 79.1215 83.0458C80.2845 82.7668 80.6495 83.1738 81.5225 82.9968C82.3955 82.8208 82.9345 83.1838 83.7805 83.0598C84.6255 82.9358 85.0455 83.2278 85.6845 83.0598C86.0545 82.9628 86.3645 82.9658 86.5635 82.9848L86.3955 95.4408C86.3925 95.7128 84.4735 95.9968 82.1105 96.0778C79.7465 96.1588 77.8135 96.0068 77.7915 95.7358L76.7695 83.2848C76.9765 83.2708 77.1835 83.2468 77.3695 83.2068" fill="#FFD73D"/><path id="Fill 50" fill-rule="evenodd" clip-rule="evenodd" d="M79.1215 83.0456C80.2845 82.7666 80.6495 83.1736 81.5225 82.9966C82.3955 82.8206 82.9345 83.1836 83.7805 83.0596C84.6255 82.9366 85.0455 83.2286 85.6845 83.0596C86.0545 82.9626 86.3645 82.9656 86.5635 82.9846L86.5265 85.7586C86.3935 85.7466 86.1475 85.7456 85.7205 85.8126C84.9915 85.9256 84.4705 86.1556 83.4995 86.0246C82.5295 85.8926 81.7765 86.1356 81.2495 86.1616C80.7235 86.1886 80.1615 86.0426 79.5785 86.1016C78.9945 86.1596 78.5585 86.2756 78.1475 86.2686C77.9075 86.2646 77.3945 86.2436 77.0115 86.2276L76.7695 83.2846C76.9765 83.2716 77.1845 83.2466 77.3695 83.2066C78.1255 83.0446 77.9595 83.3236 79.1215 83.0456" fill="#FFE283"/><path id="Fill 52" fill-rule="evenodd" clip-rule="evenodd" d="M78.7133 89.2673C78.7253 89.6083 79.0103 89.8743 79.3513 89.8633C79.6923 89.8513 79.9593 89.5663 79.9473 89.2253C79.9363 88.8843 79.6503 88.6173 79.3093 88.6283C78.9683 88.6403 78.7013 88.9263 78.7133 89.2673" fill="#FCFCFC"/><path id="Fill 54" fill-rule="evenodd" clip-rule="evenodd" d="M80.3471 90.6101C80.3501 90.7151 80.4381 90.7971 80.5431 90.7941C80.6491 90.7911 80.7311 90.7031 80.7271 90.5971C80.7231 90.4921 80.6361 90.4101 80.5311 90.4141C80.4261 90.4181 80.3431 90.5061 80.3471 90.6101" fill="#FCFCFC"/><path id="Fill 56" fill-rule="evenodd" clip-rule="evenodd" d="M82.1783 91.9245C82.1953 92.4175 82.6083 92.8035 83.1013 92.7865C83.5943 92.7695 83.9803 92.3565 83.9633 91.8635C83.9463 91.3705 83.5323 90.9855 83.0403 91.0015C82.5473 91.0185 82.1613 91.4315 82.1783 91.9245" fill="#FCFCFC"/><path id="Fill 58" fill-rule="evenodd" clip-rule="evenodd" d="M80.9858 93.8992C80.9918 94.0852 81.1478 94.2302 81.3338 94.2242C81.5198 94.2172 81.6648 94.0622 81.6588 93.8762C81.6528 93.6902 81.4968 93.5452 81.3108 93.5502C81.1248 93.5572 80.9798 93.7132 80.9858 93.8992" fill="#FCFCFC"/><path id="Fill 60" fill-rule="evenodd" clip-rule="evenodd" d="M58.2287 92.6247C58.2217 91.5087 58.4327 91.5467 59.6367 91.3787C61.5197 91.1137 63.4027 90.8477 65.2857 90.5827C67.3537 90.2907 69.4217 89.9997 71.4907 89.7087C71.4907 89.7087 76.7917 85.8177 78.9237 85.4127C81.0547 85.0077 84.6217 84.7647 84.6217 85.4127C84.6217 86.0617 79.5957 87.0337 79.5957 87.0337C80.9127 86.9447 82.2527 86.9037 83.5687 87.0057C84.0187 87.0397 85.1237 87.0217 85.4267 87.4587C85.9787 88.2567 84.7167 90.8377 84.1177 91.4237C83.6427 91.8867 82.8447 91.8497 82.2127 91.8597C81.9707 91.8637 80.9997 91.6747 80.8117 91.8157C80.8117 91.8157 76.2727 95.2207 72.7067 93.9237L66.4657 96.8887C65.5527 97.3217 64.6387 97.7567 63.7247 98.1897C63.0067 98.5307 61.8797 99.3787 61.0967 99.4477C59.6727 99.5737 58.8747 97.2277 58.5897 96.0687C58.3307 95.0157 58.2597 93.9317 58.2327 92.8497C58.2307 92.7697 58.2287 92.6947 58.2287 92.6247" fill="#ccccff"/><path id="Fill 62" fill-rule="evenodd" clip-rule="evenodd" d="M58.6279 101.462L56.1459 101.733C55.8429 97.9307 56.3239 93.9317 56.5699 92.2457C56.6429 91.7517 57.0209 91.3607 57.5119 91.2687L61.8229 90.4577C61.5939 96.0087 62.2159 100.824 62.5379 102.868C62.6299 103.457 62.2499 104.015 61.6669 104.141L57.7589 104.985C57.1659 105.114 56.5719 104.736 56.4589 104.141C56.3569 103.606 56.2769 103.055 56.2159 102.495L58.6279 101.462Z" fill="#6C5DE0"/><g id="Group 66"><mask id="mask1_723_24850ea3bcec2-be11-4b90-aae4-a05a030cfb00" style="mask-type:luminance" maskUnits="userSpaceOnUse" x="99" y="72" width="14" height="13" fill="#ffffff"><path id="Clip 65" fill-rule="evenodd" clip-rule="evenodd" d="M99.1113 72.5579H112.422V84.2537H99.1113V72.5579Z" fill="#ffffff"/></mask><g mask="url(#mask1_723_24850ea3bcec2-be11-4b90-aae4-a05a030cfb00)"><path id="Fill 64" fill-rule="evenodd" clip-rule="evenodd" d="M108.503 80.9519L107.461 83.2219C104.043 81.5269 100.859 79.0599 99.5393 77.9839C99.1523 77.6679 99.0113 77.1419 99.1843 76.6739L100.703 72.5579C105.348 75.6069 109.799 77.5469 111.718 78.3199C112.271 78.5429 112.554 79.1559 112.363 79.7209L111.08 83.5079C110.885 84.0829 110.256 84.3979 109.687 84.1889C109.176 84.0029 108.662 83.7869 108.151 83.5529L108.503 80.9519Z" fill="#6C5DE0"/></g></g></g></g></g></g></g><g id="Desk"><g id="Plant"><path id="Fill 185" fill-rule="evenodd" clip-rule="evenodd" d="M89.1964 156.91C89.0954 155.719 88.9934 154.017 88.9294 152.823C88.8244 150.837 88.7414 148.848 88.6644 146.86C88.6364 146.158 88.8664 145.923 89.5684 145.802C90.4144 145.654 91.2714 145.59 92.1264 145.535C92.6584 145.5 93.1844 145.39 93.7174 145.373C93.8774 145.368 94.4214 145.369 94.5474 145.487C94.6084 145.545 94.5714 146.036 94.5344 146.037C93.3584 146.068 92.1774 145.958 91.0094 146.175C90.7844 146.217 90.4454 146.207 90.4094 146.433C90.3594 146.742 90.7494 146.666 90.9304 146.785C90.9804 146.817 91.0544 146.813 91.1174 146.824C92.7764 147.099 94.4364 147.371 96.1274 147.207C97.3384 147.089 98.5424 146.929 99.7304 146.665C99.9274 146.622 100.216 146.563 100.196 146.304C100.17 145.976 99.8524 146.043 99.6314 146.042C98.1944 146.035 96.7574 146.04 95.3204 146.04C95.2114 145.88 95.2224 145.709 95.2754 145.534C96.1244 145.218 96.9744 145.554 97.8224 145.53C98.5674 145.576 99.3124 145.629 100.058 145.663C102.563 145.778 100.965 156.068 100.896 156.876L89.1964 156.91Z" fill="#FF67FF"/><path id="Fill 187" fill-rule="evenodd" clip-rule="evenodd" d="M94.5347 146.037C94.6057 146.242 94.5977 146.451 94.5727 146.664C94.5407 146.941 94.7067 147.038 94.9517 147.054C95.2227 147.072 95.3397 146.931 95.3367 146.674C95.3357 146.463 95.3267 146.252 95.3207 146.041C96.7577 146.04 98.1947 146.035 99.6317 146.042C99.8527 146.043 100.171 145.976 100.197 146.305C100.217 146.563 99.9277 146.622 99.7307 146.665C98.5427 146.929 97.3387 147.089 96.1277 147.207C94.4357 147.371 92.7767 147.099 91.1177 146.824C91.0547 146.813 90.9807 146.817 90.9307 146.785C90.7497 146.666 90.3597 146.742 90.4097 146.433C90.4457 146.207 90.7847 146.217 91.0097 146.175C92.1777 145.958 93.3587 146.068 94.5347 146.037" fill="#503890"/><path id="Fill 189" fill-rule="evenodd" clip-rule="evenodd" d="M95.2527 141.008C94.9497 141.444 94.7157 141.908 94.5907 142.426L94.5697 142.452C93.9757 141.862 93.9687 141.126 94.0477 140.366C94.0637 140.221 94.1287 140.127 94.2617 140.078C94.9917 139.811 95.2997 139.146 95.6787 138.555C95.8077 138.354 96.0297 138.085 95.7657 137.865C95.5137 137.656 95.2387 137.832 94.9997 137.987C94.7207 138.169 94.5667 138.507 94.2277 138.647C94.1097 137.613 94.1667 137.502 94.9797 137.064C95.4167 136.828 95.8317 136.563 96.1317 136.153C96.2697 135.964 96.3197 135.763 96.1997 135.552C96.0847 135.35 95.8807 135.388 95.6877 135.369C95.3247 135.335 95.1017 135.679 94.7247 135.726C94.7647 135.081 95.0217 134.574 95.3407 134.089C95.6617 133.603 95.9167 133.081 96.0907 132.528C96.1597 132.31 96.1877 132.035 95.9087 131.909C95.6487 131.792 95.5237 132.012 95.3857 132.173C94.9597 132.672 94.7777 133.295 94.5277 133.928C94.3177 133.726 94.2887 133.485 94.1957 133.274C94.0587 132.96 93.9167 132.648 93.7557 132.346C93.6607 132.168 93.5027 132.024 93.2837 132.133C93.0937 132.229 93.1207 132.43 93.1757 132.591C93.3227 133.015 93.3557 133.5 93.6567 133.845C94.3967 134.687 94.1687 135.557 93.7947 136.574C93.5387 136.07 93.3087 135.665 92.9687 135.34C92.8097 135.188 92.6277 135.128 92.4427 135.197C92.2197 135.281 92.2177 135.526 92.2677 135.698C92.3817 136.097 92.4257 136.508 92.8037 136.822C93.1317 137.096 93.5487 137.393 93.5757 137.884C93.6227 138.747 93.3607 139.595 93.4697 140.472C93.1907 140.253 93.0187 140 92.7897 139.819C92.3217 139.448 92.1777 138.996 92.2297 138.41C92.2777 137.858 92.2467 137.291 92.0827 136.751C91.9967 136.471 91.9167 136.119 91.5117 136.174C91.0997 136.23 91.0377 136.556 91.0697 136.904C91.1167 137.4 91.1747 137.894 91.2317 138.425C90.6427 138.242 90.4277 137.96 90.4797 137.361C90.5297 136.776 90.4127 136.164 90.1207 135.617C90.0067 135.406 89.8437 135.279 89.6017 135.326C89.3537 135.375 89.3627 135.598 89.3387 135.787C89.2597 136.397 89.3257 137.029 89.4057 137.636C89.0287 137.755 87.8257 137.106 87.6737 137.8C87.6147 138.074 87.8387 138.171 88.0227 138.272C88.4387 138.499 88.8957 138.426 89.3427 138.438C89.6727 138.446 90.0457 138.559 90.1597 138.829C90.2857 139.13 89.8777 139.166 89.6787 139.296C89.5147 139.403 89.3487 139.529 89.4147 139.757C89.4677 139.944 89.6377 140.002 89.8167 140.022C90.3077 140.075 90.7997 140.125 91.2767 139.949C91.5967 139.832 91.8607 139.897 92.0867 140.145C93.0857 141.233 93.8167 142.465 94.1427 143.918C94.0957 143.971 94.0477 144.024 94.0017 144.076C93.4907 143.797 93.1947 143.25 92.6657 142.998C92.3977 142.871 92.0727 142.703 91.8417 142.984C91.6037 143.275 91.9197 143.503 92.0867 143.694C92.6757 144.362 93.4387 144.785 94.2447 145.136C94.7427 145.307 94.4907 145.719 94.5347 146.036C94.6057 146.241 94.5977 146.45 94.5727 146.663C94.5407 146.941 94.7067 147.037 94.9507 147.053C95.2227 147.071 95.3387 146.93 95.3367 146.673C95.3357 146.462 95.3267 146.251 95.3207 146.039C95.2107 145.879 95.2217 145.708 95.2757 145.533C95.3347 145.341 95.1667 144.923 95.1337 144.723C95.0827 144.414 95.0377 144.101 95.0597 143.788C95.1057 143.144 95.5027 142.61 95.8177 142.067C95.9577 141.824 96.3027 141.238 96.1857 140.945C96.0107 140.508 95.4447 140.733 95.2527 141.008" fill="#C664E9"/><path id="Fill 191" fill-rule="evenodd" clip-rule="evenodd" d="M93.2091 152.638C93.2081 152.602 92.8441 152.33 92.7961 152.248C92.7131 152.104 92.6791 151.945 92.6971 151.78C92.7471 151.331 93.0171 151.147 93.4081 151.027C93.9021 150.876 93.7541 150.159 94.2661 149.94C94.6871 149.759 95.1661 149.985 95.4521 150.302C95.8131 150.363 96.1991 150.074 96.5691 150.325C96.7871 150.473 96.9151 150.677 96.9601 150.945C97.0021 151.194 96.8571 151.42 96.9061 151.672C96.9641 151.79 97.0791 151.867 97.1731 151.961C97.6671 152.462 97.4141 153.305 96.7501 153.397C96.7021 153.404 96.6551 153.411 96.6411 153.413C96.3401 153.459 96.2211 154.139 95.9871 154.315C95.8391 154.426 95.6731 154.522 95.4901 154.547C95.0301 154.611 94.9561 154.201 94.6241 154.032C94.4811 154.073 94.3211 154.121 94.1591 154.166C93.7221 154.285 93.4331 154.133 93.2731 153.71C93.1821 153.469 93.0991 153.237 93.2101 152.973C93.2491 152.881 93.2111 152.758 93.2091 152.638" fill="#4DDEFF"/><path id="Fill 193" fill-rule="evenodd" clip-rule="evenodd" d="M95.5963 152.395C95.5963 152.69 95.3573 152.929 95.0623 152.929C94.7663 152.929 94.5273 152.69 94.5273 152.395C94.5273 152.099 94.7663 151.86 95.0623 151.86C95.3573 151.86 95.5963 152.099 95.5963 152.395" fill="#EFF2F9"/></g><path id="Fill 167" fill-rule="evenodd" clip-rule="evenodd" d="M179.254 156.472H129.377C129.265 156.472 129.175 156.382 129.175 156.271C129.175 154.722 130.43 153.467 131.979 153.467H179.254C179.365 153.467 179.455 153.557 179.455 153.668V156.271C179.455 156.382 179.365 156.472 179.254 156.472" fill="#8A60E2"/><path id="Fill 169" fill-rule="evenodd" clip-rule="evenodd" d="M195.907 128.912L189.681 155.242C189.515 155.944 188.889 156.439 188.168 156.439H149.818C148.814 156.439 148.074 155.503 148.304 154.526L154.53 128.197C154.696 127.495 155.322 127 156.043 127H194.393C195.397 127 196.138 127.936 195.907 128.912" fill="#432C82"/><path id="Fill 171" fill-rule="evenodd" clip-rule="evenodd" d="M188.729 153.785H154.429C154.273 153.785 154.147 153.66 154.147 153.505C154.147 153.349 154.273 153.223 154.429 153.223H188.729C188.884 153.223 189.01 153.349 189.01 153.505C189.01 153.66 188.884 153.785 188.729 153.785" fill="#FF67FF"/><path id="Fill 173" fill-rule="evenodd" clip-rule="evenodd" d="M170.515 141.986C170.556 143.934 173.858 146.375 173.858 146.375C173.858 146.375 177.692 143.934 178.158 141.986C178.663 139.874 176.251 139.225 174.464 140.818C173.025 139.225 170.471 139.874 170.515 141.986" fill="#FF67FF"/><path id="Fill 175" fill-rule="evenodd" clip-rule="evenodd" d="M157.562 127L150.934 156.439H149.817C148.813 156.439 148.073 155.503 148.304 154.526L154.529 128.197C154.695 127.495 155.321 127 156.042 127H157.562Z" fill="#8A60E2"/><path id="Fill 177" fill-rule="evenodd" clip-rule="evenodd" d="M192.867 158.557V160.583C192.867 161.749 192.162 162.694 191.293 162.694H81.7839C80.9149 162.694 80.2109 161.749 80.2109 160.583V158.557C80.2109 157.391 80.9149 156.447 81.7839 156.447H191.293C192.162 156.447 192.867 157.391 192.867 158.557" fill="#FFB700"/><path id="Fill 179" fill-rule="evenodd" clip-rule="evenodd" d="M185.178 167.902H91.0367C88.1467 167.902 85.8037 165.559 85.8037 162.67H190.411C190.411 165.559 188.068 167.902 185.178 167.902" fill="#EA9800"/><path id="Fill 181" fill-rule="evenodd" clip-rule="evenodd" d="M86.259 241.797L104.082 167.902H97.822L80 241.797H86.259Z" fill="#FFB700"/><path id="Fill 183" fill-rule="evenodd" clip-rule="evenodd" d="M191.468 241.797L173.646 167.902H179.905L197.727 241.797H191.468Z" fill="#FFB700"/></g></g></svg>